<svg width="46" height="48" viewBox="0 0 46 48" fill="none" xmlns="http://www.w3.org/2000/svg">
<g clip-path="url(#clip0_40_2)">
<path opacity="0.44" d="M29.3959 25.2055L44.6707 10.0673C45.4892 9.22397 45.9419 8.09644 45.9316 6.92634C45.9213 5.75624 45.4489 4.63669 44.6157 3.80765C43.7825 2.97862 42.6547 2.50606 41.4741 2.49128C40.2935 2.4765 39.154 2.92066 38.2999 3.72857L23 18.8917L7.70012 3.72857C6.84601 2.92066 5.70655 2.4765 4.52594 2.49128C3.34534 2.50606 2.21756 2.97862 1.38432 3.80765C0.551088 4.63669 0.0787073 5.75624 0.0684301 6.92634C0.0581529 8.09644 0.510797 9.22397 1.32935 10.0673L16.6042 25.2055L1.32935 40.3687C0.894596 40.7799 0.547068 41.273 0.307141 41.8191C0.0672135 42.3652 -0.0602845 42.9533 -0.067877 43.5488C-0.0754695 44.1444 0.0369963 44.7355 0.262926 45.2874C0.488855 45.8393 0.823701 46.341 1.24783 46.763C1.67196 47.185 2.17683 47.5188 2.73284 47.7449C3.28885 47.971 3.88482 48.0847 4.48578 48.0796C5.08675 48.0744 5.68062 47.9503 6.23258 47.7147C6.78454 47.4791 7.28347 47.1366 7.70012 46.7073L23 31.5442L38.2999 46.7073C38.7166 47.1366 39.2155 47.4791 39.7674 47.7147C40.3194 47.9503 40.9133 48.0744 41.5142 48.0796C42.1152 48.0847 42.7112 47.971 43.2672 47.7449C43.8232 47.5188 44.3281 47.185 44.7522 46.763C45.1763 46.341 45.5112 45.8393 45.7371 45.2874C45.963 44.7355 46.0755 44.1444 46.0679 43.5488C46.0603 42.9533 45.9328 42.3652 45.6929 41.8191C45.453 41.273 45.1054 40.7799 44.6707 40.3687L29.3959 25.2055Z" fill="white"/>
<path d="M29.3959 22.7944L44.6707 7.63127C45.0938 7.21941 45.43 6.72812 45.6594 6.18609C45.8889 5.64406 46.007 5.06215 46.007 4.47435C46.007 3.88655 45.8889 3.30465 45.6594 2.76261C45.43 2.22058 45.0938 1.72929 44.6707 1.31744C44.2551 0.898054 43.7594 0.564935 43.2125 0.337537C42.6655 0.110138 42.0784 -0.0069809 41.4853 -0.0069809C40.8922 -0.0069809 40.305 0.110138 39.7581 0.337537C39.2112 0.564935 38.7155 0.898054 38.2999 1.31744L23 16.4557L7.70012 1.31744C7.28455 0.898054 6.78883 0.564935 6.24191 0.337537C5.69499 0.110138 5.10783 -0.0069809 4.51473 -0.0069809C3.92163 -0.0069809 3.33448 0.110138 2.78756 0.337537C2.24064 0.564935 1.74492 0.898054 1.32935 1.31744C0.906179 1.72929 0.570055 2.22058 0.340606 2.76261C0.111157 3.30465 -0.00701904 3.88655 -0.00701904 4.47435C-0.00701904 5.06215 0.111157 5.64406 0.340606 6.18609C0.570055 6.72812 0.906179 7.21941 1.32935 7.63127L16.6042 22.7944L1.32935 37.9575C0.906179 38.3694 0.570055 38.8607 0.340606 39.4027C0.111157 39.9447 -0.00701904 40.5266 -0.00701904 41.1144C-0.00701904 41.7022 0.111157 42.2841 0.340606 42.8262C0.570055 43.3682 0.906179 43.8595 1.32935 44.2713C1.74492 44.6907 2.24064 45.0239 2.78756 45.2513C3.33448 45.4786 3.92163 45.5958 4.51473 45.5958C5.10783 45.5958 5.69499 45.4786 6.24191 45.2513C6.78883 45.0239 7.28455 44.6907 7.70012 44.2713L23 29.1331L38.2999 44.2713C39.1618 45.0193 40.2785 45.4145 41.4235 45.3769C42.5685 45.3393 43.6562 44.8717 44.4663 44.0688C45.2764 43.266 45.7482 42.1879 45.7862 41.0532C45.8241 39.9184 45.4254 38.8118 44.6707 37.9575L29.3959 22.7944Z" fill="white"/>
</g>
<defs>
<clipPath id="clip0_40_2">
<rect width="46" height="48" fill="white"/>
</clipPath>
</defs>
</svg>
