<svg width="253" height="141" viewBox="0 0 253 141" fill="none" xmlns="http://www.w3.org/2000/svg">
<path d="M194.332 16.1081H57.9305C25.9364 16.1081 0 42.0873 0 74.1343V82.9738C0 115.021 25.9364 141 57.9305 141H194.332C226.326 141 252.262 115.021 252.262 82.9738V74.1343C252.262 42.0873 226.326 16.1081 194.332 16.1081Z" fill="#422B00"/>
<path d="M195.069 0H58.6684C26.6743 0 0.737946 25.9792 0.737946 58.0262V66.8657C0.737946 98.9127 26.6743 124.892 58.6684 124.892H195.069C227.064 124.892 253 98.9127 253 66.8657V58.0262C253 25.9792 227.064 0 195.069 0Z" fill="#F5B91D"/>
<path d="M94.0602 28.3971C99.007 28.1203 103.951 28.9844 108.512 30.9227C110.036 31.7782 111.304 33.0258 112.185 34.5365C113.066 36.0472 113.528 37.7661 113.524 39.5157C113.484 42.0096 112.772 44.4463 111.464 46.5688C108.228 51.2861 104.416 55.5799 100.118 59.3506C100.517 59.9666 100.886 60.6133 101.225 61.2601C104.237 66.4739 105.639 72.4654 105.253 78.477C105.471 80.6221 105.249 82.7893 104.598 84.8448C103.948 86.9002 102.883 88.8002 101.471 90.4272C97.958 93.4572 93.4352 95.0516 88.8022 94.8932C83.7821 94.9696 78.764 94.64 73.7969 93.9076L72.3517 80.0786C76.9782 80.5809 81.6272 80.8482 86.2808 80.8794C87.4899 80.9316 88.6906 80.6548 89.7554 80.0786C90.2371 79.8869 90.647 79.5495 90.9281 79.1133C91.2092 78.6772 91.3474 78.164 91.3236 77.6455C91.4454 73.9563 90.6196 70.2975 88.9252 67.0196C86.0269 62.4815 82.2783 58.5488 77.8864 55.439L88.9252 47.5236L91.0776 49.1559C92.7688 47.5544 94.337 46.076 95.7514 44.4744C96.7354 43.5812 97.2273 42.8728 97.2273 42.3185C96.5849 41.6626 95.8041 41.159 94.9422 40.8446C94.0803 40.5302 93.1591 40.4129 92.2461 40.5013C81.0041 41.5296 69.9997 44.3581 59.6525 48.8787L55.4399 36.559C67.6503 31.3147 80.7755 28.5409 94.0602 28.3971V28.3971Z" fill="#3F3B00"/>
<path d="M136.063 26.8264L146.148 28.9824C145.656 29.8756 145.164 30.7995 144.734 31.7235H146.886C149.762 31.6574 152.611 32.2916 155.188 33.5715C156.444 34.3288 157.471 35.4137 158.159 36.7103C158.847 38.0068 159.17 39.4663 159.094 40.9326C158.934 43.3463 158.383 45.718 157.464 47.9549L158.14 48.4168C159.666 49.8572 160.881 51.5947 161.711 53.5227C162.541 55.4506 162.969 57.5282 162.968 59.6279C163.675 57.4719 164.413 55.3159 165.213 53.2524L174.683 55.3159L173.269 59.2583H175.267C175.411 57.7799 175.534 56.3015 175.636 54.8231L187.29 55.9319C187.29 57.2255 187.075 58.4575 186.983 59.6279C189.535 59.8435 192.087 59.9975 194.608 60.1514L193.809 70.2537L186.306 69.8841C186.306 71.6705 186.306 73.426 186.091 75.1508L194.916 74.4116L196.176 85.0066C192.671 85.407 189.166 85.7458 185.63 85.9922C185.63 89.0722 185.63 91.9057 185.414 94.8933L173.945 93.6921C173.945 91.3205 173.945 89.0106 173.945 86.7314C170.532 86.9162 167.15 87.0702 163.798 87.1626L162.537 76.4752C166.442 76.4752 170.348 76.198 174.253 75.9516L174.529 69.5145H170.317C170.009 70.9929 169.702 72.5944 169.364 74.196L162.537 72.7176C162.537 75.3356 162.107 78.1075 161.738 81.0335C161.358 85.4279 160.534 89.7724 159.278 94.0001L149.5 91.9981C150.176 89.1954 150.791 86.3926 151.283 83.6206L139.722 85.9922C139.722 88.0866 139.906 90.1809 140.029 92.3061L130.221 93.1993C129.237 76.3828 128.355 61.445 127.576 48.386L134.156 47.7701L128.468 46.5073C130.115 39.638 132.669 33.0194 136.063 26.8264V26.8264ZM138.369 61.9378H141.444C141.444 60.1514 141.444 58.4575 141.444 56.8251C140.245 57.3795 139.045 57.9955 137.877 58.6731C138.369 59.8435 138.369 60.8906 138.369 61.9378ZM139.199 76.7832L141.321 76.3212C141.321 74.504 141.321 72.6868 141.321 70.9005H138.799C139.045 72.8408 139.138 74.812 139.261 76.7832H139.199ZM139.199 46.9385C141.859 45.7927 144.702 45.1354 147.594 44.9981C147.971 44.0075 148.219 42.9723 148.332 41.9182C148.332 41.5178 147.194 41.333 144.918 41.333C143.412 41.5354 141.929 41.8861 140.491 42.3802C139.906 43.9817 139.507 45.4601 139.107 46.9385H139.199ZM149.777 74.658C150.791 74.658 151.745 74.35 152.667 74.1652C152.667 73.2104 152.852 72.2556 152.913 71.3317L149.838 71.1777C149.715 72.4096 149.684 73.5492 149.684 74.6888L149.777 74.658ZM150.146 56.1783C150.146 58.1803 150.146 60.2438 150.146 62.3382H153.405C153.424 61.2007 153.188 60.0734 152.714 59.0393C152.241 58.0052 151.542 57.0907 150.668 56.3631L150.146 56.1783ZM178.527 27.7196C182.582 27.5331 186.555 28.911 189.627 31.5695C191.177 32.9394 192.405 34.6355 193.223 36.5364C194.042 38.4373 194.431 40.4959 194.362 42.5649C194.205 46.9591 193.015 51.254 190.888 55.1003L179.941 52.6672C181.308 49.6939 182.399 46.6009 183.201 43.4273C183.354 42.2933 183.093 41.1417 182.466 40.1851C181.839 39.2285 180.888 38.5314 179.787 38.2222C177.829 43.3169 176.316 48.5726 175.267 53.93L164.659 51.5584C165.339 47.7739 166.305 44.0466 167.549 40.409L162.507 42.5649L160.508 32.5551C166.141 29.7792 172.263 28.1364 178.527 27.7196V27.7196Z" fill="#3F3B00"/>
</svg>
