<svg width="711" height="715" viewBox="0 0 711 715" fill="none" xmlns="http://www.w3.org/2000/svg">
<g clip-path="url(#clip0_41_2)">
<path d="M580.545 518.894L711 500.613V108.908L602.616 97.7548L711 88.54V38.7679C711 17.3561 689.347 0 662.624 0H48.3763C21.653 0 0 17.3561 0 38.7679V342.559L92.1595 358.365L0 360.035V676.143C0 697.525 21.653 714.911 48.3763 714.911H68.5977L115.811 645.456L92.3086 714.911H662.624C689.466 714.911 711 697.554 711 676.143V525.156L580.545 518.894Z" fill="#51331F"/>
<path d="M583.915 506.786L711 488.893V106.403L605.449 95.4288L711.03 86.4823V37.8435C711.03 16.9684 689.944 0 663.906 0H65.6152C39.4288 0 18.3126 16.9386 18.3126 37.8435V334.597L108.116 350.015L18.3126 351.655V660.516C18.3126 681.391 39.4288 698.389 65.4661 698.389H85.0313L131.051 630.546L108.116 698.389H663.876C689.914 698.389 711 681.421 711 660.516V512.93L583.915 506.786Z" fill="#83593D"/>
<path opacity="0.32" d="M708.226 79.1164C613.293 85.6771 536.553 85.4088 484.747 84.037C360.466 80.7268 299.384 68.828 173.791 70.5278C106.893 71.5716 52.6711 75.7466 18.3126 79.1164V52.0981C50.4641 50.279 102.479 47.8635 166.752 47.6249C302.128 47.0881 364.313 56.5714 487.163 58.2414C537.687 58.9273 613.83 58.5396 708.226 52.0981V79.1164Z" fill="#291100"/>
<path opacity="0.19" d="M708.226 291.654C613.293 298.215 536.553 297.946 484.747 296.575C360.466 293.264 299.384 281.366 173.791 283.066C106.893 283.96 52.6711 288.284 18.3126 291.654V264.636C50.4641 262.817 102.479 260.401 166.752 260.163C302.128 259.626 364.313 269.109 487.163 270.779C537.687 271.465 613.83 271.077 708.226 264.636V291.654Z" fill="#050000"/>
<path opacity="0.19" d="M709.628 419.409C614.665 425.97 537.955 425.702 486.119 424.3C361.868 420.99 300.756 409.121 175.192 410.791C108.295 411.715 54.043 416.04 19.7144 419.409V392.391C51.836 390.542 103.881 388.156 168.154 387.888C303.53 387.351 365.715 396.834 488.565 398.534C539.088 399.22 615.232 398.803 709.628 392.391V419.409Z" fill="white"/>
<path opacity="0.06" d="M709.628 627.802C614.665 634.333 537.955 634.094 486.119 632.693C361.868 629.382 300.756 617.514 175.192 619.184C108.295 620.078 54.043 624.432 19.7144 627.802V600.754C51.836 598.935 103.881 596.549 168.154 596.281C303.53 595.744 365.715 605.227 488.565 606.897C539.088 607.613 615.232 607.195 709.628 600.754V627.802Z" fill="white"/>
<path opacity="0.19" d="M708.226 185.4C613.293 191.961 536.553 191.693 484.747 190.291C360.466 186.981 299.384 175.112 173.791 176.782C106.893 177.706 52.6711 181.911 18.3126 185.4V158.382C50.4641 156.533 102.479 154.147 166.752 153.879C302.128 153.342 364.313 162.825 487.163 164.495C537.687 165.211 613.83 164.794 708.226 158.531V185.4Z" fill="#4F3324"/>
<path opacity="0.19" d="M709.628 560.644C614.665 567.205 537.955 566.966 486.119 565.564C361.868 562.254 300.756 550.385 175.192 552.055C108.295 552.95 54.043 557.304 19.7144 560.644V533.626C51.836 531.807 103.881 529.421 168.154 529.152C303.53 528.616 365.715 538.099 488.565 539.769C539.088 540.485 615.232 540.067 709.628 533.626V560.644Z" fill="#050000"/>
<path opacity="0.19" d="M438.429 490.027C393.286 495.253 347.802 496.928 302.397 495.037C226.7 491.727 189.509 479.828 113.007 481.528C81.2828 482.216 49.6432 485.086 18.3126 490.116V463.098C37.8779 461.279 69.5819 458.863 108.712 458.625C191.179 458.088 229.057 467.571 303.888 469.241C348.824 470.178 393.772 468.096 438.429 463.008V490.027Z" fill="#4F3324"/>
<path opacity="0.19" d="M708.226 350.611C658.7 355.82 608.863 357.465 559.101 355.532C476.277 352.222 435.565 340.323 351.846 342.023C317.153 342.708 282.537 345.577 248.204 350.611V323.593C269.619 321.774 304.305 319.358 347.134 319.12C437.385 318.583 478.842 328.066 560.711 329.736C609.913 330.707 659.127 328.656 708.077 323.593L708.226 350.611Z" fill="#2C1400"/>
<g opacity="0.53">
<path opacity="0.53" d="M181.456 134.704L182.589 147.378H173.999L172.985 151.583C175.505 152.025 177.995 152.623 180.442 153.372C186.526 156.175 189.568 159.525 189.568 163.422V165.539C189.275 171.452 187.847 177.253 185.363 182.627L169.317 179.645C171.716 176.238 173.167 172.255 173.522 168.104C173.522 166.344 172.389 165.122 170.152 164.108C169.198 168.79 168.392 173.74 167.766 179.018L153.48 176.036C154.047 171.652 154.703 167.299 155.478 163.034H153.062C151.954 163.173 150.839 163.243 149.722 163.243C149.304 168.64 149.006 174.157 148.887 179.824L132.095 178.243C132.095 173.621 132.095 169.297 132.513 164.943C130.693 165.211 128.874 165.509 127.085 165.867C127.83 170.072 128.636 174.336 129.471 178.66L115.214 179.824C114.528 176.334 113.872 172.875 113.216 169.446C112.172 169.714 111.158 170.042 110.233 170.37C111.208 173.75 112.371 177.179 113.723 180.659L110.353 181.464C134.611 182.02 158.063 182.786 180.71 183.76L179.428 197.18C165.012 196.762 151.034 196.315 137.494 195.838C137.016 196.941 136.539 198.104 136.122 199.297C141.848 198.74 147.654 198.462 153.539 198.462C161.324 198.22 169.093 199.319 176.505 201.713C181.933 204.575 184.915 207.945 184.915 211.882V214.178C184.656 220.115 183.654 225.995 181.933 231.683L165.977 228.701C167.632 224.928 168.592 220.887 168.81 216.772C168.81 215.46 167.587 214.506 165.141 213.79C162.796 213.502 160.436 213.352 158.073 213.343C157.293 218.828 156.835 224.355 156.701 229.894L141.788 228.313C141.829 223.322 142.218 218.34 142.952 213.403C140.923 213.403 138.955 213.701 136.987 213.91C136.408 219.128 136.129 224.375 136.151 229.625L121.478 228.045C121.478 224.069 121.686 220.162 122.104 216.325C119.509 216.862 117.034 217.458 114.648 218.085C115.423 221.067 116.288 223.87 117.272 226.792L101.226 231.832C98.536 223.158 96.6002 214.268 95.4402 205.261L111.277 200.639C111.277 201.414 111.516 202.19 111.576 202.965L117.034 201.921C118.018 199.595 118.913 197.388 119.748 195.301L102.449 194.764L104.388 183.253L99.6456 184.595C96.3445 175.629 93.9369 166.359 92.4577 156.921L106.297 152.746C106.505 154.356 106.744 155.877 107.042 157.338L110.711 156.294C110.293 153.849 109.905 151.404 109.547 148.958L101.674 149.376L100.54 136.91C125.752 135.459 152.724 134.723 181.456 134.704ZM123.893 148.451C124.102 149.972 124.341 151.433 124.609 153.044C127.592 152.507 130.574 152.03 133.557 151.702C133.557 150.509 133.855 149.316 134.064 148.123C130.664 148.183 127.234 148.302 123.893 148.451V148.451ZM158.073 150.33C158.341 149.346 158.61 148.392 158.819 147.497L151.153 147.706C151.004 148.541 150.885 149.406 150.736 150.33H158.073Z" fill="#231815"/>
<path opacity="0.53" d="M224.106 165.122C222.227 165.599 220.377 166.136 218.558 166.672C219.542 169.267 220.556 171.772 221.541 174.217L206.628 181.345C202.564 172.795 199.56 163.782 197.681 154.505L213.1 148.123C213.369 149.465 213.667 150.718 213.935 151.911C221.26 149.627 228.721 147.804 236.274 146.453C235.35 144.575 234.515 142.636 233.739 140.668L250.948 133.541C252.343 137.159 254.208 140.578 256.496 143.71C261.954 143.233 267.561 142.905 273.287 142.785C279.064 142.545 284.824 143.562 290.168 145.767C292.21 146.946 293.905 148.641 295.083 150.683C296.261 152.725 296.88 155.041 296.879 157.398C296.399 163.55 295.126 169.614 293.091 175.44L276.628 173.442C278.244 169.456 279.375 165.291 279.998 161.036C279.998 158.531 276.478 157.249 269.41 157.249C257.485 158.066 245.64 159.791 233.978 162.408C248.234 163.303 262.043 164.386 275.405 165.658L274.122 181.255C255.81 179.704 238.442 178.342 222.018 177.169L224.106 165.122ZM288.408 183.015L289.959 199.357C283.179 199.357 276.399 199.466 269.619 199.685C268.933 201.713 268.306 203.83 267.74 206.067C267.615 207.347 267.908 208.634 268.575 209.735C268.923 210.181 269.38 210.531 269.903 210.75C270.425 210.969 270.995 211.051 271.557 210.987C277.943 210.318 284.253 209.06 290.407 207.23L293.389 223.691C286.653 225.498 279.78 226.755 272.84 227.449H269.112C264.206 227.754 259.367 226.187 255.571 223.065C253.833 221.187 252.491 218.978 251.625 216.57C250.759 214.161 250.387 211.604 250.531 209.049C250.626 206.121 250.976 203.208 251.574 200.341L237.855 201.176C235.189 209.776 233.195 218.57 231.89 227.478L214.472 223.661C215.489 216.631 216.893 209.662 218.677 202.786L207.463 204.039L205.793 187.637C233.217 184.478 260.803 182.945 288.408 183.044V183.015Z" fill="#231815"/>
<path opacity="0.53" d="M313.969 150.748C327.609 151.364 341 152.169 354.143 153.163C352.748 147.834 351.8 142.397 351.31 136.911L366.819 135.121C367.937 141.715 369.482 148.23 371.441 154.624C376.542 155.042 381.612 155.489 386.652 155.996C382.904 152.44 378.918 149.142 374.722 146.125L384.356 135.956C389.858 138.912 394.74 142.902 398.731 147.706L390.142 156.294L396.942 156.921L395.809 172.13L376.721 170.46C378.192 174.734 379.832 179.028 381.642 183.343C383.521 181.195 385.459 179.108 387.398 177.17L398.731 188.054C395.6 191.484 392.438 195.003 389.307 198.552C393.283 205.888 398.254 213.84 404.219 222.409L388.591 230.371C384.268 224.777 380.342 218.888 376.84 212.747C372.863 217.16 368.946 221.633 365.089 226.166L353.457 215.58C358.706 209.228 363.866 203.114 368.996 197.239C365.138 188.154 361.639 178.75 358.497 169.028L332.55 167C331.715 170.967 330.909 174.993 330.134 178.929C332.162 178.929 334.19 178.72 336.099 178.72C340.96 178.34 345.796 179.715 349.729 182.597C351.485 184.33 352.86 186.411 353.764 188.707C354.668 191.003 355.082 193.462 354.978 195.927V200.013C354.96 207.19 353.276 214.264 350.057 220.679L334.041 218.264C336.959 212.634 338.675 206.46 339.081 200.132C339.24 198.83 339.134 197.509 338.77 196.248C338.407 194.988 337.792 193.813 336.964 192.796C335.368 191.799 333.503 191.32 331.625 191.424C330.432 191.424 329.329 191.752 328.285 191.961C326.848 202.474 325.962 213.055 325.63 223.661L308.958 221.991C309.154 203.004 311.364 184.091 315.549 165.569L311.344 165.36L313.969 150.748Z" fill="#231815"/>
<path opacity="0.53" d="M421.756 137.745L439.383 142.368C439.349 142.464 439.349 142.57 439.383 142.666C447.193 140.445 455.273 139.321 463.392 139.326C471.384 139.276 479.366 139.904 487.252 141.205C491.323 141.954 495.189 143.555 498.597 145.904C502.005 148.253 504.878 151.296 507.026 154.833C510.566 160.499 512.345 171.056 512.365 186.504V192.259C512.232 197.936 511.226 203.558 509.382 208.929C508.098 212.874 505.79 216.408 502.693 219.169C499.596 221.93 495.822 223.82 491.756 224.645C484.127 226.151 476.356 226.82 468.582 226.643H460.41C445.855 226.445 435.049 224.456 427.99 220.679C418.207 216.007 413.316 205.659 413.316 189.635C413.356 177.348 416.169 160.052 421.756 137.745ZM463.512 156.503C462.319 156.503 461.066 156.503 459.754 156.503C456.281 165.894 453.646 175.574 451.88 185.43L435.625 181.911C436.89 174.557 438.674 167.303 440.964 160.201C438.518 160.976 436.072 161.841 433.627 162.825C431.894 171.556 431.015 180.435 431.002 189.337C431.002 197.289 433.696 202.458 439.085 204.844C443.479 207.786 453.47 209.367 469.059 209.585C474.171 209.595 479.269 209.065 484.27 208.005C486.101 207.67 487.823 206.892 489.284 205.738C490.745 204.583 491.901 203.089 492.651 201.385C494.077 197.675 494.786 193.728 494.738 189.754C495.051 183.04 494.49 176.313 493.068 169.744C492.114 167.149 490.578 164.808 488.577 162.9C486.576 160.992 484.163 159.569 481.526 158.74C478.639 168.237 476.466 177.936 475.024 187.756L458.68 183.879C460.053 174.67 462.046 165.564 464.645 156.622L463.512 156.503Z" fill="#231815"/>
<path opacity="0.53" d="M535.748 138.909C535.781 139.286 535.781 139.665 535.748 140.042C540.307 138.852 544.994 138.222 549.706 138.163C552.078 137.985 554.457 138.376 556.647 139.305C558.836 140.233 560.772 141.672 562.292 143.501C565.232 147.834 566.763 152.968 566.677 158.203V163.631C566.677 171.891 565.006 177.259 561.726 179.794C560.682 180.42 559.578 181.016 558.385 181.583C560.963 182.85 563.327 184.51 565.394 186.504C568.004 189.06 569.675 192.422 570.136 196.046C570.148 196.666 570.02 197.279 569.762 197.842C569.504 198.405 569.122 198.902 568.645 199.297C569.505 200.436 570.179 201.705 570.643 203.055C570.703 203.237 570.772 203.416 570.852 203.591C571.544 201.888 572.424 200.268 573.477 198.76C572.888 198.279 572.42 197.667 572.11 196.974C571.799 196.28 571.654 195.523 571.687 194.764C572.14 191.107 573.677 187.669 576.101 184.893C577.815 183.083 579.834 181.589 582.066 180.48C579.068 179.437 576.394 177.627 574.312 175.231C571.356 171.112 569.923 166.095 570.256 161.036C570.383 152.314 571.935 143.671 574.849 135.449L582.096 137.328C587.359 135.537 592.881 134.62 598.44 134.614C603.33 134.561 608.097 136.146 611.981 139.117C616.574 142.606 618.9 148.809 618.9 157.666V161.364C618.793 168.434 618.055 175.48 616.693 182.418C615.934 188.365 614.379 194.182 612.07 199.715L598.231 196.732C600.286 190.906 601.862 184.922 602.944 178.839C598.284 180.036 593.498 180.666 588.687 180.718H587.554C589.804 181.78 591.95 183.048 593.966 184.506C596.536 186.4 598.26 189.227 598.768 192.378C598.844 193.337 598.694 194.3 598.332 195.19C597.969 196.081 597.404 196.874 596.681 197.508C597.826 198.599 598.828 199.832 599.663 201.176C600.633 202.561 601.182 204.197 601.244 205.888C601.262 206.73 601.07 207.565 600.684 208.314C600.299 209.064 599.733 209.706 599.037 210.182C600.35 212.458 601.106 215.013 601.244 217.637C601.244 224.198 597.605 227.568 590.775 227.687H589.612C588.996 227.687 588.369 227.687 587.733 227.687C587.733 228.79 588.031 229.954 588.24 231.146L575.982 232.399C574.849 225.331 573.894 218.293 572.999 211.226C572.376 210.905 571.811 210.482 571.329 209.973C570.619 210.942 569.689 211.729 568.615 212.269C569.808 218.234 571.15 224.496 572.701 231.146L560.711 232.608C560.294 230.789 559.876 229.059 559.459 227.359C558.341 227.499 557.215 227.569 556.089 227.568C552.381 227.873 548.666 227.074 545.411 225.272C544.45 224.598 543.663 223.706 543.114 222.669C542.564 221.633 542.268 220.48 542.25 219.307C542.296 216.931 542.909 214.599 544.039 212.508C543.387 212.138 542.84 211.607 542.454 210.964C542.067 210.321 541.853 209.59 541.832 208.84C541.792 208.274 541.792 207.706 541.832 207.14L527.367 208.84C525.041 183.313 522.943 160.658 521.074 140.877L535.748 138.909ZM537.418 156.294C542.235 155.403 547.108 154.845 552.003 154.624C551.843 153.431 551.415 152.289 550.75 151.284C550.255 150.65 549.614 150.146 548.882 149.813C548.15 149.481 547.348 149.331 546.545 149.376C543.276 149.737 540.068 150.519 537.001 151.702C537.15 153.163 537.269 154.684 537.418 156.294ZM538.88 171.921C541.126 172.199 543.115 172.408 544.845 172.547C546.902 172.619 548.928 172.034 550.631 170.877C551.466 170.311 552.032 168.819 552.301 166.374C547.617 166.555 542.952 167.073 538.343 167.925C538.611 169.267 538.76 170.609 538.88 171.921ZM542.041 206.096C542.7 203.882 543.653 201.766 544.874 199.804C544.387 199.311 544.005 198.723 543.754 198.077C543.503 197.43 543.387 196.739 543.413 196.046C543.821 192.294 545.349 188.751 547.797 185.877C548.524 185.061 549.334 184.321 550.213 183.671H546.753C544.516 183.671 542.25 183.671 539.953 183.462C540.649 190.858 541.345 198.402 542.041 206.096ZM554.21 193.84C558.743 193.84 561.01 193.571 561.01 193.005C560.957 192.454 560.797 191.92 560.538 191.431C560.279 190.943 559.925 190.51 559.499 190.158C559.072 189.807 558.58 189.543 558.052 189.381C557.523 189.22 556.967 189.164 556.417 189.217C553.882 189.635 552.629 190.887 552.629 193.005C552.689 193.571 553.225 193.84 554.21 193.84ZM554.836 201.713C554.042 202.596 553.397 203.604 552.927 204.695C552.934 204.977 553.03 205.251 553.201 205.476C553.373 205.701 553.611 205.866 553.882 205.947C554.852 206.214 555.859 206.325 556.864 206.275C557.886 206.33 558.908 206.147 559.847 205.738C560.061 205.663 560.246 205.521 560.375 205.333C560.503 205.146 560.569 204.922 560.562 204.695C560.339 203.609 559.87 202.589 559.19 201.713H554.746H554.836ZM557.55 219.009C557.282 217.518 556.983 216.027 556.715 214.476H555.761H554.299C553.932 215.144 553.622 215.843 553.374 216.564C553.34 216.929 553.387 217.297 553.51 217.642C553.634 217.988 553.832 218.301 554.09 218.562C554.758 219.058 555.59 219.282 556.417 219.188L557.55 219.009ZM582.812 192.587C587.226 192.587 589.433 192.319 589.433 191.842C588.956 189.545 587.256 188.382 584.393 188.382C582.156 188.651 581.052 189.814 581.052 191.842C581.172 192.319 581.768 192.587 582.812 192.587ZM583.349 200.55C582.607 201.271 582.001 202.119 581.559 203.055C581.53 203.482 581.624 203.908 581.83 204.284C582.037 204.659 582.346 204.967 582.722 205.172C583.823 205.6 585.005 205.773 586.182 205.679C586.726 205.747 587.278 205.688 587.796 205.507C588.313 205.326 588.782 205.028 589.165 204.635C589.443 204.389 589.657 204.078 589.787 203.729C589.917 203.381 589.959 203.006 589.91 202.637C589.91 202.16 589.344 201.414 588.24 200.43C587.605 200.476 586.967 200.476 586.331 200.43L583.349 200.55ZM604.733 165.957C604.942 163.303 605.061 161.096 605.061 159.336C605.061 153.968 603.958 150.39 601.81 148.451C599.794 147.324 597.494 146.806 595.189 146.96C591.679 147.431 588.209 148.169 584.81 149.167C584.542 150.509 584.303 151.762 584.094 152.954C589.045 152.537 593.907 152.328 598.649 152.328L600.021 163.75C594.444 163.75 589.194 163.959 584.303 164.376C585.049 167.358 586.63 168.79 589.016 168.79C594.371 168.678 599.676 167.722 604.733 165.957V165.957ZM585.556 213.671C585.914 215.281 586.182 216.922 586.391 218.621C587.007 218.621 587.634 218.621 588.27 218.621C589.314 218.621 589.851 217.876 589.851 216.415C589.726 215.299 589.245 214.253 588.479 213.432C587.862 213.432 587.236 213.432 586.6 213.432L585.556 213.671Z" fill="#231815"/>
<path opacity="0.53" d="M239.316 281.574L240.897 299.169C232.785 299.169 224.642 299.348 216.47 299.706C218.757 317.599 221.203 336.048 223.807 355.055L205.763 357.172C204.093 346.198 202.522 335.263 201.051 324.368C189.121 330.71 173.741 338.434 154.911 347.54L147.366 330.661C164.784 322.211 181.843 313.752 198.546 305.283C198.406 303.752 198.227 302.29 198.009 300.899C182.003 301.933 165.957 303.642 149.871 306.028L148.32 288.404C163.63 285.958 179.457 284.209 195.802 283.155C195.175 277.728 194.579 272.33 194.042 267.022L211.937 264.815C212.563 270.541 213.279 276.326 214.055 282.111C222.366 281.773 230.786 281.594 239.316 281.574Z" fill="#231815"/>
<path opacity="0.53" d="M262.282 291.207L271.229 294.189C276.844 291.58 282.935 290.149 289.124 289.984C293.301 289.974 297.475 290.223 301.621 290.73C306.659 291.673 311.278 294.165 314.833 297.857C319.506 303.006 321.842 310.959 321.842 321.714V326.515C321.966 330.508 321.255 334.482 319.756 338.184C318.256 341.887 316.001 345.235 313.133 348.017C306.941 353.687 298.768 356.697 290.377 356.397H286.5C278.289 356.732 270.216 354.214 263.654 349.269C260.535 346.571 258.073 343.197 256.455 339.404C254.838 335.611 254.107 331.498 254.318 327.38C254.643 314.925 257.346 302.647 262.282 291.207V291.207ZM347.104 265.411L349.222 284.288H343.257C345.126 306.495 347.114 330.531 349.222 356.397L329.09 358.395C326.763 331.138 324.775 306.535 323.125 284.586C301.114 285.143 279.063 286.435 256.973 288.463L254.766 269.586C283.617 266.803 314.396 265.411 347.104 265.411ZM287.454 308.086C283.596 308.171 279.846 309.372 276.657 311.545C275.257 316.881 274.526 322.371 274.48 327.887C274.362 329.373 274.592 330.867 275.151 332.249C275.71 333.631 276.583 334.864 277.701 335.85C280.363 337.571 283.48 338.454 286.649 338.384H289.363C291.051 338.465 292.736 338.157 294.287 337.485C295.838 336.813 297.214 335.794 298.31 334.508C300.556 331.842 301.754 328.449 301.681 324.965V322.639C301.681 316.913 300.756 313.245 298.937 311.635C297.283 309.893 295.039 308.83 292.644 308.652C290.965 308.292 289.259 308.073 287.544 307.996L287.454 308.086Z" fill="#231815"/>
<path opacity="0.53" d="M372.814 263.115L387.07 266.097C386.384 267.35 385.728 268.662 385.072 269.974H388.054C392.123 269.881 396.154 270.771 399.805 272.568C401.58 273.637 403.033 275.166 404.01 276.993C404.986 278.82 405.45 280.877 405.353 282.946C405.125 286.368 404.349 289.731 403.056 292.907C403.39 293.101 403.709 293.32 404.011 293.563C407.918 296.754 410.155 302.092 410.721 309.487C411.705 306.505 412.749 303.523 413.853 300.541L427.274 303.523L425.276 309.07H428.258C428.467 306.982 428.646 304.895 428.795 302.778L445.259 304.358C445.259 306.177 444.99 307.937 444.841 309.607L455.638 310.352L454.475 324.607L443.887 324.07C443.887 326.575 443.648 329.08 443.588 331.526L456.055 330.482L457.845 345.393C452.864 345.959 447.913 346.406 442.932 346.764C442.932 350.969 442.753 355.144 442.604 359.349L426.35 357.679C426.35 354.309 426.35 351.029 426.35 347.808C421.518 348.076 416.716 348.285 411.974 348.434L410.184 333.345C415.702 333.345 421.249 332.957 426.767 332.599C426.767 329.617 427.035 326.635 427.185 323.474H421.22C420.802 325.561 420.355 327.768 419.877 330.064L410.214 327.977C410.005 331.675 409.618 335.611 409.081 339.726C408.525 345.869 407.366 351.942 405.621 357.858L391.752 354.876C392.737 350.909 393.572 346.943 394.288 342.947L377.914 346.287C377.914 349.269 378.212 352.251 378.331 355.234L364.492 356.486C363.12 332.748 361.868 311.645 360.734 293.175L370.07 292.34L361.987 290.551C364.365 280.967 368.006 271.741 372.814 263.115V263.115ZM376.184 312.708H380.687C380.687 310.203 380.687 307.788 380.896 305.491C379.226 306.267 377.526 307.132 375.856 308.116C375.796 309.726 375.796 311.247 376.064 312.708H376.184ZM377.317 333.583L380.3 332.957C380.3 330.362 380.3 327.828 380.3 325.293H376.721C376.929 328.036 377.078 331.019 377.198 333.673L377.317 333.583ZM377.108 291.445C380.878 289.791 384.925 288.86 389.038 288.702C389.537 287.352 389.887 285.952 390.082 284.527C390.082 283.96 388.472 283.692 385.251 283.692C383.109 283.965 381 284.455 378.957 285.153C378.152 287.33 377.556 289.418 376.989 291.535L377.108 291.445ZM392.021 330.661C393.423 330.452 394.795 330.184 396.107 329.915C396.107 328.573 396.345 327.261 396.435 325.919L392.14 325.71C392.021 327.5 391.991 329.14 391.991 330.75L392.021 330.661ZM392.558 304.328C392.558 307.31 392.409 310.114 392.349 313.036L396.942 313.245C397.038 311.66 396.777 310.073 396.178 308.602C395.579 307.131 394.658 305.814 393.482 304.746L392.558 304.328ZM432.822 264.278C438.567 264.012 444.195 265.966 448.539 269.735C450.731 271.667 452.469 274.058 453.629 276.739C454.789 279.419 455.343 282.323 455.25 285.243C455.01 291.45 453.325 297.515 450.329 302.957L434.79 299.497C436.764 295.33 438.313 290.974 439.413 286.495C439.63 284.895 439.261 283.27 438.373 281.921C437.484 280.573 436.137 279.591 434.581 279.159C431.766 286.337 429.561 293.739 427.99 301.287L413.077 297.947C414.037 292.602 415.403 287.338 417.163 282.201L410.035 285.183L407.202 271.048C415.218 267.182 423.909 264.913 432.792 264.368L432.822 264.278Z" fill="#231815"/>
<path opacity="0.53" d="M524.534 268.99C525.823 274.306 527.83 279.423 530.499 284.199L517.376 290.372C515.472 286.84 513.856 283.16 512.544 279.368L509.561 289.954C503.67 286.952 497.534 284.458 491.219 282.499L483.047 290.074C491.786 290.074 500.465 290.581 509.144 291.207L507.981 304.209C504.998 304 502.016 303.821 499.272 303.702C499.063 305.521 498.914 307.251 498.765 308.921C501.568 308.921 504.342 308.921 507.146 308.921L508.309 322.34C504.67 322.34 501.061 322.341 497.512 322.549C497.512 325.144 497.184 327.738 496.975 330.422C499.361 328.603 501.717 326.903 504.103 325.382L509.561 334.329C506.698 336.575 503.656 338.991 500.435 341.575C502.523 341.575 504.64 341.575 506.728 341.575L507.981 354.488C495.776 354.497 483.587 355.364 471.505 357.083L470.252 344.11C472.709 343.662 475.188 343.343 477.678 343.156C474.954 340.194 471.882 337.152 468.463 334.031L476.128 326.366L481.556 331.824C481.705 328.842 481.884 326.217 482.093 323.533C478.603 323.742 475.203 324.04 471.922 324.398L470.67 310.979L483.345 309.905C483.554 307.817 483.763 305.7 483.972 303.523C480.989 303.523 478.007 303.523 475.263 303.523L476.008 295.471L466.464 286.525C475.77 277.578 484.717 269.507 493.307 262.31L503.388 271.972C503.124 272.073 502.895 272.249 502.731 272.479C505.805 273.596 508.796 274.931 511.679 276.475C511.679 275.908 511.381 275.401 511.261 274.894L524.534 268.99ZM557.729 266.574L567.273 275.789C563.058 279.924 558.723 284.258 554.269 288.791L546.932 282.201C547.141 284.08 547.29 285.928 547.439 287.748C548.632 287.966 549.626 288.175 550.422 288.374C554.144 289.139 557.479 291.187 559.847 294.159C562.769 297.022 564.31 302.788 564.469 311.456C564.469 323.523 562.889 332.261 559.727 337.669C559.25 338.285 558.803 338.911 558.385 339.548C561.426 342.595 564.163 345.931 566.557 349.508L556.059 359.677C552.88 355.688 549.453 351.903 545.799 348.345C542.825 349.154 539.754 349.546 536.672 349.508C534.217 349.518 531.764 349.339 529.335 348.971C525.965 352.758 522.595 356.605 519.165 360.512L508.995 351.297C511.381 348.494 513.677 345.84 515.914 343.305L515.497 342.888C511.182 338.196 509.015 331.456 508.995 322.669C509.025 311.589 511.65 300.672 516.66 290.789L520.746 291.833C524.221 289.998 527.921 288.624 531.751 287.748C530.976 279.378 530.28 271.723 529.664 264.785L545.053 263.115C545.56 267.797 546.038 272.628 546.545 277.578C550.273 273.523 554.031 269.855 557.729 266.574ZM533.869 300.958C531.411 301.549 528.999 302.317 526.651 303.255C531.871 303.613 537.09 304.209 542.25 305.044L540.908 316.973C534.943 316.038 529.067 315.402 523.281 315.064C523.281 316.317 523.042 317.599 522.983 318.851C528.604 319.124 534.202 319.751 539.744 320.73L538.492 332.48C533.72 331.704 529.037 331.138 524.444 330.81C524.716 331.438 525.067 332.03 525.488 332.569C526.843 333.75 528.427 334.64 530.141 335.184C531.854 335.728 533.661 335.914 535.45 335.73C541.236 335.73 545.232 333.971 547.38 330.482C549.85 325.33 550.969 319.634 550.631 313.931C550.631 306.774 549.348 302.986 546.843 302.479C544.806 301.689 542.645 301.265 540.46 301.227C537.716 301.018 535.509 300.958 533.869 300.958Z" fill="#231815"/>
<path opacity="0.53" d="M192.342 405.035L197.263 406.109C201.008 404.744 204.858 403.686 208.776 402.948C209.283 399.966 209.79 396.775 210.356 393.614L225.448 395.403C225.03 398.057 224.642 400.711 224.314 403.365C225.459 403.562 226.579 403.882 227.655 404.32C229.802 404.926 231.803 405.963 233.536 407.368C235.269 408.773 236.698 410.516 237.736 412.491C240.718 416.397 242.508 424.419 242.657 436.497C242.657 447.531 241.076 455.523 237.944 460.354C235.725 463.634 232.747 466.331 229.263 468.215C225.779 470.1 221.892 471.117 217.932 471.18C217.723 476.756 217.574 482.392 217.514 488.059L202.423 486.389C202.423 480.722 202.632 475.116 202.84 469.599C198.654 468.671 194.805 466.607 191.716 463.635C189.621 461.072 187.986 458.166 186.884 455.046L185.959 466.796C182.977 466.498 179.994 466.259 177.012 466.05C177.37 471.508 177.668 477.174 177.966 483.048L161.294 484.808C160.876 479.231 160.519 473.804 160.22 468.555C158.759 470.523 157.238 472.402 155.717 474.221L144.503 464.171C149.533 457.73 154.355 451.766 158.968 446.279C158.968 444.191 158.789 442.133 158.669 440.106C155.24 440.374 151.899 440.732 148.708 441.149L146.918 424.688C159.351 423.359 171.845 422.692 184.349 422.69L185.184 431.398C186.125 422.28 188.542 413.377 192.342 405.035V405.035ZM152.108 400.443C162.964 400.771 173.433 401.308 183.573 401.994L182.201 418.038C170.689 417.411 159.803 416.875 149.603 416.368L152.108 400.443ZM176.207 450.304C179.487 450.513 182.708 450.752 185.84 451.02C185.119 447.508 184.77 443.93 184.796 440.344V439.062C181.665 439.062 178.563 439.062 175.58 439.062C175.789 442.76 175.968 446.458 176.207 450.304ZM203.556 453.973C203.854 449.41 204.153 445.026 204.511 440.553C202.84 440.404 201.17 440.284 199.47 440.225C199.629 446.368 200.623 450.603 202.453 452.929C202.761 453.318 203.135 453.651 203.556 453.913V453.973ZM205.972 426.179C206.27 423.197 206.568 420.483 206.926 417.68C205.316 418.097 203.944 418.574 202.512 419.052C201.826 421.348 201.23 423.644 200.753 425.881C202.482 425.881 204.242 425.97 205.972 426.119V426.179ZM222.227 418.425C221.869 421.557 221.541 424.777 221.183 428.058L225.895 428.893L224.642 443.267L219.811 442.312C219.483 447.084 219.125 451.855 218.767 456.686C221.277 456.174 223.515 454.764 225.06 452.72C227.252 448.514 228.281 443.799 228.043 439.062C228.043 426.835 226.78 420.274 224.255 419.38C223.639 418.933 222.953 418.591 222.227 418.366V418.425Z" fill="#231815"/>
<path opacity="0.53" d="M295.954 418.783L302.665 425.374C304.395 421.557 306.333 417.71 308.421 413.863L325.213 418.038C315.271 434.897 310.3 449.44 310.3 461.666V461.965C318.253 438.962 326.326 418.087 334.518 399.34L350.146 402.59C344.619 415.513 339.37 428.545 334.399 441.686L342.601 433.187C346.372 436.207 349.505 439.948 351.817 444.191L340.483 455.404C338.132 452.097 335.613 448.912 332.937 445.861C330.353 452.66 327.877 459.519 325.511 466.438C330.302 465.618 335.005 464.35 339.559 462.651L342.988 478.337C335.528 480.807 327.757 482.213 319.904 482.512C319.218 484.838 318.502 487.104 317.816 489.341L302.307 485.971C302.834 484.061 303.462 482.179 304.186 480.335C302.391 479.494 300.675 478.496 299.056 477.353C297.172 475.724 295.683 473.688 294.701 471.4C293.72 469.111 293.271 466.629 293.389 464.142C293.488 454.476 295.222 444.897 298.519 435.811C296.551 437.988 294.612 440.165 292.554 442.312L286.589 437.183L287.096 441.477C284.859 441.477 282.682 441.477 280.505 441.686L280.922 448.605C283.214 449.245 285.582 449.566 287.961 449.559L286.321 466.289C284.883 466.29 283.447 466.181 282.026 465.961C282.304 471.925 282.622 477.889 282.98 483.854L266.934 485.524C266.636 480.156 266.368 474.937 266.099 469.927C265.175 471.329 264.191 472.7 263.117 474.102L252.32 464.47C256.526 457.969 260.671 451.915 264.817 446.338C264.817 445.414 264.668 444.519 264.608 443.595C262.013 444.102 259.448 444.638 256.943 445.265L255.273 429.757C258.047 428.982 260.85 428.326 263.654 427.759C263.505 425.195 263.385 422.63 263.236 420.125C261.566 420.453 259.836 420.751 258.106 420.96L254.318 405.751C263.389 404.271 272.355 402.209 281.161 399.578L285.784 414.131C283.666 414.966 281.489 415.771 279.163 416.547C279.312 419.708 279.491 422.869 279.7 426.089C281.579 426.089 283.458 426.089 285.366 426.089L285.784 429.757C289.264 425.781 292.654 422.123 295.954 418.783ZM315.967 393.614C321.294 396.603 325.993 400.592 329.806 405.363L319.427 415.413C315.337 411.401 310.994 407.655 306.423 404.2L315.967 393.614Z" fill="#231815"/>
<path opacity="0.53" d="M396.912 434.41L398.702 449.917C394.914 449.917 391.305 449.917 387.786 450.126C387.786 453.346 387.547 456.597 387.487 459.877C390.54 460.815 393.719 461.277 396.912 461.249L395.361 477.174C392.57 477.204 389.786 476.894 387.07 476.249C387.07 480.066 387.07 484.033 387.07 488.178L372.396 486.508C372.396 483.526 372.396 480.335 372.396 477.263L370.07 481.05L358.438 472.641C362.684 466.156 367.494 460.058 372.813 454.42C372.813 453.495 372.813 452.571 372.813 451.587C369.473 452.143 366.192 452.74 362.971 453.376L361.182 437.75C365.387 437.034 369.503 436.408 373.559 435.841C373.768 432.65 373.977 429.459 374.185 426.328L360.347 423.167C362.572 412.54 366.088 402.225 370.815 392.451L385.728 395.91C385.171 397.103 384.574 398.326 383.938 399.578C390.801 398.806 397.701 398.418 404.607 398.415L405.77 410.91C401.833 410.91 397.986 410.91 394.228 411.209C395.749 413.117 397.21 415.145 398.731 417.173L388.979 426.119C385.867 421.872 382.274 417.999 378.271 414.578C377.228 418.067 376.303 421.676 375.468 425.374L388.979 426.954C388.979 429.519 388.71 432.113 388.561 434.708C391.335 434.469 394.109 434.41 396.912 434.41ZM409.618 422.242L418.207 424.24L423.755 423.405C432.643 423.405 438.409 423.992 441.053 425.165C445.293 426.136 449.004 428.684 451.432 432.292C454.743 435.811 456.443 442.939 456.592 453.704C456.741 464.47 455.011 472.909 451.85 477.8C446.879 485.315 439.194 489.072 428.795 489.072C418.396 489.072 410.781 486.697 405.949 481.945C401.376 477.054 399.099 469.887 399.119 460.444C399.177 447.006 402.8 433.823 409.618 422.242V422.242ZM428.467 398.385C437.247 397.493 446.067 397.045 454.892 397.043L456.055 409.628C452.059 409.628 448.152 409.628 444.304 409.926C445.553 411.023 446.71 412.22 447.764 413.505L437.594 422.72C433.566 418.563 429.026 414.935 424.083 411.924C423.367 414.787 422.741 417.65 422.204 420.513L407.918 417.531C409.464 408.862 411.965 400.391 415.374 392.272L429.75 395.254C429.224 396.234 428.795 397.263 428.467 398.326V398.385ZM427.214 473.356C432.195 473.356 435.565 472.044 437.385 469.36C439.531 465.497 440.515 461.096 440.218 456.686C440.218 446.964 438.936 441.776 436.341 441.06C434.339 439.978 432.113 439.376 429.839 439.3C427.185 439.3 424.918 439.062 423.039 439.062C421.16 439.062 420.056 439.658 418.834 440.016C418.416 441.209 418.028 442.402 417.67 443.595C421.352 443.036 425.071 442.757 428.795 442.76L430.167 454.181C425.254 454.172 420.347 454.551 415.493 455.314C415.493 456.448 415.493 457.521 415.493 458.565C420.534 457.878 425.616 457.529 430.704 457.521L431.957 468.734C427.188 468.721 422.424 469.04 417.7 469.688C417.719 469.774 417.756 469.856 417.807 469.928C417.858 469.999 417.923 470.06 417.998 470.106C419.203 471.287 420.654 472.185 422.248 472.737C423.841 473.289 425.538 473.48 427.214 473.297V473.356Z" fill="#231815"/>
<path opacity="0.53" d="M523.37 393.644C529.637 393.289 535.897 394.445 541.623 397.014C543.574 398.132 545.193 399.749 546.314 401.698C547.435 403.647 548.019 405.859 548.006 408.107C547.953 411.327 547.047 414.476 545.381 417.233C540.939 423.674 535.775 429.587 529.992 434.857C530.409 435.632 530.827 436.348 531.244 437.064C541.802 436.706 552.51 436.527 563.426 436.527L565.215 453.734C555.711 453.734 546.167 453.903 536.583 454.241C536.955 457.128 537.134 460.038 537.12 462.949C537.12 471.696 535.37 478.019 531.871 481.915C529.775 484.211 527.209 486.029 524.347 487.243C521.485 488.458 518.395 489.041 515.288 488.953C509.854 489.103 504.433 488.357 499.242 486.746L497.691 469.122C502.471 470.465 507.401 471.207 512.365 471.329C513.303 471.393 514.243 471.226 515.102 470.841C515.96 470.456 516.71 469.866 517.286 469.122C518.108 468.163 518.727 467.048 519.106 465.843C519.485 464.639 519.617 463.37 519.493 462.114C519.505 459.757 519.325 457.404 518.956 455.076C502.811 456.15 486.636 457.621 470.431 459.49L468.641 442.283C482.421 440.553 496.578 439.161 511.112 438.108C508.428 434.751 505.432 431.655 502.165 428.863L516.033 418.813L518.748 421.318C521.145 419.07 523.415 416.691 525.548 414.191C526.451 413.494 527.058 412.482 527.248 411.358C526.442 410.559 525.464 409.956 524.388 409.594C523.313 409.232 522.169 409.121 521.044 409.27C506.879 410.625 493.056 414.418 480.184 420.483L474.726 405.065C489.966 397.906 506.536 394.015 523.37 393.644V393.644Z" fill="#231815"/>
</g>
<path d="M181.277 122.268L182.44 134.972H173.85C173.433 136.433 173.045 137.954 172.687 139.147C175.342 139.654 177.817 140.25 180.143 140.936C186.228 143.74 189.27 147.089 189.27 150.986V153.103C188.962 159.014 187.535 164.813 185.065 170.191L169.019 167.209C171.423 163.805 172.875 159.821 173.224 155.668C173.224 153.938 172.091 152.686 169.854 151.702C168.86 156.394 168.054 161.364 167.438 166.613L153.182 163.63C153.748 159.247 154.404 154.893 155.18 150.628H152.764C151.656 150.767 150.54 150.837 149.424 150.837C149.006 156.235 148.708 161.752 148.559 167.418L131.797 165.837C131.797 161.215 131.946 156.891 132.215 152.537C130.395 152.805 128.576 153.133 126.757 153.461C127.532 157.676 128.337 161.941 129.172 166.255L114.916 167.418C114.23 163.929 113.544 160.469 112.918 157.04C111.874 157.308 110.86 157.636 109.935 157.964C110.919 161.334 112.083 164.764 113.395 168.253L110.144 169.297C134.422 169.853 157.874 170.619 180.501 171.593L179.189 184.893C164.794 184.476 150.815 184.028 137.255 183.551C136.748 184.655 136.301 185.818 135.883 187.011C141.609 186.434 147.415 186.156 153.301 186.176C161.086 185.935 168.854 187.035 176.266 189.426C181.843 192.408 184.647 195.659 184.647 199.595V201.891C184.388 207.828 183.386 213.709 181.665 219.397L165.738 216.415C167.445 212.651 168.455 208.61 168.72 204.486C168.72 203.174 167.498 202.219 165.052 201.504C162.718 201.197 160.367 201.027 158.013 200.997C157.199 206.53 156.711 212.106 156.552 217.697L141.639 216.146C141.681 211.155 142.07 206.173 142.802 201.235C140.774 201.235 138.806 201.534 136.837 201.772C136.201 206.878 135.852 212.015 135.794 217.16L121.09 215.609C121.09 211.613 121.388 207.707 121.746 203.86C119.151 204.426 116.676 204.993 114.29 205.649C115.065 208.631 115.93 211.405 116.914 214.327L100.868 219.367C98.2936 210.734 96.4773 201.893 95.4403 192.945L111.248 188.352C111.403 189.111 111.512 189.877 111.576 190.649L117.034 189.605C118.018 187.279 118.913 185.102 119.748 182.985C113.783 182.776 108.116 182.597 102.449 182.478L104.328 170.937L99.6158 172.309C96.3045 163.334 93.8869 154.054 92.3981 144.604L106.237 140.429C106.446 142.04 106.684 143.412 106.953 145.052L110.621 143.978C110.204 141.533 109.816 139.087 109.488 136.642L101.405 137.179L100.242 124.713C125.534 123.083 152.545 122.268 181.277 122.268ZM123.714 136.016C123.923 137.537 124.192 138.998 124.46 140.608C127.443 140.071 130.425 139.594 133.408 139.266C133.547 138.073 133.726 136.881 133.944 135.688C130.515 135.896 127.085 135.986 123.714 136.135V136.016ZM158.013 137.895C158.282 136.91 158.52 135.986 158.759 134.912L151.094 135.121C151.094 135.956 150.796 136.851 150.676 137.745H158.073L158.013 137.895Z" fill="white"/>
<path d="M223.956 152.805C222.078 153.282 220.228 153.819 218.409 154.356C219.393 156.951 220.407 159.485 221.392 161.931L206.479 169.058C202.423 160.506 199.419 151.494 197.531 142.219L212.951 135.807C213.219 137.149 213.488 138.402 213.786 139.594C221.151 137.323 228.652 135.52 236.244 134.197C235.32 132.318 234.485 130.38 233.709 128.441L250.918 121.314C252.261 124.916 254.055 128.333 256.257 131.483C261.715 130.976 267.292 130.678 273.049 130.529C278.825 130.288 284.585 131.306 289.93 133.511C291.973 134.694 293.67 136.395 294.848 138.442C296.026 140.489 296.644 142.809 296.64 145.171C296.15 151.273 294.877 157.287 292.852 163.064L276.389 161.036C278.011 157.097 279.172 152.985 279.849 148.779C279.849 146.274 276.329 145.022 269.261 145.022C257.335 145.825 245.489 147.55 233.829 150.181C248.085 151.076 261.884 152.159 275.226 153.432L273.973 169.058C255.661 167.507 238.292 166.106 221.869 164.853L223.956 152.805ZM288.23 170.698L289.81 187.04C283.04 187.04 276.24 187.04 269.47 187.368C268.784 189.396 268.127 191.514 267.591 193.75C267.459 195.041 267.753 196.339 268.426 197.448C268.767 197.904 269.222 198.263 269.745 198.488C270.269 198.713 270.842 198.797 271.408 198.73C277.804 198.049 284.124 196.781 290.287 194.943L293.27 211.405C286.533 213.217 279.661 214.483 272.721 215.192H268.933C264.033 215.484 259.204 213.907 255.422 210.778C253.715 208.897 252.402 206.693 251.562 204.296C250.722 201.898 250.371 199.357 250.531 196.822C250.626 193.895 250.976 190.981 251.575 188.114L237.825 188.949C235.17 197.562 233.176 206.365 231.86 215.281L214.263 211.494C215.287 204.467 216.681 197.499 218.439 190.619L207.225 191.871L205.554 175.529C232.992 172.283 260.6 170.68 288.23 170.728V170.698Z" fill="white"/>
<path d="M313.819 138.431C327.459 139.048 340.851 139.853 353.994 140.847C352.532 135.526 351.534 130.088 351.011 124.594L366.52 122.805C367.624 129.402 369.169 135.917 371.143 142.308C376.243 142.726 381.314 143.173 386.324 143.68C382.576 140.123 378.59 136.826 374.394 133.809L384.028 123.64C389.525 126.604 394.405 130.592 398.403 135.39L389.784 143.978L396.614 144.604L395.451 159.813L376.363 158.143C377.854 162.408 379.494 166.702 381.314 171.026C383.193 168.879 385.101 166.821 387.07 164.853L398.403 175.768C395.242 179.167 392.11 182.686 388.949 186.235C392.926 193.571 397.896 201.524 403.861 210.092L388.233 218.055C383.91 212.461 379.984 206.571 376.482 200.43C372.575 204.844 368.638 209.377 364.731 213.85L353.099 203.263C358.348 196.901 363.518 190.788 368.608 184.923C364.751 175.818 361.261 166.414 358.14 156.712L332.222 154.624C331.386 158.62 330.581 162.617 329.836 166.553C331.834 166.553 333.862 166.344 335.801 166.344C340.663 165.953 345.502 167.33 349.431 170.221C351.264 171.945 352.704 174.044 353.651 176.376C354.598 178.708 355.03 181.216 354.918 183.73V187.875C354.874 195.025 353.147 202.064 349.878 208.422L333.862 206.007C336.773 200.376 338.479 194.201 338.873 187.875C339.035 186.575 338.934 185.255 338.576 183.995C338.217 182.734 337.608 181.559 336.785 180.539C335.189 179.543 333.325 179.064 331.446 179.167C330.253 179.167 329.12 179.496 328.076 179.704C326.664 190.24 325.788 200.84 325.451 211.464L308.779 209.794C309 190.807 311.219 171.895 315.4 153.372L311.195 153.163L313.819 138.431Z" fill="white"/>
<path d="M421.607 125.429L439.234 130.052C439.212 130.098 439.201 130.149 439.201 130.201C439.201 130.252 439.212 130.303 439.234 130.35C447.044 128.13 455.124 127.006 463.243 127.01C471.235 126.96 479.217 127.589 487.103 128.888C491.181 129.63 495.054 131.228 498.468 133.577C501.882 135.927 504.758 138.974 506.907 142.517C510.486 148.183 512.276 158.74 512.276 174.187V179.943C512.155 185.621 511.149 191.245 509.293 196.613C508.01 200.557 505.707 204.091 502.616 206.856C499.525 209.622 495.758 211.52 491.696 212.359C484.064 213.837 476.295 214.497 468.522 214.327H460.32C445.785 214.108 434.989 212.12 427.93 208.363C418.148 203.671 413.256 193.323 413.256 177.319C413.236 165.032 416.02 147.736 421.607 125.429ZM463.362 144.187C462.169 144.187 460.917 144.187 459.575 144.187C456.126 153.583 453.501 163.262 451.731 173.114L435.446 169.476C436.739 162.125 438.533 154.871 440.815 147.765C438.369 148.541 435.894 149.406 433.448 150.39C431.738 159.124 430.869 168.001 430.853 176.901C430.853 184.853 433.537 190.032 438.906 192.438C443.32 195.361 453.321 196.931 468.91 197.15C474.012 197.159 479.1 196.629 484.091 195.569C485.922 195.235 487.644 194.46 489.11 193.312C490.575 192.164 491.739 190.677 492.502 188.979C493.925 185.258 494.634 181.302 494.589 177.319C494.885 170.605 494.324 163.88 492.919 157.308C491.961 154.716 490.423 152.377 488.423 150.469C486.422 148.562 484.012 147.138 481.377 146.304C478.473 155.807 476.299 165.517 474.875 175.35L458.531 171.444C459.904 162.234 461.897 153.128 464.496 144.187H463.362Z" fill="white"/>
<path d="M535.599 126.592C535.631 126.969 535.631 127.348 535.599 127.725C540.158 126.536 544.845 125.905 549.557 125.847C551.946 125.657 554.345 126.046 556.551 126.981C558.758 127.915 560.706 129.367 562.233 131.215C565.184 135.534 566.735 140.656 566.676 145.887V151.314C566.676 159.565 565.036 164.953 561.755 167.477C560.711 168.104 559.578 168.7 558.415 169.267C560.992 170.533 563.357 172.193 565.424 174.187C568.039 176.737 569.702 180.104 570.136 183.73C570.154 184.347 570.032 184.96 569.779 185.523C569.525 186.086 569.148 186.585 568.675 186.981C569.535 188.12 570.209 189.388 570.673 190.738C570.732 190.921 570.802 191.1 570.882 191.275C571.574 189.572 572.454 187.951 573.506 186.444C572.92 185.967 572.454 185.361 572.143 184.672C571.832 183.984 571.686 183.232 571.717 182.478C572.122 178.803 573.618 175.334 576.012 172.517C577.721 170.702 579.741 169.207 581.977 168.104C578.967 167.067 576.282 165.257 574.192 162.855C571.273 158.774 569.832 153.82 570.106 148.809C570.245 140.086 571.807 131.443 574.729 123.222L581.977 125.131C587.218 123.279 592.732 122.311 598.291 122.268C603.179 122.229 607.941 123.812 611.832 126.771C616.425 130.29 618.751 136.463 618.751 145.35V149.107C618.645 156.177 617.907 163.223 616.544 170.161C615.785 176.108 614.23 181.926 611.921 187.458L598.082 184.476C600.123 178.645 601.699 172.662 602.795 166.583C598.136 167.788 593.35 168.429 588.538 168.491H587.286C589.525 169.543 591.662 170.801 593.668 172.249C596.249 174.138 597.984 176.966 598.5 180.122C598.578 181.081 598.429 182.044 598.067 182.935C597.704 183.826 597.137 184.619 596.412 185.251C597.582 186.398 598.613 187.68 599.484 189.068C600.445 190.458 600.993 192.092 601.065 193.78C601.075 194.622 600.879 195.453 600.495 196.201C600.11 196.95 599.548 197.593 598.858 198.074C600.171 200.351 600.927 202.905 601.065 205.53C600.906 212.09 597.406 215.45 590.566 215.609H589.433C588.807 215.609 588.18 215.609 587.524 215.609C587.673 216.743 587.852 217.876 588.061 219.069L575.803 220.321C574.67 213.253 573.685 206.216 572.82 199.148C572.192 198.836 571.626 198.411 571.15 197.895C570.44 198.864 569.51 199.651 568.436 200.192C569.589 206.156 570.951 212.448 572.522 219.069L560.354 220.321C559.936 218.502 559.518 216.772 559.101 215.073C557.983 215.221 556.858 215.301 555.731 215.311C552.02 215.612 548.303 214.803 545.053 212.985C544.087 212.317 543.296 211.426 542.746 210.388C542.196 209.35 541.903 208.195 541.892 207.021C541.947 204.645 542.56 202.316 543.681 200.221C543.029 199.852 542.482 199.32 542.096 198.677C541.709 198.035 541.495 197.303 541.474 196.553C541.435 195.988 541.435 195.42 541.474 194.854L526.979 196.553C524.832 170.887 522.804 148.163 520.895 128.382L535.599 126.592ZM537.269 143.978C542.086 143.087 546.959 142.529 551.853 142.308C551.694 141.11 551.255 139.965 550.571 138.968C550.084 138.333 549.449 137.826 548.721 137.494C547.993 137.161 547.194 137.012 546.395 137.06C543.127 137.42 539.919 138.202 536.851 139.386C537.001 140.847 537.12 142.368 537.269 143.978V143.978ZM538.73 159.605C540.977 159.903 542.966 160.112 544.695 160.231C546.745 160.318 548.767 159.731 550.452 158.561C551.317 157.994 551.853 156.503 552.152 154.058C547.467 154.248 542.802 154.776 538.194 155.638C538.462 156.951 538.581 158.292 538.73 159.605V159.605ZM541.892 193.84C542.551 191.625 543.504 189.509 544.725 187.547C544.231 187.058 543.843 186.471 543.586 185.825C543.33 185.178 543.21 184.485 543.234 183.79C543.656 180.035 545.194 176.493 547.648 173.621C548.375 172.804 549.185 172.064 550.064 171.414H546.604C544.367 171.414 542.101 171.414 539.774 171.205C540.49 178.601 541.176 186.116 541.892 193.84ZM554.031 181.583C558.594 181.583 560.861 181.315 560.861 180.748C560.748 179.634 560.198 178.61 559.331 177.9C558.465 177.19 557.353 176.852 556.238 176.961C553.732 177.378 552.48 178.661 552.48 180.748C552.539 181.255 553.076 181.523 554.031 181.523V181.583ZM554.687 189.456C553.867 190.376 553.22 191.437 552.778 192.587C552.785 192.87 552.881 193.143 553.052 193.368C553.224 193.593 553.462 193.758 553.732 193.84C554.702 194.111 555.709 194.221 556.715 194.168C557.738 194.228 558.76 194.044 559.697 193.631C559.92 193.565 560.114 193.426 560.249 193.237C560.385 193.048 560.453 192.819 560.443 192.587C560.242 191.449 559.772 190.375 559.071 189.456H554.746H554.687ZM557.401 206.752C557.132 205.291 556.834 203.77 556.566 202.249H555.611C555.125 202.279 554.637 202.279 554.15 202.249C553.774 202.917 553.455 203.616 553.196 204.337C553.159 204.705 553.207 205.076 553.336 205.423C553.465 205.769 553.672 206.081 553.941 206.335C554.6 206.826 555.421 207.05 556.238 206.961L557.401 206.752ZM582.663 180.331C587.077 180.331 589.284 180.092 589.284 179.585C588.777 177.289 587.107 176.126 584.243 176.126C582.007 176.424 580.873 177.557 580.873 179.585C581.022 180.032 581.589 180.271 582.663 180.271V180.331ZM583.2 188.293C582.458 189.014 581.852 189.863 581.41 190.798C581.377 191.226 581.47 191.654 581.676 192.03C581.883 192.406 582.194 192.714 582.573 192.915C583.673 193.346 584.856 193.52 586.033 193.422C586.577 193.495 587.131 193.439 587.649 193.257C588.167 193.076 588.635 192.775 589.015 192.378C589.294 192.132 589.508 191.821 589.638 191.473C589.768 191.124 589.81 190.749 589.761 190.38C589.761 189.903 589.194 189.158 588.061 188.174C587.435 188.218 586.808 188.218 586.182 188.174L583.2 188.293ZM604.584 153.7C604.793 151.046 604.882 148.839 604.882 147.08C604.882 141.712 603.809 138.133 601.661 136.195C599.638 135.087 597.341 134.58 595.04 134.734C591.53 135.194 588.06 135.922 584.661 136.91C584.393 138.252 584.124 139.505 583.915 140.698C588.886 140.28 593.748 140.072 598.5 140.072L599.872 151.493C594.265 151.493 589.015 151.702 584.124 152.119C584.9 155.102 586.48 156.533 588.866 156.533C594.225 156.402 599.53 155.426 604.584 153.64V153.7ZM585.407 201.414C585.735 203.025 586.033 204.665 586.242 206.365C586.858 206.365 587.484 206.365 588.121 206.365C589.165 206.365 589.701 205.649 589.701 204.158C589.577 203.042 589.096 201.996 588.329 201.176C587.713 201.176 587.087 201.176 586.45 201.176L585.407 201.414Z" fill="white"/>
<path d="M239.167 269.258L240.748 286.883C232.636 286.883 224.493 286.883 216.321 287.39C218.628 305.283 221.073 323.732 223.658 342.738L205.763 344.856C204.093 333.881 202.522 322.947 201.051 312.052C189.121 318.434 173.741 326.158 154.911 335.223L147.366 318.344C164.744 309.915 181.794 301.455 198.516 292.966C198.516 291.445 198.217 289.984 198.009 288.583C181.983 289.616 165.937 291.326 149.871 293.712L148.29 276.087C163.62 273.642 179.458 271.902 195.802 270.869C195.185 265.401 194.589 260.014 194.012 254.705L211.907 252.499C212.543 258.264 213.239 264.03 213.995 269.795C222.266 269.437 230.657 269.258 239.167 269.258Z" fill="white"/>
<path d="M262.133 278.891L271.08 281.873C276.696 279.267 282.786 277.836 288.975 277.668C293.142 277.657 297.306 277.906 301.442 278.413C306.483 279.349 311.104 281.842 314.655 285.541C319.327 290.71 321.673 298.662 321.693 309.398V314.229C321.815 318.217 321.103 322.186 319.603 325.883C318.104 329.58 315.849 332.924 312.984 335.7C306.792 341.373 298.622 344.392 290.228 344.11H286.321C278.107 344.435 270.035 341.906 263.475 336.953C260.351 334.259 257.885 330.886 256.267 327.091C254.649 323.297 253.921 319.183 254.139 315.064C254.474 302.607 257.187 290.329 262.133 278.891V278.891ZM346.955 253.005L349.043 271.883H343.078C345.066 294.09 347.055 318.136 349.043 344.021L328.911 345.989C326.605 318.732 324.616 294.129 322.946 272.181C300.935 272.737 278.884 274.03 256.794 276.058L254.587 257.21C283.458 254.407 314.247 253.005 346.955 253.005ZM287.305 295.68C283.45 295.779 279.703 296.979 276.508 299.139C275.099 304.474 274.357 309.964 274.301 315.482C274.189 316.97 274.424 318.464 274.989 319.846C275.553 321.227 276.43 322.459 277.552 323.444C280.212 325.168 283.33 326.052 286.5 325.979H289.303C290.992 326.059 292.676 325.751 294.227 325.079C295.778 324.407 297.155 323.389 298.251 322.102C300.486 319.432 301.673 316.04 301.591 312.559V310.143C301.591 304.388 300.696 300.72 298.877 299.11C297.22 297.373 294.978 296.31 292.584 296.127C290.87 295.832 289.134 295.683 287.394 295.68H287.305Z" fill="white"/>
<path d="M372.545 250.799L386.801 253.781C386.115 255.033 385.429 256.346 384.803 257.658H387.786C391.858 257.562 395.892 258.463 399.537 260.282C401.319 261.343 402.777 262.87 403.754 264.699C404.732 266.528 405.192 268.589 405.084 270.66C404.835 274.078 404.061 277.438 402.788 280.62L403.742 281.246C407.649 284.437 409.886 289.775 410.453 297.171C411.407 294.189 412.451 291.207 413.584 288.225L427.006 291.207C426.32 293.086 425.634 294.964 425.007 296.754H427.99C428.209 294.766 428.388 292.678 428.527 290.491L444.99 292.042C444.841 293.861 444.692 295.62 444.573 297.29C448.181 297.559 451.79 297.827 455.369 298.036L454.206 312.291L443.618 311.754C443.469 314.289 443.38 316.764 443.29 319.209L455.787 318.165L457.576 333.076C452.596 333.643 447.645 334.09 442.664 334.448C442.664 338.653 442.485 342.828 442.366 347.033L426.111 345.363C426.111 341.993 426.111 338.712 426.111 335.492C421.309 335.79 416.507 335.999 411.765 336.118L409.976 321.028C415.493 320.879 421.011 320.641 426.528 320.283C426.528 317.301 426.827 314.169 426.976 311.187C424.948 311.187 422.949 311.187 421.011 311.187C420.593 313.275 420.146 315.482 419.639 317.808L410.005 315.69C409.797 319.418 409.409 323.325 408.842 327.44C408.332 333.657 407.172 339.804 405.382 345.78L391.544 342.947C392.528 338.981 393.363 335.015 394.079 331.019L377.705 334.388C377.705 337.371 378.003 340.353 378.122 343.335L364.284 344.617C362.892 320.76 361.639 299.646 360.526 281.276L369.831 280.441L361.778 278.652C364.094 268.924 367.716 259.555 372.545 250.799V250.799ZM375.796 300.392C377.287 300.392 378.778 300.392 380.329 300.392C380.329 297.857 380.329 295.442 380.538 293.145C378.813 293.931 377.131 294.807 375.498 295.77C375.796 297.41 375.796 298.931 375.796 300.392ZM376.959 321.267L379.942 320.641C379.942 318.046 379.942 315.511 379.942 312.977H376.363C376.78 315.81 376.9 318.553 377.049 321.356L376.959 321.267ZM376.75 279.129C380.523 277.483 384.568 276.553 388.68 276.386C389.207 275.045 389.558 273.641 389.724 272.211C389.724 271.644 388.144 271.376 384.922 271.376C382.783 271.66 380.675 272.15 378.629 272.837C378.003 275.014 377.407 277.131 376.84 279.219L376.75 279.129ZM391.663 318.344C393.065 318.136 394.407 317.867 395.749 317.599C395.898 316.287 395.988 314.945 396.047 313.633L391.752 313.394C391.872 315.183 391.842 316.824 391.842 318.434L391.663 318.344ZM392.17 292.012C392.17 294.994 392.17 297.797 391.961 300.72L396.584 300.929C396.673 299.344 396.409 297.76 395.811 296.29C395.213 294.82 394.295 293.501 393.124 292.43L392.17 292.012ZM432.434 251.962C438.188 251.697 443.825 253.65 448.181 257.419C450.373 259.35 452.111 261.742 453.271 264.422C454.431 267.103 454.985 270.007 454.892 272.926C454.683 279.199 452.986 285.331 449.941 290.819L434.432 287.36C436.444 283.189 438.052 278.835 439.234 274.358C439.458 272.757 439.091 271.129 438.202 269.779C437.313 268.428 435.962 267.448 434.402 267.022C431.586 274.189 429.382 281.581 427.811 289.119L412.898 285.779C413.84 280.44 415.207 275.185 416.984 270.063L409.856 273.046L407.023 258.91C415.026 254.983 423.718 252.653 432.613 252.051L432.434 251.962Z" fill="white"/>
<path d="M524.355 256.674C525.67 261.982 527.676 267.095 530.32 271.883L517.226 278.056C515.322 274.524 513.707 270.844 512.395 267.051L509.263 277.638C503.364 274.639 497.217 272.155 490.891 270.213L482.719 277.757C491.468 277.877 500.176 278.254 508.846 278.891L507.682 291.893C504.7 291.684 501.717 291.505 498.974 291.386C498.765 293.205 498.586 294.935 498.466 296.605C501.24 296.605 504.044 296.605 506.847 296.605L508.011 310.024C504.372 310.024 500.763 310.024 497.184 310.233C497.184 312.827 496.886 315.452 496.677 318.106C499.063 316.287 501.419 314.587 503.805 313.066L509.263 322.012C506.4 324.259 503.358 326.675 500.137 329.259C502.224 329.259 504.312 329.259 506.43 329.259L507.682 342.172C495.477 342.176 483.287 343.053 471.206 344.796L469.924 331.794C472.31 331.376 474.785 331.048 477.38 330.84C474.666 327.857 471.564 324.875 468.164 321.714L475.799 314.08L481.257 319.507C481.257 316.525 481.585 313.901 481.794 311.247C478.275 311.456 474.905 311.724 471.624 312.082L470.341 298.662L483.047 297.618C483.256 295.501 483.464 293.384 483.673 291.207H474.964L475.71 283.125L466.166 274.179C475.471 265.232 484.419 257.151 493.008 249.934L502.97 259.447C502.725 259.566 502.511 259.74 502.344 259.954C505.415 261.076 508.405 262.412 511.291 263.95C511.142 263.383 510.993 262.876 510.844 262.369L524.355 256.674ZM557.49 254.258L567.034 263.503C562.859 267.618 558.504 271.942 554.031 276.475L546.694 269.884C546.892 271.753 547.071 273.602 547.23 275.431C548.424 275.64 549.408 275.849 550.213 276.058C553.939 276.835 557.28 278.88 559.668 281.843C562.65 284.825 564.141 290.461 564.261 299.139C564.261 311.068 562.71 320.014 559.548 325.352C559.071 325.989 558.624 326.615 558.206 327.231C561.238 330.286 563.974 333.621 566.378 337.192L555.88 347.361C552.693 343.379 549.266 339.595 545.62 336.029C542.646 336.834 539.575 337.225 536.493 337.192C534.038 337.202 531.585 337.022 529.156 336.655C525.786 340.442 522.416 344.289 518.986 348.196L508.816 338.981C511.172 336.178 513.498 333.524 515.735 331.019L515.318 330.601C510.963 325.919 508.816 319.15 508.816 310.352C508.85 299.277 511.464 288.362 516.451 278.473L520.537 279.517C524.022 277.682 527.732 276.308 531.572 275.431C530.797 267.042 530.091 259.387 529.455 252.469L544.874 250.799C545.352 255.481 545.859 260.312 546.336 265.262C550.124 261.206 553.882 257.538 557.49 254.258V254.258ZM533.63 288.642C531.158 289.229 528.735 290.007 526.383 290.968C531.632 291.296 536.851 291.893 542.011 292.728L540.639 304.656C534.793 303.722 528.928 303.086 523.042 302.748C522.893 304.03 522.804 305.283 522.714 306.535C528.345 306.807 533.954 307.435 539.506 308.414L538.253 320.164C533.481 319.388 528.799 318.822 524.176 318.494C524.469 319.117 524.829 319.707 525.249 320.253C526.604 321.436 528.187 322.327 529.901 322.87C531.615 323.414 533.422 323.599 535.211 323.414C540.997 323.414 544.994 321.655 547.141 318.165C549.627 313.019 550.746 307.319 550.392 301.615C550.392 294.487 549.139 290.67 546.634 290.193C544.593 289.375 542.42 288.941 540.222 288.911C537.537 288.732 535.33 288.642 533.6 288.642H533.63Z" fill="white"/>
<path d="M192.193 392.749L197.114 393.793C200.913 392.444 204.812 391.397 208.776 390.661C209.253 387.679 209.79 384.488 210.356 381.327L225.448 383.117C225.03 385.761 224.642 388.415 224.285 391.079C227.025 391.608 229.628 392.689 231.936 394.258C234.244 395.827 236.207 397.851 237.706 400.204C240.867 404.111 242.508 412.133 242.627 424.211C242.627 435.274 241.076 443.237 237.915 448.068C235.683 451.378 232.678 454.094 229.159 455.98C225.641 457.867 221.715 458.867 217.723 458.893C217.514 464.47 217.365 470.106 217.305 475.772L202.244 474.162C202.244 468.496 202.482 462.889 202.691 457.372C198.505 456.444 194.656 454.381 191.566 451.408C189.472 448.845 187.837 445.94 186.735 442.819L185.81 454.569C182.828 454.271 179.845 454.032 176.863 453.823C177.191 459.281 177.519 464.947 177.787 470.822L161.115 472.581C160.697 467.005 160.34 461.577 160.071 456.358C158.61 458.297 157.089 460.175 155.568 461.994L144.353 451.945C149.394 445.503 154.196 439.569 158.819 434.052C158.819 431.964 158.64 429.907 158.49 427.879C155.09 428.147 151.75 428.505 148.529 428.922L146.769 412.461C159.203 411.147 171.697 410.48 184.2 410.463L185.035 419.171C185.956 410.031 188.374 401.104 192.193 392.749V392.749ZM151.929 388.127C162.755 388.484 173.254 388.991 183.394 389.707L181.933 405.751C170.391 405.095 159.534 404.558 149.334 404.051L151.929 388.127ZM175.968 437.929C179.249 438.137 182.47 438.376 185.601 438.644C184.879 435.132 184.529 431.554 184.558 427.968V426.716C181.396 426.716 178.324 426.716 175.312 426.716C175.64 430.443 175.968 434.141 175.968 437.929ZM203.318 441.597C203.586 437.064 203.914 432.65 204.272 428.177C202.602 428.028 200.902 427.938 199.232 427.849C199.232 434.022 200.395 438.227 202.214 440.553C202.526 440.988 202.935 441.345 203.407 441.597H203.318ZM205.733 413.803C206.002 410.821 206.33 408.107 206.688 405.304C205.077 405.751 203.705 406.198 202.274 406.676C201.588 408.972 200.991 411.268 200.484 413.505C202.333 413.564 204.063 413.684 205.793 413.803H205.733ZM221.988 406.049C221.63 409.21 221.302 412.401 220.944 415.682L225.657 416.546L224.404 430.891L219.572 429.966C219.214 434.708 218.886 439.509 218.528 444.31C221.039 443.798 223.276 442.388 224.821 440.344C227.013 436.148 228.043 431.443 227.804 426.716C227.804 414.489 226.551 407.898 224.016 407.004C223.416 406.599 222.764 406.278 222.077 406.049H221.988Z" fill="white"/>
<path d="M295.775 406.467L302.486 413.087C304.246 409.24 306.154 405.393 308.272 401.546L325.034 405.751C315.092 422.57 310.121 437.103 310.121 449.35V449.678C318.075 426.656 326.147 405.721 334.339 386.874L349.938 390.125C344.41 403.047 339.171 416.079 334.22 429.221L342.392 420.722C346.164 423.749 349.306 427.488 351.638 431.726L340.304 442.968C337.958 439.657 335.44 436.472 332.758 433.425C330.174 440.205 327.688 447.054 325.302 453.972C330.095 453.161 334.799 451.892 339.35 450.185L342.809 466.02C335.357 468.485 327.597 469.9 319.755 470.225C319.069 472.521 318.353 474.788 317.667 477.025L302.128 473.684C302.695 471.716 303.321 469.838 304.037 468.018C302.236 467.171 300.51 466.174 298.877 465.036C297.002 463.402 295.521 461.364 294.545 459.077C293.568 456.789 293.123 454.31 293.24 451.825C293.291 442.156 294.985 432.566 298.251 423.465C296.282 425.612 294.344 427.789 292.286 429.966L286.321 424.807L286.828 429.101C284.591 429.101 282.384 429.101 280.236 429.34L280.654 436.259C282.937 436.886 285.295 437.198 287.663 437.183L285.993 453.972C284.555 453.976 283.119 453.867 281.698 453.644C281.966 459.609 282.294 465.573 282.622 471.537L266.606 473.237C266.308 467.839 266.04 462.621 265.741 457.611C264.847 459.012 263.862 460.384 262.759 461.786L251.962 452.153C256.158 445.652 260.313 439.608 264.429 434.022C264.429 433.097 264.429 432.203 264.22 431.278C261.655 431.785 259.09 432.322 256.585 432.978L255.094 417.501C257.897 416.725 260.701 416.069 263.505 415.503C263.505 412.938 263.206 410.373 263.087 407.868C261.387 408.226 259.687 408.495 257.927 408.703L254.169 393.495C263.24 392.014 272.206 389.952 281.012 387.321L285.605 401.874C283.517 402.739 281.31 403.544 279.014 404.29C279.014 407.451 279.312 410.612 279.55 413.833H285.187L285.605 417.501C289.124 413.445 292.495 409.837 295.775 406.467ZM315.818 381.298C321.144 384.286 325.843 388.276 329.657 393.047L319.277 403.127C315.197 399.096 310.852 395.34 306.274 391.884L315.818 381.298Z" fill="white"/>
<path d="M396.674 422.093L398.463 437.601C394.675 437.601 391.037 437.601 387.547 437.809C387.398 441.03 387.308 444.281 387.249 447.561C390.301 448.5 393.48 448.963 396.674 448.933L395.093 464.857C392.311 464.888 389.537 464.578 386.831 463.933C386.831 467.78 386.831 471.716 386.831 475.862L372.157 474.191C372.157 471.209 372.157 468.018 372.157 464.947L369.861 468.734L358.229 460.354C362.475 453.868 367.275 447.761 372.575 442.104C372.575 441.179 372.575 440.255 372.575 439.271C369.205 439.837 365.924 440.434 362.703 441.06L360.943 425.433C365.119 424.747 369.264 424.091 373.32 423.555C373.529 420.334 373.738 417.143 373.947 414.012L360.108 410.851C362.338 400.225 365.853 389.911 370.577 380.135L385.489 383.594C384.932 384.787 384.336 386.009 383.7 387.262C390.563 386.5 397.463 386.121 404.368 386.129L405.502 398.594C401.595 398.594 397.747 398.594 393.989 398.892C395.51 400.801 396.972 402.829 398.493 404.857L388.74 413.803C385.62 409.563 382.028 405.691 378.033 402.262C376.989 405.751 376.035 409.36 375.05 413.057L388.591 414.638C388.442 417.232 388.293 419.797 388.173 422.392C391.156 422.153 393.959 422.093 396.674 422.093ZM409.349 409.926L417.969 411.924L423.516 411.089C432.404 411.089 438.17 411.686 440.815 412.879C445.064 413.827 448.783 416.381 451.194 420.006C454.564 423.465 456.324 430.622 456.324 441.358C456.324 452.094 454.773 460.563 451.611 465.454C446.571 472.879 438.906 476.577 428.557 476.577C418.207 476.577 410.661 474.191 405.681 469.45C400.7 464.708 398.881 457.521 398.881 447.949C399.001 434.568 402.642 421.454 409.439 409.926H409.349ZM428.228 386.069C437.007 385.151 445.827 384.693 454.653 384.697L455.817 397.282C451.82 397.282 447.913 397.282 444.066 397.58C445.315 398.677 446.472 399.873 447.525 401.159L437.355 410.374C433.32 406.225 428.781 402.599 423.844 399.578C423.128 402.56 422.502 405.304 421.935 408.167L407.679 405.185C409.226 396.516 411.726 388.045 415.135 379.926L429.481 382.908C429.009 383.918 428.619 384.965 428.318 386.039L428.228 386.069ZM426.976 461.01C431.927 461.01 435.327 459.698 437.146 457.044C439.329 453.18 440.364 448.772 440.129 444.34C440.129 434.658 438.836 429.449 436.251 428.714C434.249 427.632 432.024 427.03 429.749 426.954C427.095 426.954 424.828 426.746 422.92 426.746C421.011 426.746 419.937 427.342 418.744 427.67C418.326 428.863 417.939 430.056 417.581 431.249C421.263 430.689 424.982 430.41 428.706 430.414L430.048 441.835C425.133 441.82 420.225 442.209 415.374 442.998C415.374 444.102 415.374 445.175 415.374 446.249C420.403 445.538 425.476 445.18 430.555 445.175L431.837 456.418C427.069 456.395 422.306 456.704 417.581 457.342C417.594 457.431 417.628 457.514 417.68 457.587C417.732 457.659 417.8 457.719 417.879 457.76C419.077 458.942 420.523 459.844 422.111 460.401C423.699 460.957 425.391 461.156 427.065 460.981L426.976 461.01Z" fill="white"/>
<path d="M523.221 381.298C529.487 380.95 535.746 382.106 541.474 384.667C543.425 385.793 545.043 387.416 546.164 389.369C547.285 391.323 547.869 393.538 547.857 395.791C547.799 399.001 546.893 402.139 545.232 404.886C540.784 411.332 535.611 417.246 529.813 422.511C530.23 423.286 530.648 424.002 531.065 424.718C541.623 424.36 552.36 424.181 563.276 424.181L565.066 441.388C555.562 441.388 546.018 441.557 536.434 441.895C536.794 444.783 536.964 447.692 536.941 450.603C536.941 459.35 535.201 465.682 531.721 469.599C529.623 471.89 527.056 473.701 524.194 474.911C521.333 476.12 518.244 476.699 515.139 476.607C509.705 476.757 504.284 476.011 499.093 474.4L497.512 456.805C502.307 458.126 507.244 458.857 512.216 458.982C513.149 459.031 514.081 458.859 514.936 458.48C515.791 458.102 516.545 457.529 517.137 456.805C517.956 455.839 518.574 454.719 518.953 453.51C519.332 452.301 519.465 451.029 519.344 449.768C519.357 447.421 519.178 445.077 518.807 442.76C502.662 443.813 486.477 445.275 470.252 447.143L468.492 429.966C482.232 428.217 496.379 426.815 510.933 425.761C508.305 422.413 505.358 419.327 502.135 416.546L515.974 406.467L518.718 408.972C521.115 406.724 523.385 404.345 525.518 401.845C526.408 401.154 527.004 400.153 527.188 399.041C526.392 398.236 525.421 397.626 524.35 397.258C523.279 396.891 522.137 396.777 521.014 396.924C506.768 398.248 492.86 402.042 479.915 408.137L474.457 392.749C489.727 385.55 506.343 381.648 523.221 381.298V381.298Z" fill="white"/>
</g>
<defs>
<clipPath id="clip0_41_2">
<rect width="711" height="715" fill="white"/>
</clipPath>
</defs>
</svg>
