<svg width="83" height="46" viewBox="0 0 83 46" fill="none" xmlns="http://www.w3.org/2000/svg">
<g clip-path="url(#clip0_38_51)">
<path d="M63.2 5.23H18.84C8.43496 5.23 0 13.665 0 24.07V26.94C0 37.345 8.43496 45.78 18.84 45.78H63.2C73.605 45.78 82.04 37.345 82.04 26.94V24.07C82.04 13.665 73.605 5.23 63.2 5.23Z" fill="#422B00"/>
<path d="M63.44 0H19.08C8.67495 0 0.23999 8.43496 0.23999 18.84V21.71C0.23999 32.115 8.67495 40.55 19.08 40.55H63.44C73.845 40.55 82.28 32.115 82.28 21.71V18.84C82.28 8.43496 73.845 0 63.44 0Z" fill="#F5B91D"/>
<g opacity="0.47">
<path opacity="0.47" d="M15.85 14.62C17.3552 14.8497 18.8221 15.2837 20.21 15.91L19.11 19.65C17.6993 19.052 16.2408 18.5736 14.75 18.22L15.85 14.62ZM28.14 7.16C28.4229 8.43525 28.835 9.67835 29.37 10.87C29.96 10.87 30.55 10.8 31.16 10.78C31.96 9.39 32.67 8.15 33.27 7.05L37.47 8.48C36.97 9.21 36.52 9.94 36.1 10.67H37.69L38.13 14.93C35.95 14.93 33.7733 14.9733 31.6 15.06C31.4 15.5933 31.19 16.1233 30.97 16.65C33.45 16.55 35.97 16.49 38.57 16.49L39 20.85C35.78 20.85 32.54 20.96 29.28 21.18C28.5333 23.2667 27.83 25.37 27.17 27.49C28.3536 27.3114 29.5207 27.0372 30.66 26.67L31.45 30.43C29.1779 31.1111 26.8218 31.4713 24.45 31.5H23.23C21.2636 31.5585 19.3131 31.1327 17.55 30.26C16.7584 29.8253 16.1017 29.181 15.6519 28.3979C15.2021 27.6147 14.9766 26.7228 15 25.82C15.0479 23.8057 15.3847 21.8087 16 19.89L20.25 20.89C19.6452 22.2111 19.3055 23.6381 19.25 25.09C19.231 25.5116 19.3294 25.9302 19.5342 26.2992C19.739 26.6682 20.0422 26.9731 20.41 27.18C21.5263 27.6811 22.7495 27.8976 23.97 27.81C24.61 27.81 25.29 27.81 25.97 27.7L22.41 26.96C22.99 25.09 23.58 23.32 24.16 21.63L21.64 21.88L21.2 17.49C22.72 17.31 24.26 17.15 25.84 17.02C26.04 16.48 26.25 15.94 26.47 15.41C25.11 15.51 23.76 15.63 22.41 15.76L22 11.41L24.53 11.19C24.29 10.46 24.06 9.69 23.84 8.89L28.14 7.16ZM16.7 9.36C18.2273 9.58807 19.7151 10.029 21.12 10.67L20 14.51C18.5901 13.8851 17.1188 13.4092 15.61 13.09L16.7 9.36ZM33.52 21.73C35.3462 22.8169 36.9482 24.2424 38.24 25.93L35.16 28.93C33.7055 27.5049 32.166 26.1691 30.55 24.93L33.52 21.73Z" fill="#231815"/>
<path opacity="0.47" d="M44.68 9.11001L49.21 10.32C48.3578 11.397 47.7166 12.6251 47.32 13.94C47.32 14.54 47.73 14.99 48.55 15.28C49.7494 15.5362 50.9737 15.6569 52.2 15.64C52.51 12.86 52.91 10.14 53.38 7.49001L57.85 7.90001C57.43 10.46 57.09 13.07 56.85 15.72C59.34 15.72 60.85 15.52 61.43 15.17C61.6289 15.0905 61.7987 14.9521 61.9167 14.7734C62.0346 14.5946 62.0951 14.3841 62.09 14.17C62.09 13.53 61.39 12.17 59.98 10.08L64.51 8.87001C65.8152 10.9135 66.5347 13.2759 66.59 15.7C66.5932 16.298 66.4443 16.8871 66.1575 17.4118C65.8706 17.9366 65.4551 18.3798 64.95 18.7C63.65 19.7133 61.3667 20.22 58.1 20.22H56.37C56.21 22.36 56.0834 24.51 55.99 26.67C57.8917 26.666 59.7904 26.519 61.67 26.23C62.51 26.1 62.93 25.85 62.93 25.46C62.8577 24.1668 62.4399 22.9167 61.72 21.84L66.09 20.84C66.8944 22.7129 67.3029 24.7318 67.29 26.77C67.3251 27.3314 67.1927 27.8905 66.9097 28.3765C66.6266 28.8625 66.2056 29.2535 65.7 29.5C64.3892 30.0989 62.9919 30.487 61.56 30.65C59.4317 30.9348 57.2873 31.0818 55.14 31.09H53C50.4275 31.1969 47.8521 30.9649 45.34 30.4C44.5812 30.2067 43.9152 29.7515 43.4596 29.1147C43.004 28.4779 42.788 27.7006 42.85 26.92C42.8826 24.8694 43.1681 22.8307 43.7 20.85L48 21.85C47.567 22.9093 47.3005 24.0292 47.21 25.17C47.21 25.83 47.7 26.23 48.69 26.38C49.6087 26.5065 50.5332 26.5866 51.46 26.62C51.52 24.3933 51.63 22.21 51.79 20.07C51.15 20.01 50.51 19.97 49.87 19.93C48.2359 19.8411 46.6338 19.4405 45.15 18.75C44.4564 18.4493 43.8676 17.9496 43.4582 17.3141C43.0488 16.6786 42.8371 15.9359 42.85 15.18C42.9439 13.0357 43.573 10.9489 44.68 9.11001V9.11001Z" fill="#231815"/>
</g>
<path d="M16.7 12.8C18.2073 13.0203 19.6755 13.4546 21.06 14.09L20 17.82C18.5762 17.2229 17.1042 16.7479 15.6 16.4L16.7 12.8ZM29 5.34C29.2797 6.59999 29.692 7.82682 30.23 9H32C32.8 7.61 33.51 6.37 34.11 5.27L38.31 6.69C37.82 7.43 37.31 8.16 36.94 8.89H38.53L39 13.1C36.82 13.1 34.6433 13.1467 32.47 13.24C32.27 13.7733 32.06 14.3033 31.84 14.83C34.32 14.72 36.84 14.67 39.44 14.67L39.83 19C36.61 19 33.3733 19.11 30.12 19.33C29.37 21.41 28.66 23.52 28 25.64C29.1826 25.4566 30.3494 25.1825 31.49 24.82L32.28 28.57C30.009 29.2559 27.6522 29.6162 25.28 29.64H24.08C22.115 29.6955 20.1659 29.2734 18.4 28.41C17.6074 27.9816 16.9476 27.3438 16.4927 26.5662C16.0377 25.7885 15.805 24.9008 15.82 24C15.8671 21.9856 16.2039 19.9885 16.82 18.07L21.07 19.07C20.4625 20.3902 20.1226 21.8177 20.07 23.27C20.0505 23.6903 20.1488 24.1077 20.3538 24.4752C20.5587 24.8427 20.8622 25.1457 21.23 25.35C22.3463 25.8511 23.5695 26.0676 24.79 25.98C25.4582 25.9803 26.1258 25.9435 26.79 25.87L23.23 25.13C23.81 23.27 24.4 21.49 24.98 19.81C24.16 19.88 23.32 19.97 22.46 20.06L22.02 15.67C23.54 15.48 25.08 15.33 26.66 15.2C26.86 14.6467 27.07 14.1067 27.29 13.58C25.93 13.69 24.58 13.81 23.23 13.94L22.81 9.63L25.34 9.41C25.1 8.68 24.87 7.91 24.65 7.11L29 5.34ZM17.55 7.53C19.088 7.75839 20.5862 8.20277 22 8.85L20.87 12.69C19.4603 12.0621 17.989 11.5828 16.48 11.26L17.55 7.53ZM34.37 19.91C36.2007 20.9908 37.8037 22.4173 39.09 24.11L36.01 27.11C34.5579 25.6822 33.0183 24.3462 31.4 23.11L34.37 19.91Z" fill="white"/>
<path d="M45.5401 7.29L50.0601 8.49C49.2095 9.57176 48.5685 10.8029 48.1701 12.12C48.1701 12.72 48.5801 13.17 49.4001 13.46C50.6002 13.7113 51.824 13.832 53.0501 13.82C53.3601 11.04 53.7601 8.32 54.2301 5.67L58.7101 6.08C58.2801 8.64 57.9401 11.25 57.6601 13.9C60.1501 13.9 61.6601 13.7 62.2401 13.35C62.4381 13.2693 62.6071 13.1307 62.7249 12.9522C62.8427 12.7737 62.9037 12.5638 62.9001 12.35C62.9001 11.6833 62.1967 10.32 60.7901 8.26L65.3201 7.06C66.627 9.10635 67.3465 11.4725 67.4001 13.9C67.4051 14.4984 67.2571 15.0881 66.97 15.6132C66.683 16.1382 66.2665 16.5812 65.7601 16.9C64.4267 17.8667 62.1567 18.3533 58.9501 18.36H57.2201C57.0601 20.5 56.9334 22.65 56.8401 24.81C58.7415 24.801 60.6399 24.654 62.5201 24.37C63.3601 24.24 63.7801 23.98 63.7801 23.6C63.7106 22.3125 63.2924 21.0681 62.5701 20L66.9401 19C67.7548 20.8942 68.1635 22.9381 68.1401 25C68.1738 25.5585 68.0406 26.1144 67.7574 26.597C67.4743 27.0795 67.054 27.467 66.5501 27.71C65.2426 28.3181 63.8438 28.7066 62.4101 28.86C60.2823 29.1498 58.1375 29.2967 55.9901 29.3H53.8501C51.2781 29.4029 48.7036 29.1743 46.1901 28.62C45.4295 28.4264 44.762 27.9697 44.3062 27.3308C43.8504 26.6919 43.6356 25.9122 43.7001 25.13C43.7276 23.0593 44.0131 21.0001 44.5501 19L48.8601 20C48.4175 21.0568 48.1474 22.1777 48.0601 23.32C48.0601 23.98 48.5501 24.38 49.5401 24.52C50.4585 24.6505 51.3831 24.734 52.3101 24.77C52.3701 22.5433 52.4801 20.3567 52.6401 18.21C52.0001 18.16 51.3601 18.11 50.7201 18.08C49.0872 17.9974 47.4852 17.6036 46.0001 16.92C45.3096 16.615 44.7238 16.1142 44.315 15.4797C43.9062 14.8452 43.6924 14.1048 43.7001 13.35C43.7948 11.2075 44.4276 9.12345 45.5401 7.29V7.29Z" fill="white"/>
</g>
<defs>
<clipPath id="clip0_38_51">
<rect width="82.28" height="45.78" fill="white"/>
</clipPath>
</defs>
</svg>
