<svg width="558" height="700" viewBox="0 0 558 700" fill="none" xmlns="http://www.w3.org/2000/svg">
<g clip-path="url(#clip0_38_61)">
<path d="M455.618 507.968L558 490.054V106.645L472.939 95.7001L558 86.6727V37.9339C558 27.8732 554 18.2246 546.88 11.1106C539.76 3.9966 530.103 0 520.034 0L37.9662 0C27.8969 0 18.2401 3.9966 11.12 11.1106C4 18.2246 0 27.8732 0 37.9339L0 335.371L72.3277 350.807L0 352.491V662.066C0 672.127 4 681.775 11.12 688.889C18.2401 696.003 27.8969 700 37.9662 700H53.8362L90.8895 632.014L72.4447 700H520.034C530.103 700 539.76 696.003 546.88 688.889C554 681.775 558 672.127 558 662.066V514.143L455.618 507.968Z" fill="#51331F"/>
<path d="M458.263 496.158L558 478.664V104.166L475.163 93.5485L558.023 84.7316V37.0686C558.033 32.206 557.083 27.3892 555.227 22.8938C553.372 18.3983 550.648 14.3124 547.211 10.8697C543.774 7.42691 539.691 4.69486 535.197 2.82976C530.702 0.964651 525.884 0.0030705 521.017 5.50976e-06H51.4955C46.6198 -0.00923077 41.7901 0.943102 37.2834 2.80241C32.7768 4.66173 28.6817 7.39145 25.2329 10.8351C21.7841 14.2788 19.0495 18.3687 17.1857 22.8704C15.322 27.372 14.3658 32.197 14.372 37.0686V327.56L84.8505 342.668L14.372 344.282V646.677C14.3658 651.549 15.322 656.374 17.1857 660.876C19.0495 665.377 21.7841 669.467 25.2329 672.911C28.6817 676.355 32.7768 679.084 37.2834 680.944C41.7901 682.803 46.6198 683.755 51.4955 683.746H66.8505L102.851 617.42L84.8505 683.863H521.017C525.882 683.857 530.698 682.893 535.19 681.026C539.681 679.16 543.761 676.427 547.196 672.985C550.63 669.543 553.352 665.458 555.206 660.964C557.06 656.47 558.009 651.655 558 646.794V502.192L458.263 496.158Z" fill="#83593D"/>
<path opacity="0.32" d="M555.823 77.4581C497.509 82.563 438.941 84.1718 380.434 82.2759C282.897 79.0251 234.96 67.4017 136.393 69.0388C95.6 69.7166 54.8707 72.5269 14.3719 77.4581V51.0073C39.6047 49.2299 80.4266 46.8678 130.869 46.6339C237.113 46.096 285.917 55.3573 382.33 57.0178C440.226 57.9665 498.132 55.9604 555.823 51.0073V77.4581Z" fill="#291100"/>
<path opacity="0.19" d="M555.823 285.533C497.509 290.638 438.941 292.247 380.434 290.351C282.897 287.1 234.96 275.477 136.393 277.114C95.6 277.792 54.8707 280.602 14.3719 285.533V259.083C39.6047 257.305 80.4266 254.943 130.869 254.709C237.113 254.171 285.917 263.433 382.33 265.093C440.226 266.042 498.132 264.036 555.823 259.083V285.533Z" fill="#050000"/>
<path opacity="0.19" d="M556.923 410.608C498.608 415.7 440.041 417.309 381.534 415.426C284.021 412.175 236.06 400.528 137.516 402.188C96.7235 402.865 55.9941 405.676 15.4955 410.608V384.157C40.7048 382.356 81.5501 380.017 131.992 379.76C238.237 379.246 287.04 388.507 383.454 390.167C441.35 391.116 499.256 389.11 556.947 384.157L556.923 410.608Z" fill="white"/>
<path opacity="0.06" d="M556.923 614.614C498.609 619.718 440.041 621.327 381.534 619.431C284.021 616.181 236.06 604.557 137.516 606.194C96.7235 606.871 55.9941 609.681 15.4955 614.614V588.163C40.7048 586.385 81.5501 584.023 131.992 583.789C238.237 583.251 287.04 592.513 383.454 594.173C441.35 595.122 499.256 593.116 556.947 588.163L556.923 614.614Z" fill="white"/>
<path opacity="0.19" d="M555.823 181.507C497.506 186.556 438.938 188.118 380.434 186.185C282.897 183.074 234.96 171.428 136.393 173.065C95.6 173.743 54.8707 176.553 14.3719 181.484V155.057C39.6047 153.256 80.4266 150.917 130.869 150.66C237.113 150.122 285.917 159.407 382.33 161.067C440.226 162.016 498.132 160.01 555.823 155.057V181.507Z" fill="#4F3324"/>
<path opacity="0.19" d="M556.923 548.896C498.609 554 440.041 555.609 381.534 553.714C284.021 550.463 236.06 538.839 137.516 540.476C96.7235 541.153 55.9941 543.964 15.4955 548.896V522.445C40.7048 520.644 81.5501 518.305 131.992 518.048C238.237 517.534 287.04 526.795 383.454 528.455C441.35 529.404 499.256 527.398 556.947 522.445L556.923 548.896Z" fill="#050000"/>
<path opacity="0.19" d="M344.083 479.763C308.716 484.846 272.935 486.452 237.253 484.558C177.846 481.307 148.658 469.684 88.6189 471.344C63.6513 472.025 38.788 474.842 14.3016 479.763V453.289C37.8812 450.608 61.5873 449.187 85.3185 449.033C150.039 448.495 179.766 457.756 238.494 459.417C273.8 460.344 309.122 458.294 344.083 453.289V479.763Z" fill="#4F3324"/>
<path opacity="0.19" d="M555.823 343.253C517.035 348.361 477.865 349.974 438.788 348.071C373.787 344.82 341.836 333.196 276.133 334.857C248.842 335.54 221.647 338.347 194.793 343.253V316.802C211.599 315.025 238.822 312.662 272.434 312.429C343.264 311.891 375.8 321.152 440.052 322.812C478.701 323.783 517.367 321.774 555.706 316.802L555.823 343.253Z" fill="#2C1400"/>
<path d="M457.092 189.974H110.949C96.7809 189.974 85.2952 201.45 85.2952 215.606V420.384C85.2952 434.54 96.7809 446.016 110.949 446.016H457.092C471.261 446.016 482.746 434.54 482.746 420.384V215.606C482.746 201.45 471.261 189.974 457.092 189.974Z" fill="#F0C7A3"/>
<path d="M205.794 229.498C208.053 229.832 210.252 230.485 212.325 231.439L210.687 237.029C208.566 236.129 206.374 235.41 204.133 234.877L205.794 229.498ZM229.904 217.804C231.672 217.704 233.437 218.058 235.03 218.833C235.695 219.114 236.258 219.592 236.643 220.203C237.028 220.813 237.216 221.527 237.183 222.248C237.189 222.825 237.061 223.395 236.809 223.915C236.557 224.434 236.189 224.888 235.732 225.241L234.866 225.826L236.856 226.037L236.551 230.27C237.125 230.625 237.666 231.033 238.166 231.486C240.009 233.448 241.024 236.045 240.999 238.736V240.49C240.696 244.058 240.021 247.585 238.986 251.014L232.619 249.915C233.79 246.749 234.454 243.418 234.585 240.045C234.797 238.3 234.346 236.539 233.321 235.111C232.195 234.253 230.804 233.815 229.389 233.871V233.871C229.389 234.76 229.623 235.695 229.716 236.631L233.345 236.958L233.064 241.098L230.091 240.887C230.091 241.262 230.091 241.612 230.231 241.963L232.947 242.22L232.619 246.36L230.723 246.243C230.723 246.921 230.887 247.623 230.957 248.348L228.616 248.582L229.529 253.095C225.713 254.129 221.78 254.672 217.826 254.709H216.14C213.327 254.799 210.537 254.162 208.042 252.862C206.887 252.182 205.936 251.205 205.29 250.032C204.643 248.86 204.324 247.535 204.367 246.196C204.462 243.135 205.137 240.119 206.356 237.309L212.934 238.759C211.738 240.651 211.045 242.816 210.921 245.05C210.879 245.66 210.998 246.27 211.265 246.819C211.531 247.369 211.937 247.839 212.442 248.184C213.157 248.608 213.956 248.871 214.783 248.956C214.018 242.719 213.332 236.483 212.723 230.246L219.3 229.545V230.293C220.752 229.895 222.226 229.591 223.701 229.334L219.019 228.937L219.558 224.516L226.112 224.984C227.63 224.55 229.116 224.01 230.559 223.37C230.84 223.23 230.957 223.113 230.957 223.043C230.957 222.973 230.395 222.716 229.272 222.716C224.6 222.946 219.971 223.731 215.485 225.054L214.127 220.12C219.269 218.689 224.568 217.903 229.904 217.781V217.804ZM206.731 221.616C209.152 221.951 211.515 222.62 213.753 223.604L212.068 229.358C209.846 228.41 207.532 227.697 205.162 227.229L206.731 221.616ZM223.116 236.257C223.116 235.742 223.116 235.228 222.952 234.737C221.875 234.97 220.845 235.228 219.839 235.532V236.093L223.116 236.257ZM223.771 241.566C223.771 241.238 223.771 240.887 223.771 240.537L220.447 240.279C220.447 240.677 220.447 241.028 220.447 241.355C221.641 241.402 222.741 241.449 223.841 241.542L223.771 241.566ZM221.267 248.956C222.343 248.956 223.443 248.652 224.567 248.441L224.239 245.799C223.116 245.799 221.899 245.799 220.892 245.588C221.103 246.664 221.22 247.904 221.337 248.933L221.267 248.956Z" fill="black"/>
<path d="M250.993 219.091C251.018 219.246 251.018 219.403 250.993 219.558C252.78 219.079 254.621 218.827 256.471 218.81C257.403 218.739 258.338 218.894 259.197 219.26C260.057 219.627 260.816 220.194 261.41 220.915C262.564 222.609 263.169 224.618 263.142 226.668V228.796C263.142 232.024 262.486 234.152 261.199 235.134L259.888 235.836C260.904 236.327 261.835 236.974 262.65 237.754C263.67 238.758 264.322 240.076 264.499 241.495C264.508 241.74 264.459 241.984 264.358 242.207C264.256 242.43 264.104 242.627 263.914 242.782C264.251 243.231 264.519 243.728 264.71 244.255V244.466C264.972 243.793 265.318 243.157 265.74 242.571C265.509 242.383 265.325 242.143 265.204 241.871C265.082 241.599 265.025 241.302 265.038 241.004C265.202 239.565 265.788 238.206 266.723 237.099C267.402 236.396 268.193 235.811 269.064 235.368C267.889 234.955 266.841 234.246 266.021 233.31C264.884 231.71 264.323 229.773 264.429 227.814C264.483 224.394 265.092 221.006 266.231 217.781L269.064 218.529C271.133 217.811 273.31 217.447 275.501 217.454C276.66 217.398 277.817 217.603 278.886 218.054C279.955 218.506 280.909 219.191 281.677 220.06C282.445 220.928 283.009 221.959 283.325 223.074C283.642 224.19 283.704 225.362 283.506 226.504V227.931C283.471 230.704 283.181 233.467 282.64 236.187C282.354 238.527 281.748 240.817 280.837 242.992L275.407 241.823C276.218 239.54 276.836 237.193 277.256 234.807C275.431 235.291 273.551 235.543 271.662 235.555H271.17C272.047 235.972 272.885 236.465 273.675 237.029C274.672 237.783 275.349 238.885 275.571 240.116C275.607 240.492 275.552 240.872 275.409 241.222C275.266 241.572 275.041 241.883 274.752 242.127C275.219 242.561 275.635 243.048 275.992 243.577C276.361 244.125 276.571 244.765 276.601 245.424C276.606 245.755 276.529 246.081 276.378 246.375C276.227 246.668 276.006 246.92 275.735 247.108C276.246 248.003 276.543 249.003 276.601 250.032C276.647 250.577 276.571 251.125 276.377 251.637C276.184 252.149 275.879 252.611 275.484 252.989C275.089 253.368 274.615 253.654 274.095 253.826C273.576 253.998 273.024 254.052 272.481 253.984H272.036H271.287L271.498 255.341L266.676 255.832C266.255 253.072 265.857 250.289 265.529 247.529C265.284 247.405 265.062 247.239 264.874 247.038C264.596 247.42 264.225 247.726 263.797 247.927C264.265 250.266 264.804 252.745 265.412 255.341L260.731 255.832C260.567 255.107 260.403 254.429 260.239 253.774C259.771 253.774 259.326 253.774 258.928 253.774C257.465 253.892 255.999 253.574 254.715 252.862C254.34 252.597 254.034 252.247 253.823 251.84C253.611 251.433 253.5 250.981 253.498 250.523C253.52 249.592 253.761 248.678 254.2 247.857C253.942 247.711 253.727 247.5 253.575 247.246C253.423 246.992 253.34 246.703 253.334 246.407C253.334 246.22 253.334 246.009 253.334 245.752L247.67 246.407C246.796 236.491 245.984 227.635 245.235 219.839L250.993 219.091ZM251.672 225.92C253.558 225.564 255.467 225.345 257.384 225.265C257.323 224.796 257.155 224.348 256.892 223.955C256.694 223.709 256.44 223.512 256.151 223.382C255.862 223.252 255.547 223.192 255.23 223.207C253.955 223.348 252.704 223.654 251.508 224.119C251.555 224.68 251.602 225.288 251.672 225.92V225.92ZM252.234 232.047C253.124 232.047 253.919 232.234 254.575 232.281C255.406 232.331 256.231 232.1 256.915 231.626C257.243 231.416 257.454 230.831 257.571 229.872C255.732 229.937 253.901 230.14 252.094 230.48L252.234 232.047ZM253.475 245.448C253.741 244.625 254.111 243.839 254.575 243.109C254.387 242.909 254.241 242.674 254.144 242.417C254.048 242.16 254.003 241.887 254.013 241.612C254.172 240.142 254.777 238.755 255.745 237.637C256.02 237.311 256.335 237.02 256.681 236.771H255.324C254.458 236.771 253.545 236.771 252.655 236.771C252.913 239.484 253.194 242.431 253.475 245.565V245.448ZM258.156 240.63C259.935 240.63 260.824 240.63 260.824 240.303C260.777 239.87 260.562 239.473 260.225 239.198C259.888 238.922 259.456 238.79 259.022 238.829C258.039 238.993 257.524 239.484 257.524 240.303C257.664 240.537 257.852 240.63 258.25 240.63H258.156ZM258.39 243.717C258.074 244.082 257.828 244.503 257.664 244.957C257.669 245.067 257.707 245.173 257.774 245.261C257.841 245.349 257.934 245.414 258.039 245.448C258.419 245.503 258.806 245.503 259.186 245.448C259.595 245.473 260.004 245.401 260.38 245.237C260.464 245.212 260.537 245.159 260.588 245.087C260.639 245.015 260.664 244.928 260.661 244.84C260.576 244.392 260.392 243.968 260.122 243.6H258.39V243.717ZM259.467 250.499C259.467 249.938 259.256 249.33 259.139 248.745H258.765H258.203C258.048 249.004 257.923 249.278 257.828 249.564C257.817 249.705 257.836 249.847 257.884 249.981C257.933 250.114 258.009 250.235 258.109 250.336C258.37 250.534 258.696 250.626 259.022 250.593L259.467 250.499ZM269.391 240.139C271.124 240.139 271.966 240.139 271.966 239.858C271.779 238.946 271.124 238.502 270 238.502C268.876 238.502 268.689 239.063 268.689 239.858C268.798 240.045 269.064 240.139 269.485 240.139H269.391ZM269.579 243.273C269.294 243.556 269.064 243.889 268.9 244.255C268.888 244.42 268.924 244.584 269.003 244.729C269.081 244.874 269.2 244.994 269.345 245.074C269.773 245.253 270.239 245.325 270.702 245.284C270.913 245.307 271.126 245.28 271.325 245.207C271.524 245.134 271.703 245.017 271.849 244.863C271.955 244.767 272.035 244.646 272.084 244.512C272.133 244.377 272.149 244.233 272.13 244.091C272.13 243.904 271.919 243.6 271.475 243.226H270.749L269.579 243.273ZM277.982 229.708C277.982 228.656 277.982 227.791 277.982 227.112C278.074 226.351 278.009 225.578 277.792 224.842C277.574 224.106 277.209 223.422 276.718 222.833C275.992 222.412 275.169 222.187 274.33 222.178C272.954 222.36 271.593 222.641 270.257 223.02C270.257 223.558 270.047 224.049 269.977 224.516C271.919 224.353 273.815 224.259 275.688 224.259L276.226 228.749C274.026 228.749 271.966 228.749 270.047 228.983C270.351 230.153 270.983 230.714 271.896 230.714C273.995 230.7 276.08 230.361 278.075 229.708H277.982ZM270.445 248.418C270.592 249.05 270.701 249.691 270.772 250.336H271.521C271.943 250.336 272.13 250.055 272.13 249.47C272.092 249.042 271.911 248.638 271.615 248.324H270.866L270.445 248.418Z" fill="black"/>
<path d="M295.233 238.899L290.715 237.379C291.885 235.041 293.056 232.936 293.969 231.018L289.287 232.468C288.316 229.281 287.611 226.019 287.181 222.716L292.611 221.078C292.661 221.699 292.747 222.316 292.869 222.926C295.955 222.136 299.08 221.504 302.231 221.032C301.965 220.452 301.731 219.859 301.529 219.254L307.826 216.916C308.251 218.132 308.833 219.288 309.558 220.353C311.688 220.19 313.912 220.073 316.229 220.026C318.5 219.937 320.768 220.262 322.923 220.985C323.698 221.316 324.361 221.862 324.834 222.559C325.307 223.255 325.57 224.073 325.592 224.914C325.471 226.997 325.086 229.056 324.445 231.041L318.195 230.176C318.638 228.962 318.967 227.709 319.178 226.434C319.178 225.686 317.703 225.288 314.778 225.288C312.788 225.288 310.822 225.545 308.902 225.733C309.536 226.288 310.102 226.916 310.588 227.604L308.692 229.474C310.26 228.469 311.828 227.487 313.373 226.574L317.774 229.568C314.52 231.626 311.36 233.731 308.411 235.906C310.974 235.529 313.514 235.006 316.018 234.339L316.884 239.016C313.461 240.056 309.924 240.677 306.351 240.864C304.997 240.894 303.647 240.712 302.348 240.326C301.084 241.285 300.008 242.267 298.744 243.249L301.857 243.951C301.202 244.946 300.771 246.071 300.593 247.249C300.56 247.767 300.729 248.279 301.065 248.675C301.401 249.072 301.878 249.324 302.395 249.377C303.645 249.631 304.913 249.779 306.187 249.821C305.789 247.038 305.462 244.466 305.157 242.15L311.781 241.519L312.835 249.751C314.003 249.61 315.136 249.261 316.182 248.722C316.56 248.566 316.879 248.294 317.094 247.945C317.308 247.596 317.407 247.189 317.376 246.781C317.238 244.694 316.489 242.693 315.222 241.028L321.823 239.554C323.255 242.413 323.985 245.572 323.953 248.769C324.027 249.555 323.9 250.346 323.585 251.07C323.27 251.794 322.776 252.426 322.151 252.908C320.744 253.837 319.142 254.429 317.469 254.639C315.156 255.091 312.805 255.326 310.447 255.341H307.638C304.188 255.483 300.734 255.177 297.363 254.429C296.358 254.197 295.47 253.616 294.856 252.788C294.243 251.961 293.945 250.942 294.016 249.915C294.018 248.991 294.089 248.069 294.226 247.155L292.986 248.278L288.047 244.816C290.458 242.735 292.845 240.887 295.233 238.899ZM299.423 227.697L304.853 228.843C304.422 230.058 304.109 231.311 303.917 232.585C305.025 231.821 306.125 231.096 307.217 230.41C306.112 229.255 304.923 228.184 303.659 227.206L304.619 226.2C301.031 226.719 297.476 227.437 293.969 228.352C293.969 228.913 294.25 229.474 294.413 230.036L294.952 229.007L298.697 230.246C298.908 229.334 299.165 228.492 299.423 227.697ZM298.276 234.339C297.644 235.555 297.035 236.678 296.473 237.964L298.439 236.491C298.439 236.163 298.369 235.789 298.229 235.368C298.229 235.017 298.252 234.666 298.276 234.339ZM319.623 230.971C321.545 232.044 323.238 233.482 324.608 235.204L321.285 238.549C319.823 237.032 318.259 235.618 316.603 234.316L319.623 230.971Z" fill="black"/>
<path d="M339.402 217.5C339.9 219.262 340.608 220.958 341.508 222.552C342.975 222.552 344.45 222.552 345.932 222.552L346.471 228.095C341.126 228.062 335.787 228.46 330.507 229.287L330.039 223.581C331.607 223.324 333.152 223.137 334.72 222.996C334.322 222.037 333.924 221.032 333.573 219.956L339.402 217.5ZM332.38 241.379L335.165 241.963C336.192 241.708 337.244 241.567 338.302 241.542C339.508 241.536 340.713 241.622 341.906 241.799C342.952 241.969 343.909 242.489 344.622 243.273C345.534 243.928 345.979 245.869 345.979 249.12V249.774C346.001 250.552 345.828 251.323 345.477 252.017C345.125 252.711 344.606 253.307 343.966 253.75C342.378 254.809 340.487 255.318 338.582 255.2H337.927C335.613 255.391 333.311 254.716 331.467 253.306C330.953 252.734 330.56 252.064 330.31 251.337C330.061 250.61 329.961 249.84 330.016 249.073C330.065 246.323 330.884 243.641 332.38 241.332V241.379ZM344.083 235.087L344.622 240.069C340.208 240.05 335.798 240.323 331.42 240.887L330.952 235.953C335.305 235.373 339.691 235.068 344.083 235.041V235.087ZM344.083 229.381L344.622 234.058C340.604 234.039 336.591 234.312 332.614 234.877L332.122 230.199C336.087 229.657 340.082 229.368 344.083 229.334V229.381ZM337.787 250.242C338.391 250.303 338.995 250.127 339.472 249.751C339.81 249.338 339.97 248.808 339.917 248.278C339.917 247.272 339.636 246.734 339.261 246.617C338.885 246.525 338.501 246.47 338.114 246.454C337.416 246.586 336.754 246.865 336.172 247.272C336.172 247.506 336.172 247.716 336.172 247.927C336.127 248.52 336.232 249.115 336.476 249.658C336.625 249.86 336.824 250.021 337.054 250.123C337.284 250.226 337.536 250.267 337.787 250.242ZM348.32 217.968C355.131 218.412 361.732 219.02 368.052 219.816L367.49 225.382C364.845 225.078 362.224 224.82 359.672 224.563C359.576 224.951 359.459 225.334 359.321 225.709C361.068 225.701 362.789 226.127 364.33 226.949C364.951 227.421 365.456 228.029 365.805 228.726C366.154 229.424 366.338 230.192 366.343 230.971V231.79C366.248 233.152 366.045 234.505 365.735 235.836L368.309 236.07L367.818 241.823L345.394 240.139L346.26 234.596L349.677 234.76C349.958 233.684 350.239 232.655 350.543 231.673C349.734 231.842 348.948 232.109 348.203 232.468L346.541 227.533C348.378 226.922 350.266 226.476 352.182 226.2L352.884 223.862C351.012 223.651 349.162 223.487 347.337 223.324L348.32 217.968ZM348.975 241.519L350.824 241.987C352.823 241.682 354.842 241.525 356.863 241.519C359.734 241.254 362.618 241.849 365.149 243.226C365.813 243.736 366.333 244.409 366.657 245.18C366.981 245.951 367.099 246.793 366.999 247.623V248.371C367.12 249.366 367.042 250.374 366.769 251.338C366.496 252.302 366.033 253.201 365.407 253.984C364.354 255.06 361.568 255.598 357.004 255.598H354.148C352.006 255.808 349.86 255.234 348.109 253.984C347.019 252.447 346.506 250.576 346.658 248.699C346.697 246.121 347.504 243.613 348.975 241.495V241.519ZM357.519 246.454C356.014 246.464 354.52 246.717 353.095 247.202C353.106 247.272 353.106 247.343 353.095 247.412C352.996 248.214 353.135 249.027 353.493 249.751C353.729 250.068 354.042 250.32 354.402 250.484C354.762 250.648 355.158 250.717 355.553 250.687H356.536C357.737 250.758 358.939 250.549 360.047 250.079C360.298 249.808 360.487 249.485 360.6 249.134C360.714 248.782 360.748 248.41 360.702 248.044C360.724 247.797 360.668 247.549 360.542 247.335C360.416 247.122 360.227 246.952 360 246.851C359.204 246.567 358.364 246.425 357.519 246.43V246.454ZM356.465 235.158L359.298 235.321C359.562 234.518 359.727 233.685 359.789 232.842C359.845 232.218 359.714 231.592 359.415 231.041C359.009 230.766 358.523 230.635 358.034 230.667H357.776C357.332 232.117 356.887 233.614 356.465 235.134V235.158Z" fill="black"/>
<g opacity="0.56">
<path opacity="0.56" d="M209.54 79.2122C211.304 79.1955 213.067 79.3364 214.806 79.6332C212.795 77.4521 210.628 75.4198 208.322 73.5525C207.386 73.7162 206.544 73.8565 205.771 73.9501C205.204 75.6763 204.735 77.4332 204.367 79.2122L192.663 76.5928C194.085 70.1985 196.302 64.0073 199.264 58.1638L210.967 60.8767C210.461 61.7214 210.023 62.6051 209.657 63.5194C216.727 62.5918 223.85 62.123 230.98 62.1162L232.034 71.9856C228.687 71.9856 225.456 71.9856 222.32 72.2194C223.373 73.5525 224.403 74.8856 225.456 76.2654L219.862 81.434C220.354 81.7614 220.845 82.1356 221.337 82.5098C223.804 85.4648 225.014 89.2681 224.707 93.1041C224.707 97.6179 223.865 100.658 222.156 102.249C219.511 104.704 215.415 105.944 209.821 105.944H203.641C203.81 106.714 203.919 107.496 203.969 108.282C206.918 108.025 209.376 107.885 211.295 107.885C215.746 107.759 220.166 108.656 224.216 110.504C225.688 111.089 226.96 112.087 227.878 113.377C228.796 114.668 229.32 116.196 229.389 117.778C229.104 122.372 228.215 126.909 226.744 131.272L212.7 128.629C214.099 126.522 214.996 124.121 215.321 121.613C215.31 121.138 215.153 120.677 214.873 120.293C214.593 119.908 214.202 119.618 213.753 119.461C212.357 118.833 210.836 118.529 209.306 118.573C208.065 118.573 206.661 118.573 205.116 118.736C205.677 123.274 206.192 127.951 206.684 132.769L192.85 134.172C192.32 129.401 191.805 124.77 191.306 120.28C185.75 124.661 180.125 129.261 174.429 134.078L165.3 125.776C167.267 124.069 169.209 122.385 171.129 120.678C166.962 118.885 164.879 114.987 164.879 108.984C164.937 105.269 165.658 101.594 167.009 98.1324L167.524 95.1856H188.403C188.403 93.7122 188.169 92.309 188.005 90.9993C181.919 91.584 174.967 92.4259 167.173 93.4549L165.3 82.9307L168.25 82.4396L156.827 80.1944C158.451 72.6651 161.007 65.3668 164.434 58.4678L176.7 61.1807C176.306 61.8335 175.977 62.5227 175.716 63.2388C180.948 62.4734 186.229 62.0904 191.516 62.0928L192.406 71.9622C190.276 71.9622 188.192 71.9622 186.156 72.1259C187.303 73.5525 188.497 75.0259 189.456 76.5694L185.243 80.4283C193.482 79.6332 201.581 79.2278 209.54 79.2122ZM179.906 81.1065C177.654 78.429 175.145 75.9773 172.416 73.7864C172.113 73.7494 171.806 73.7494 171.503 73.7864C170.637 76.6396 169.865 79.5396 169.163 82.4864C172.767 81.9953 176.348 81.5041 179.906 81.1065ZM190.018 109.919C189.854 108.563 189.714 107.207 189.62 105.897H178.502C178.204 107.103 178 108.331 177.893 109.569C177.893 110.598 178.97 111.112 181.17 111.112C181.662 111.112 182.458 111.112 183.511 110.949C185.852 110.574 188.005 110.247 190.018 109.919ZM201.722 89.9469L202.377 95.3727H205.982L211.155 94.8816C211.508 94.6425 211.798 94.3223 212.002 93.948C212.205 93.5736 212.316 93.1559 212.325 92.7299C212.378 92.2765 212.34 91.817 212.211 91.379C212.082 90.941 211.866 90.5334 211.576 90.1808C210.679 89.7597 209.683 89.5899 208.697 89.6896C206.59 89.7364 204.296 89.8299 201.722 89.9936V89.9469Z" fill="#231815"/>
<path opacity="0.56" d="M313.958 85.2227L315.527 100.354C291.807 100.354 267.917 101.446 243.854 103.628L242.122 88.5203C264.546 86.3219 288.492 85.2227 313.958 85.2227Z" fill="#231815"/>
<path opacity="0.56" d="M336.265 61.7888C336.29 62.0923 336.29 62.3973 336.265 62.7009C339.841 61.75 343.52 61.2473 347.22 61.2041C349.083 61.0671 350.952 61.3778 352.67 62.1102C354.389 62.8425 355.907 63.9753 357.098 65.4138C359.403 68.8038 360.605 72.8223 360.538 76.9202V81.2001C360.538 87.6549 359.251 91.888 356.676 93.8525C355.857 94.3437 354.967 94.8114 354.031 95.2557C356.065 96.242 357.93 97.5445 359.555 99.1146C361.607 101.114 362.913 103.755 363.254 106.599C363.271 107.083 363.177 107.565 362.978 108.007C362.779 108.449 362.481 108.839 362.107 109.148C362.778 110.052 363.307 111.054 363.675 112.118C363.711 112.257 363.766 112.391 363.839 112.515C364.382 111.18 365.073 109.909 365.899 108.727C365.437 108.354 365.07 107.879 364.826 107.338C364.582 106.798 364.468 106.208 364.494 105.616C364.812 102.735 365.986 100.014 367.865 97.8049C369.211 96.3867 370.795 95.2152 372.546 94.3436C370.194 93.5227 368.097 92.1042 366.46 90.2275C364.166 87.0285 363.034 83.1419 363.254 79.2122C363.363 72.3708 364.588 65.5931 366.882 59.146L372.546 60.6428C376.681 59.2196 381.023 58.4925 385.397 58.4912C389.23 58.4541 392.965 59.7062 396 62.046C399.62 64.7745 401.43 69.6235 401.43 76.5928V79.5162C401.371 85.011 400.823 90.4896 399.792 95.8872C399.196 100.558 397.976 105.128 396.164 109.475L385.303 107.136C386.908 102.565 388.144 97.8725 389.001 93.1041C385.348 94.0606 381.59 94.5634 377.813 94.6009H376.853C378.606 95.4344 380.282 96.4204 381.862 97.5477C383.882 99.0346 385.242 101.249 385.654 103.722C385.715 104.474 385.599 105.229 385.314 105.928C385.03 106.627 384.585 107.249 384.016 107.744C384.902 108.612 385.688 109.577 386.356 110.621C387.104 111.714 387.533 112.994 387.597 114.316C387.603 114.979 387.448 115.634 387.147 116.224C386.845 116.814 386.405 117.323 385.865 117.707C386.888 119.487 387.481 121.481 387.597 123.531C387.488 128.676 384.741 131.311 379.358 131.436H378.468C377.969 131.471 377.469 131.471 376.97 131.436C376.97 132.324 377.228 133.213 377.391 134.149L367.771 135.131C366.882 129.611 366.101 124.076 365.43 118.526C364.937 118.281 364.493 117.948 364.12 117.544C363.558 118.309 362.819 118.927 361.966 119.344C362.902 124.022 363.979 128.957 365.196 134.149L355.646 135.131C355.319 133.704 354.991 132.348 354.663 131.038C353.727 131.038 352.837 131.202 352.018 131.202C349.098 131.434 346.175 130.8 343.615 129.378C342.886 128.836 342.294 128.13 341.887 127.317C341.481 126.505 341.271 125.608 341.274 124.7C341.32 122.838 341.801 121.012 342.679 119.368C342.167 119.078 341.738 118.661 341.434 118.157C341.131 117.653 340.963 117.079 340.947 116.491C340.947 116.094 340.947 115.673 340.947 115.182L329.594 116.491C327.847 96.5187 326.224 78.7366 324.726 63.1452L336.265 61.7888ZM337.576 75.4468C341.347 74.7302 345.164 74.2848 348.999 74.1138C348.891 73.1734 348.553 72.2739 348.016 71.4944C347.627 71.0049 347.127 70.6156 346.557 70.3592C345.986 70.1028 345.363 69.9869 344.739 70.021C342.173 70.2896 339.655 70.8951 337.248 71.8218C337.342 72.9678 337.459 74.1839 337.576 75.4468V75.4468ZM338.723 87.6783C340.486 87.9122 342.047 88.0759 343.404 88.1694C345.013 88.2374 346.6 87.7774 347.922 86.8598C348.577 86.4154 349.022 85.2461 349.256 83.3283C345.579 83.4762 341.918 83.8904 338.302 84.5678C338.512 85.5969 338.606 86.6493 338.723 87.6783V87.6783ZM341.204 114.597C341.724 112.872 342.464 111.222 343.404 109.686C343.024 109.292 342.727 108.827 342.53 108.317C342.333 107.806 342.24 107.262 342.257 106.715C342.583 103.769 343.79 100.99 345.722 98.7404C346.299 98.1062 346.933 97.5268 347.618 97.0098C346.681 97.0098 345.769 97.0098 344.902 97.0098C343.147 97.0098 341.368 97.0098 339.542 96.8461C340.104 102.576 340.642 108.469 341.204 114.597ZM350.731 104.985C354.312 104.985 356.091 104.774 356.091 104.33C355.996 103.459 355.563 102.659 354.885 102.104C354.206 101.548 353.337 101.281 352.463 101.36C350.497 101.711 349.514 102.693 349.514 104.33C349.56 104.657 349.982 104.868 350.731 104.868V104.985ZM351.222 111.159C350.596 111.889 350.097 112.719 349.748 113.615C349.753 113.836 349.828 114.051 349.963 114.227C350.097 114.403 350.284 114.533 350.497 114.597C351.255 114.822 352.048 114.909 352.837 114.854C353.64 114.902 354.443 114.757 355.178 114.433C355.353 114.381 355.505 114.273 355.611 114.124C355.717 113.976 355.771 113.797 355.763 113.615C355.606 112.722 355.236 111.88 354.687 111.159H351.222ZM353.376 124.724C353.142 123.578 352.931 122.385 352.72 121.192H351.971C351.59 121.227 351.206 121.227 350.824 121.192C350.525 121.722 350.274 122.277 350.075 122.853C350.048 123.137 350.087 123.425 350.188 123.692C350.29 123.96 350.451 124.201 350.661 124.396C351.178 124.782 351.822 124.957 352.463 124.887L353.376 124.724ZM373.202 104.003C376.666 104.003 378.398 103.815 378.398 103.418C378 101.617 376.689 100.705 374.442 100.705C372.687 100.939 371.797 101.828 371.797 103.418C371.914 103.699 372.382 103.886 373.202 103.886V104.003ZM373.623 110.247C373.032 110.814 372.555 111.489 372.218 112.235C372.197 112.566 372.272 112.897 372.434 113.187C372.596 113.478 372.838 113.715 373.131 113.872C373.991 114.222 374.923 114.358 375.847 114.269C376.274 114.325 376.708 114.28 377.114 114.137C377.52 113.995 377.888 113.76 378.187 113.451C378.403 113.255 378.568 113.011 378.67 112.738C378.772 112.466 378.807 112.173 378.772 111.884C378.772 111.51 378.328 110.925 377.438 110.177H375.964L373.623 110.247ZM390.406 83.1178C390.57 81.0364 390.64 79.3057 390.64 77.9493C390.64 73.7162 389.797 70.9331 388.088 69.3896C386.511 68.5179 384.714 68.12 382.915 68.2436C380.161 68.6047 377.438 69.1754 374.77 69.9509C374.559 71.0033 374.348 71.9856 374.185 72.921C378.086 72.5936 381.901 72.4299 385.631 72.4299L386.707 81.3872C382.307 81.3872 378.187 81.5509 374.348 81.8783C374.957 84.217 376.198 85.3396 378.07 85.3396C382.28 85.2144 386.443 84.4251 390.406 83.0009V83.1178ZM375.332 120.537C375.612 121.8 375.847 123.086 376.01 124.396H377.485C378.304 124.396 378.726 123.835 378.726 122.689C378.628 121.814 378.25 120.994 377.649 120.35C377.157 120.35 376.666 120.35 376.174 120.35L375.332 120.537Z" fill="#231815"/>
</g>
<path d="M209.165 72.2662C210.93 72.2496 212.692 72.3905 214.432 72.6872C212.413 70.5052 210.238 68.473 207.925 66.6065C206.988 66.7702 206.146 66.9106 205.373 67.0041C204.843 68.7036 204.375 70.4576 203.969 72.2662L192.265 69.6469C193.701 63.2438 195.951 57.0506 198.96 51.2178L210.663 53.9307C210.166 54.7804 209.728 55.6634 209.352 56.5735C216.423 55.6458 223.545 55.1771 230.676 55.1702L231.73 65.0396C228.382 65.0396 225.152 65.0396 222.039 65.2735C223.069 66.6065 224.122 67.9396 225.152 69.3194L219.558 74.488C220.049 74.8154 220.541 75.1662 221.033 75.5638C223.533 78.5046 224.778 82.3094 224.497 86.1582C224.497 90.6719 223.654 93.7122 221.945 95.3025C219.324 97.7504 215.212 98.9821 209.61 98.9977H203.15C203.318 99.7678 203.428 100.55 203.477 101.336C206.45 101.056 208.884 100.939 210.804 100.939C215.255 100.808 219.676 101.705 223.724 103.558C225.223 104.129 226.521 105.127 227.457 106.429C228.393 107.73 228.927 109.277 228.991 110.878C228.704 115.473 227.815 120.01 226.346 124.373L212.302 121.73C213.697 119.62 214.594 117.221 214.923 114.714C214.912 114.238 214.756 113.778 214.475 113.393C214.195 113.009 213.804 112.719 213.355 112.562C211.967 111.933 210.454 111.629 208.931 111.674C207.667 111.674 206.263 111.674 204.718 111.837C205.28 116.374 205.802 121.052 206.286 125.869L192.476 127.273C191.914 122.502 191.391 117.871 190.908 113.381C185.368 117.762 179.743 122.361 174.031 127.179L164.902 118.877C166.869 117.169 168.811 115.486 170.731 113.778C166.564 111.985 164.481 108.087 164.481 102.085C164.547 98.3684 165.277 94.6936 166.635 91.2332L167.126 88.2864H188.029C187.912 86.7896 187.771 85.4098 187.607 84.0767C181.521 84.6848 174.57 85.5033 166.798 86.5557L164.902 76.0315L167.852 75.5404L156.593 73.0614C158.182 65.5784 160.69 58.3202 164.06 51.4517L176.325 54.1646C175.941 54.8224 175.612 55.5107 175.342 56.2227C180.574 55.4573 185.854 55.0743 191.142 55.0767L191.938 65.0396C189.808 65.0396 187.724 65.0396 185.688 65.2033C186.835 66.6299 188.029 68.1033 188.988 69.6469L184.916 73.5057C193.124 72.6794 201.207 72.2662 209.165 72.2662ZM179.532 74.1606C177.285 71.4778 174.776 69.0256 172.042 66.8404C171.738 66.8034 171.432 66.8034 171.129 66.8404C170.263 69.6936 169.49 72.5936 168.788 75.5404C172.393 75.0493 175.974 74.5348 179.532 74.1606V74.1606ZM189.597 103.02C189.433 101.64 189.316 100.307 189.199 98.9977H178.127C177.86 100.184 177.673 101.388 177.566 102.599C177.566 103.652 178.666 104.166 180.843 104.166C181.334 104.166 182.13 104.166 183.183 104.003C185.477 103.628 187.631 103.301 189.597 103.02ZM201.3 83.0477L201.956 88.4735H205.49L210.663 87.9824C211.013 87.7405 211.302 87.4198 211.505 87.046C211.709 86.6722 211.821 86.256 211.834 85.8307C211.887 85.3773 211.848 84.9178 211.719 84.4798C211.591 84.0418 211.375 83.6342 211.085 83.2816C210.222 82.881 209.27 82.7118 208.323 82.7904C206.216 82.7904 203.922 82.884 201.3 83.0477Z" fill="white"/>
<path d="M313.654 78.2767L315.222 93.4082C291.519 93.4082 267.628 94.4996 243.55 96.6824L241.818 81.5509C264.195 79.3681 288.14 78.2767 313.654 78.2767Z" fill="white"/>
<path d="M335.891 54.8428C335.917 55.1463 335.917 55.4514 335.891 55.7549C339.466 54.8041 343.146 54.3013 346.845 54.2581C348.708 54.1211 350.577 54.4318 352.296 55.1642C354.014 55.8966 355.532 57.0293 356.723 58.4678C359.031 61.8565 360.233 65.8759 360.164 69.9743V74.2541C360.164 80.709 358.876 84.942 356.302 86.9066C355.482 87.3977 354.593 87.8654 353.68 88.3098C355.703 89.3031 357.559 90.605 359.181 92.1687C361.233 94.168 362.538 96.8091 362.879 99.6525C362.893 100.136 362.797 100.617 362.598 101.059C362.4 101.5 362.104 101.891 361.732 102.202C362.407 103.095 362.936 104.09 363.3 105.149C363.347 105.292 363.402 105.432 363.464 105.569C364.007 104.234 364.698 102.963 365.524 101.781C365.064 101.407 364.698 100.931 364.454 100.391C364.21 99.8514 364.096 99.2621 364.12 98.6703C364.438 95.7887 365.612 93.0683 367.49 90.859C368.837 89.4414 370.421 88.27 372.172 87.3977C369.813 86.5897 367.713 85.169 366.086 83.2816C363.776 80.0889 362.635 76.1995 362.856 72.2662C362.965 65.4249 364.19 58.6471 366.484 52.2001L372.172 53.7904C376.298 52.3672 380.633 51.64 384.999 51.6388C388.835 51.6077 392.572 52.8498 395.625 55.1702C399.23 57.9299 401.056 62.771 401.056 69.7404V72.5001C400.973 78.0445 400.393 83.5703 399.324 89.0114C398.732 93.6756 397.511 98.2384 395.696 102.576L384.835 100.237C386.437 95.6647 387.673 90.9726 388.533 86.2049C384.879 87.1615 381.121 87.6642 377.345 87.7017H376.361C378.183 88.5486 379.916 89.5749 381.534 90.7654C383.56 92.2472 384.921 94.4645 385.326 96.9396C385.387 97.6915 385.271 98.4472 384.986 99.1459C384.702 99.8445 384.257 100.467 383.688 100.962C384.621 101.817 385.447 102.783 386.146 103.839C386.9 104.929 387.33 106.21 387.386 107.534C387.392 108.197 387.238 108.851 386.936 109.442C386.635 110.032 386.195 110.541 385.654 110.925C386.688 112.701 387.282 114.697 387.386 116.749C387.261 121.894 384.515 124.529 379.147 124.653H378.257C377.766 124.653 377.274 124.653 376.783 124.653C376.783 125.542 377.017 126.431 377.181 127.366L367.56 128.349C366.671 122.829 365.891 117.294 365.22 111.744C364.73 111.493 364.287 111.16 363.909 110.761C363.351 111.521 362.621 112.139 361.779 112.562C362.715 117.24 363.768 122.151 364.986 127.366L355.436 128.349C355.108 126.922 354.78 125.565 354.452 124.256C353.516 124.256 352.627 124.42 351.807 124.42C348.895 124.656 345.978 124.021 343.428 122.595C342.67 122.071 342.049 121.373 341.617 120.559C341.185 119.745 340.955 118.839 340.947 117.918C340.992 116.055 341.473 114.229 342.351 112.586C341.839 112.296 341.41 111.879 341.107 111.375C340.803 110.871 340.635 110.297 340.619 109.709C340.587 109.273 340.587 108.835 340.619 108.399L329.267 109.709C327.472 89.5805 325.841 71.7595 324.374 56.246L335.891 54.8428ZM337.201 68.4775C340.982 67.7787 344.807 67.3411 348.648 67.1678C348.523 66.2278 348.178 65.3304 347.641 64.5485C347.256 64.0531 346.757 63.6583 346.187 63.3976C345.616 63.137 344.991 63.0183 344.364 63.0517C341.799 63.3347 339.281 63.9478 336.874 64.8759C337.061 66.0219 337.061 67.238 337.201 68.4775ZM338.348 80.7324C340.112 80.9662 341.672 81.1299 343.03 81.2235C344.638 81.2914 346.225 80.8315 347.547 79.9138C348.226 79.4694 348.648 78.3001 348.882 76.3823C345.205 76.5315 341.544 76.9457 337.927 77.6219C338.138 78.6509 338.255 79.7033 338.348 80.7324ZM340.83 107.581C341.347 105.844 342.095 104.184 343.053 102.646C342.665 102.262 342.361 101.802 342.159 101.295C341.958 100.788 341.864 100.245 341.883 99.6993C342.214 96.7548 343.421 93.9771 345.347 91.7243C345.918 91.0838 346.553 90.5038 347.243 89.9937C346.307 89.9937 345.394 89.9937 344.528 89.9937C342.772 89.9937 340.993 89.9937 339.168 89.8299C339.729 95.63 340.268 101.524 340.83 107.581ZM350.38 97.9687C353.938 97.9687 355.716 97.7582 355.716 97.3138C355.628 96.44 355.196 95.6369 354.516 95.0803C353.836 94.5236 352.963 94.2588 352.088 94.3437C350.122 94.6711 349.139 95.6767 349.139 97.3138C349.186 97.7114 349.607 97.9219 350.38 97.9219V97.9687ZM350.871 104.143C350.227 104.864 349.72 105.696 349.373 106.599C349.378 106.82 349.454 107.035 349.588 107.211C349.723 107.387 349.91 107.517 350.122 107.581C350.884 107.792 351.674 107.879 352.463 107.838C353.266 107.886 354.068 107.741 354.804 107.417C354.978 107.365 355.131 107.256 355.237 107.108C355.343 106.96 355.396 106.781 355.389 106.599C355.231 105.706 354.862 104.864 354.312 104.143H350.871V104.143ZM353.001 117.707C352.791 116.561 352.556 115.369 352.346 114.176H351.597C351.215 114.199 350.832 114.199 350.45 114.176C350.155 114.7 349.904 115.247 349.701 115.813C349.677 116.101 349.717 116.391 349.818 116.662C349.919 116.933 350.079 117.178 350.286 117.38C350.803 117.765 351.447 117.941 352.088 117.871L353.001 117.707ZM372.827 96.9864C376.291 96.9864 378.023 96.7993 378.023 96.4017C377.625 94.6009 376.315 93.6888 374.068 93.6888C372.312 93.9227 371.446 94.8114 371.446 96.4017C371.54 96.7525 372.008 96.9396 372.827 96.9396V96.9864ZM373.248 103.231C372.666 103.796 372.191 104.462 371.844 105.195C371.818 105.531 371.891 105.867 372.053 106.161C372.215 106.456 372.46 106.698 372.757 106.856C373.617 107.203 374.548 107.34 375.472 107.253C375.899 107.311 376.334 107.266 376.74 107.124C377.147 106.982 377.514 106.746 377.813 106.435C378.031 106.242 378.199 105.998 378.301 105.724C378.403 105.451 378.436 105.157 378.398 104.868C378.398 104.494 377.953 103.909 377.087 103.161H375.589L373.248 103.231ZM390.031 76.1017C390.195 74.0203 390.289 72.2896 390.289 70.9098C390.289 66.7001 389.423 63.8936 387.737 62.3735C386.153 61.4973 384.347 61.0993 382.541 61.2275C379.786 61.5885 377.063 62.1593 374.395 62.9347C374.185 63.9872 373.974 64.9694 373.81 65.9049C377.727 65.5775 381.542 65.4138 385.256 65.4138L386.333 74.3711C381.932 74.3711 377.836 74.5348 373.974 74.8622C374.583 77.2009 375.823 78.3235 377.696 78.3235C381.901 78.2209 386.064 77.4553 390.031 76.0549V76.1017ZM374.98 113.521C375.238 114.761 375.472 116.07 375.636 117.38H377.11C377.93 117.38 378.351 116.819 378.351 115.649C378.253 114.774 377.876 113.954 377.274 113.311C376.783 113.311 376.291 113.311 375.8 113.311L374.98 113.521Z" fill="white"/>
</g>
<defs>
<clipPath id="clip0_38_61">
<rect width="558" height="700" fill="white"/>
</clipPath>
</defs>
</svg>
