<svg width="971" height="1219" viewBox="0 0 971 1219" fill="none" xmlns="http://www.w3.org/2000/svg">
<g clip-path="url(#clip0_52_86)">
<path d="M792.84 884.591L971 853.394V185.715L822.981 166.655L971 150.934V66.0592C971 48.5392 964.039 31.7368 951.649 19.3483C939.26 6.95979 922.455 0 904.933 0L66.0666 0C48.5447 0 31.7404 6.95979 19.3505 19.3483C6.96057 31.7368 0 48.5392 0 66.0592L0 584.025L125.861 610.905L0 613.837V1152.94C0 1170.46 6.96057 1187.26 19.3505 1199.65C31.7404 1212.04 48.5447 1219 66.0666 1219H93.6826L158.161 1100.61L126.064 1219H904.933C922.455 1219 939.26 1212.04 951.649 1199.65C964.039 1187.26 971 1170.46 971 1152.94V895.342L792.84 884.591Z" fill="#51331F"/>
<path d="M797.443 864.024L971 833.56V181.398L826.851 162.908L971.041 147.554V64.5524C971.057 56.0845 969.404 47.6964 966.175 39.868C962.946 32.0395 958.206 24.9242 952.225 18.9288C946.244 12.9335 939.14 8.17588 931.319 4.92793C923.498 1.67998 915.113 0.00545334 906.644 0.000115883H89.6096C81.1251 -0.0159684 72.7208 1.64245 64.8786 4.88031C57.0363 8.11817 49.9102 12.8718 43.9089 18.8687C37.9075 24.8656 33.1488 31.9879 29.9057 39.8272C26.6625 47.6666 24.9986 56.0688 25.0093 64.5524V570.423L147.652 596.732L25.0093 599.542V1126.14C24.9986 1134.63 26.6625 1143.03 29.9057 1150.87C33.1488 1158.71 37.9075 1165.83 43.9089 1171.83C49.9102 1177.82 57.0363 1182.58 64.8786 1185.81C72.7208 1189.05 81.1251 1190.71 89.6096 1190.69H116.33L178.975 1075.19L147.652 1190.9H906.644C915.11 1190.89 923.49 1189.21 931.307 1185.96C939.123 1182.71 946.222 1177.95 952.199 1171.96C958.176 1165.96 962.912 1158.85 966.138 1151.02C969.364 1143.2 971.016 1134.81 971 1126.35V874.531L797.443 864.024Z" fill="#83593D"/>
<path opacity="0.32" d="M967.212 134.887C865.737 143.777 763.821 146.579 662.01 143.277C492.282 137.616 408.864 117.375 237.343 120.226C166.358 121.406 95.4829 126.3 25.0093 134.887V88.8251C68.9179 85.7298 139.954 81.6164 227.73 81.2091C412.611 80.2724 497.536 96.4003 665.31 99.2919C766.056 100.944 866.822 97.4505 967.212 88.8251V134.887Z" fill="#291100"/>
<path opacity="0.19" d="M967.212 497.236C865.737 506.126 763.821 508.927 662.01 505.626C492.282 499.965 408.864 479.723 237.343 482.574C166.358 483.754 95.4829 488.648 25.0093 497.236V451.174C68.9179 448.078 139.954 443.965 227.73 443.558C412.611 442.621 497.536 458.749 665.31 461.641C766.056 463.293 866.822 459.799 967.212 451.174V497.236Z" fill="#050000"/>
<path opacity="0.19" d="M969.126 715.044C867.65 723.912 765.735 726.713 663.925 723.434C494.237 717.773 410.778 697.491 239.298 700.382C168.313 701.561 97.4377 706.455 26.9642 715.044V668.982C70.8321 665.846 141.909 661.773 229.685 661.325C414.566 660.429 499.491 676.557 667.265 679.449C768.011 681.101 868.777 677.607 969.167 668.982L969.126 715.044Z" fill="white"/>
<path opacity="0.06" d="M969.126 1070.31C867.651 1079.19 765.735 1082 663.925 1078.7C494.237 1073.03 410.778 1052.79 239.298 1055.64C168.313 1056.82 97.4377 1061.72 26.9642 1070.31V1024.24C70.8321 1021.15 141.909 1017.03 229.685 1016.63C414.566 1015.69 499.491 1031.82 667.265 1034.71C768.011 1036.36 868.777 1032.87 969.167 1024.24L969.126 1070.31Z" fill="white"/>
<path opacity="0.19" d="M967.212 316.082C865.731 324.873 763.816 327.593 662.01 324.227C492.282 318.81 408.864 298.528 237.343 301.379C166.358 302.559 95.4829 307.453 25.0093 316.041V270.019C68.9179 266.883 139.954 262.811 227.73 262.363C412.611 261.426 497.536 277.595 665.31 280.486C766.056 282.138 866.822 278.645 967.212 270.019V316.082Z" fill="#4F3324"/>
<path opacity="0.19" d="M969.126 955.862C867.651 964.751 765.735 967.552 663.925 964.252C494.237 958.591 410.778 938.35 239.298 941.201C168.313 942.379 97.4377 947.273 26.9642 955.862V909.8C70.8321 906.664 141.909 902.591 229.685 902.143C414.566 901.247 499.491 917.375 667.265 920.267C768.011 921.919 868.777 918.425 969.167 909.8L969.126 955.862Z" fill="#050000"/>
<path opacity="0.19" d="M598.754 835.473C537.21 844.324 474.945 847.121 412.855 843.822C309.478 838.161 258.686 817.92 154.21 820.812C110.762 821.997 67.4967 826.903 24.887 835.473V789.371C65.9187 784.701 107.171 782.227 148.467 781.958C261.089 781.021 312.818 797.149 415.014 800.041C476.452 801.656 537.916 798.086 598.754 789.371V835.473Z" fill="#4F3324"/>
<path opacity="0.19" d="M967.212 597.751C899.715 606.647 831.554 609.455 763.554 606.141C650.442 600.48 594.844 580.238 480.51 583.13C433.021 584.319 385.697 589.208 338.968 597.751V551.689C368.213 548.593 415.584 544.48 474.075 544.073C597.328 543.136 653.945 559.264 765.753 562.155C833.008 563.846 900.292 560.347 967.008 551.689L967.212 597.751Z" fill="#2C1400"/>
<path d="M795.406 330.825H193.067C168.412 330.825 148.426 350.81 148.426 375.462V732.068C148.426 756.72 168.412 776.705 193.067 776.705H795.406C820.061 776.705 840.048 756.72 840.048 732.068V375.462C840.048 350.81 820.061 330.825 795.406 330.825Z" fill="#F0C7A3"/>
<path d="M358.112 399.654C362.041 400.235 365.868 401.374 369.476 403.035L366.625 412.769C362.935 411.203 359.12 409.949 355.22 409.022L358.112 399.654ZM400.065 379.291C403.143 379.117 406.214 379.734 408.986 381.083C410.143 381.573 411.123 382.405 411.793 383.468C412.463 384.531 412.791 385.774 412.733 387.029C412.743 388.034 412.52 389.027 412.081 389.932C411.643 390.836 411.002 391.627 410.208 392.242L408.701 393.26L412.163 393.627L411.633 400.998C412.632 401.618 413.573 402.327 414.444 403.116C417.65 406.534 419.416 411.056 419.372 415.742V418.796C418.846 425.01 417.672 431.153 415.869 437.123L404.79 435.209C406.828 429.696 407.983 423.896 408.212 418.022C408.581 414.984 407.796 411.917 406.012 409.429C404.052 407.935 401.632 407.172 399.169 407.27V407.27C399.169 408.818 399.577 410.447 399.74 412.076L406.053 412.646L405.564 419.855L400.391 419.489C400.391 420.14 400.391 420.751 400.636 421.362L405.361 421.81L404.79 429.019L401.491 428.815C401.491 429.996 401.776 431.218 401.898 432.48L397.825 432.888L399.414 440.748C392.773 442.548 385.929 443.493 379.048 443.558H376.115C371.219 443.714 366.365 442.606 362.022 440.341C360.013 439.158 358.359 437.456 357.233 435.414C356.108 433.371 355.553 431.064 355.627 428.734C355.794 423.402 356.968 418.151 359.089 413.257L370.535 415.782C368.454 419.077 367.248 422.847 367.032 426.738C366.96 427.799 367.166 428.861 367.631 429.818C368.095 430.776 368.801 431.595 369.68 432.195C370.924 432.933 372.314 433.392 373.753 433.539C372.422 422.679 371.227 411.818 370.168 400.958L381.614 399.736V401.039C384.139 400.347 386.705 399.817 389.272 399.369L381.125 398.677L382.062 390.98L393.467 391.794C396.108 391.037 398.694 390.098 401.206 388.984C401.695 388.74 401.898 388.536 401.898 388.414C401.898 388.292 400.921 387.844 398.966 387.844C390.836 388.245 382.782 389.612 374.975 391.916L372.612 383.323C381.559 380.831 390.781 379.463 400.065 379.25V379.291ZM359.741 385.929C363.955 386.513 368.067 387.678 371.961 389.391L369.028 399.41C365.163 397.76 361.135 396.518 357.012 395.704L359.741 385.929ZM388.253 411.425C388.253 410.529 388.253 409.633 387.968 408.777C386.095 409.185 384.302 409.633 382.551 410.162V411.139L388.253 411.425ZM389.394 420.67C389.394 420.099 389.394 419.489 389.394 418.878L383.61 418.43C383.61 419.122 383.61 419.733 383.61 420.303C385.687 420.385 387.602 420.466 389.516 420.629L389.394 420.67ZM385.035 433.539C386.909 433.539 388.824 433.01 390.779 432.643L390.208 428.041C388.253 428.041 386.135 428.041 384.384 427.675C384.75 429.548 384.954 431.707 385.158 433.499L385.035 433.539Z" fill="black"/>
<path d="M436.765 381.53C436.807 381.8 436.807 382.075 436.765 382.345C439.874 381.509 443.077 381.071 446.296 381.041C447.917 380.919 449.545 381.188 451.04 381.826C452.536 382.464 453.857 383.452 454.89 384.707C456.9 387.658 457.952 391.156 457.904 394.726V398.432C457.904 404.052 456.764 407.758 454.524 409.469L452.243 410.691C454.01 411.546 455.631 412.673 457.049 414.03C458.824 415.779 459.958 418.075 460.267 420.547C460.281 420.973 460.197 421.397 460.02 421.786C459.844 422.174 459.579 422.517 459.249 422.787C459.834 423.569 460.3 424.434 460.633 425.352V425.719C461.089 424.548 461.691 423.44 462.426 422.42C462.024 422.091 461.704 421.674 461.492 421.2C461.28 420.726 461.181 420.21 461.204 419.691C461.489 417.185 462.509 414.818 464.136 412.89C465.317 411.666 466.694 410.648 468.21 409.876C466.165 409.157 464.341 407.923 462.914 406.292C460.936 403.507 459.959 400.133 460.145 396.721C460.239 390.766 461.298 384.866 463.281 379.249L468.21 380.553C471.811 379.302 475.598 378.669 479.411 378.679C481.428 378.583 483.441 378.94 485.301 379.726C487.161 380.511 488.821 381.705 490.158 383.218C491.496 384.731 492.476 386.525 493.027 388.467C493.577 390.41 493.685 392.451 493.341 394.441V396.925C493.28 401.753 492.775 406.566 491.834 411.302C491.336 415.377 490.281 419.365 488.698 423.153L479.248 421.117C480.658 417.141 481.735 413.054 482.466 408.899C479.289 409.743 476.018 410.181 472.731 410.202H471.875C473.401 410.928 474.859 411.786 476.234 412.768C477.969 414.082 479.147 416.001 479.533 418.144C479.596 418.799 479.5 419.46 479.251 420.07C479.003 420.68 478.61 421.221 478.107 421.646C478.921 422.403 479.645 423.25 480.266 424.171C480.908 425.126 481.274 426.239 481.325 427.389C481.334 427.964 481.201 428.532 480.938 429.043C480.675 429.555 480.291 429.994 479.818 430.321C480.708 431.878 481.224 433.621 481.325 435.412C481.405 436.361 481.273 437.316 480.936 438.207C480.6 439.098 480.069 439.903 479.382 440.563C478.695 441.222 477.869 441.72 476.965 442.02C476.061 442.32 475.101 442.413 474.156 442.295H473.382H472.079L472.446 444.657L464.055 445.512C463.322 440.707 462.629 435.86 462.059 431.054C461.632 430.838 461.246 430.549 460.919 430.199C460.434 430.864 459.79 431.397 459.045 431.747C459.86 435.819 460.796 440.136 461.855 444.657L453.709 445.512C453.424 444.25 453.139 443.069 452.854 441.928C452.039 441.928 451.265 441.928 450.573 441.928C448.026 442.134 445.475 441.581 443.241 440.34C442.589 439.879 442.056 439.269 441.688 438.56C441.32 437.852 441.126 437.066 441.123 436.267C441.162 434.645 441.581 433.055 442.345 431.624C441.896 431.37 441.522 431.004 441.257 430.561C440.993 430.119 440.849 429.615 440.838 429.099C440.838 428.773 440.838 428.407 440.838 427.959L430.981 429.099C429.46 411.831 428.048 396.409 426.745 382.833L436.765 381.53ZM437.946 393.422C441.227 392.803 444.548 392.422 447.884 392.282C447.779 391.466 447.486 390.685 447.029 390.001C446.684 389.572 446.242 389.23 445.739 389.004C445.237 388.777 444.688 388.673 444.137 388.698C441.918 388.944 439.741 389.478 437.661 390.286C437.742 391.264 437.824 392.323 437.946 393.422V393.422ZM438.924 404.093C440.471 404.093 441.856 404.419 442.997 404.5C444.444 404.587 445.878 404.185 447.07 403.36C447.64 402.993 448.007 401.975 448.21 400.305C445.011 400.418 441.825 400.772 438.679 401.364L438.924 404.093ZM441.082 427.429C441.546 425.997 442.19 424.628 442.997 423.357C442.67 423.008 442.415 422.598 442.248 422.151C442.08 421.704 442.002 421.228 442.019 420.75C442.296 418.19 443.348 415.774 445.033 413.827C445.512 413.259 446.059 412.753 446.663 412.32H444.3C442.793 412.32 441.204 412.32 439.657 412.32C440.105 417.044 440.594 422.176 441.082 427.633V427.429ZM449.229 419.04C452.324 419.04 453.872 419.04 453.872 418.47C453.79 417.716 453.415 417.025 452.828 416.546C452.242 416.066 451.49 415.835 450.736 415.904C449.025 416.189 448.129 417.044 448.129 418.47C448.373 418.877 448.699 419.04 449.392 419.04H449.229ZM449.636 424.416C449.086 425.052 448.658 425.783 448.373 426.574C448.381 426.766 448.448 426.952 448.564 427.105C448.681 427.258 448.842 427.371 449.025 427.429C449.687 427.525 450.359 427.525 451.021 427.429C451.732 427.473 452.444 427.347 453.098 427.063C453.245 427.018 453.372 426.926 453.461 426.8C453.549 426.675 453.594 426.524 453.587 426.371C453.44 425.59 453.12 424.852 452.65 424.212H449.636V424.416ZM451.51 436.227C451.51 435.249 451.143 434.19 450.939 433.172H450.288H449.31C449.041 433.622 448.823 434.1 448.658 434.597C448.638 434.843 448.671 435.091 448.756 435.323C448.84 435.555 448.973 435.766 449.147 435.941C449.6 436.287 450.168 436.448 450.736 436.389L451.51 436.227ZM468.78 418.184C471.794 418.184 473.26 418.184 473.26 417.696C472.934 416.107 471.794 415.334 469.839 415.334C467.884 415.334 467.558 416.311 467.558 417.696C467.748 418.022 468.21 418.184 468.943 418.184H468.78ZM469.106 423.642C468.61 424.134 468.209 424.714 467.924 425.352C467.904 425.639 467.966 425.926 468.103 426.178C468.24 426.431 468.447 426.639 468.698 426.778C469.444 427.09 470.255 427.216 471.061 427.144C471.427 427.183 471.798 427.138 472.144 427.011C472.49 426.883 472.802 426.678 473.057 426.411C473.24 426.243 473.38 426.033 473.466 425.799C473.551 425.565 473.578 425.314 473.545 425.067C473.545 424.742 473.179 424.212 472.405 423.56H471.142L469.106 423.642ZM483.728 400.02C483.728 398.187 483.728 396.681 483.728 395.5C483.888 394.173 483.776 392.828 483.398 391.546C483.019 390.264 482.383 389.074 481.529 388.046C480.265 387.315 478.834 386.922 477.374 386.906C474.979 387.223 472.611 387.713 470.287 388.372C470.287 389.309 469.92 390.164 469.798 390.979C473.179 390.694 476.478 390.531 479.737 390.531L480.673 398.35C476.845 398.35 473.26 398.35 469.92 398.758C470.45 400.794 471.55 401.771 473.138 401.771C476.791 401.747 480.419 401.157 483.891 400.02H483.728ZM470.613 432.602C470.869 433.703 471.059 434.818 471.183 435.941H472.486C473.22 435.941 473.545 435.453 473.545 434.435C473.479 433.688 473.164 432.985 472.649 432.439H471.346L470.613 432.602Z" fill="black"/>
<path d="M513.747 416.026L505.886 413.379C507.922 409.306 509.959 405.641 511.548 402.301L503.401 404.826C501.711 399.277 500.485 393.596 499.735 387.843L509.185 384.992C509.272 386.073 509.421 387.147 509.633 388.21C515.005 386.834 520.442 385.733 525.926 384.911C525.463 383.902 525.055 382.869 524.704 381.816L535.661 377.743C536.401 379.861 537.414 381.874 538.675 383.73C542.381 383.445 546.251 383.241 550.283 383.16C554.236 383.005 558.183 383.57 561.933 384.829C563.28 385.406 564.434 386.357 565.257 387.57C566.081 388.783 566.538 390.206 566.576 391.672C566.367 395.299 565.696 398.884 564.58 402.342L553.705 400.835C554.476 398.721 555.049 396.539 555.416 394.319C555.416 393.016 552.849 392.323 547.758 392.323C544.296 392.323 540.874 392.771 537.534 393.097C538.637 394.064 539.621 395.157 540.467 396.355L537.168 399.613C539.897 397.862 542.626 396.152 545.314 394.563L552.972 399.776C547.31 403.36 541.811 407.026 536.679 410.813C541.14 410.156 545.56 409.245 549.917 408.085L551.424 416.23C545.467 418.041 539.312 419.122 533.095 419.447C530.738 419.499 528.388 419.183 526.13 418.511C523.93 420.18 522.056 421.891 519.857 423.602L525.274 424.823C524.134 426.556 523.384 428.515 523.075 430.566C523.017 431.469 523.312 432.36 523.896 433.05C524.481 433.741 525.311 434.179 526.211 434.272C528.385 434.714 530.592 434.973 532.809 435.046C532.117 430.199 531.547 425.719 531.017 421.687L542.544 420.588L544.377 434.924C546.41 434.677 548.382 434.07 550.202 433.132C550.86 432.859 551.416 432.385 551.789 431.778C552.162 431.171 552.333 430.462 552.279 429.751C552.04 426.116 550.737 422.632 548.532 419.732L560.018 417.167C562.51 422.145 563.781 427.646 563.725 433.213C563.853 434.582 563.632 435.96 563.084 437.221C562.536 438.481 561.677 439.582 560.588 440.422C558.141 442.039 555.353 443.07 552.442 443.436C548.416 444.223 544.325 444.632 540.223 444.657H535.335C529.331 444.906 523.32 444.372 517.454 443.069C515.706 442.666 514.16 441.653 513.092 440.213C512.024 438.772 511.506 436.998 511.629 435.209C511.634 433.6 511.757 431.994 511.996 430.403L509.837 432.358L501.243 426.33C505.438 422.706 509.592 419.488 513.747 416.026ZM521.038 396.518L530.488 398.514C529.738 400.629 529.193 402.811 528.859 405.03C530.786 403.7 532.701 402.437 534.602 401.242C532.679 399.232 530.609 397.367 528.41 395.663L530.08 393.912C523.838 394.814 517.651 396.065 511.548 397.658C511.548 398.636 512.036 399.613 512.322 400.591L513.258 398.799L519.775 400.957C520.142 399.369 520.59 397.903 521.038 396.518ZM519.042 408.085C517.942 410.202 516.883 412.157 515.906 414.397L519.327 411.831C519.327 411.261 519.205 410.61 518.961 409.877C518.961 409.266 519.002 408.655 519.042 408.085ZM556.189 402.22C559.534 404.089 562.481 406.593 564.865 409.591L559.081 415.415C556.538 412.775 553.816 410.312 550.935 408.044L556.189 402.22Z" fill="black"/>
<path d="M590.608 378.761C591.475 381.829 592.706 384.782 594.274 387.558C596.826 387.558 599.392 387.558 601.972 387.558L602.909 397.211C593.608 397.153 584.318 397.848 575.13 399.288L574.315 389.35C577.044 388.902 579.732 388.576 582.461 388.332C581.769 386.662 581.076 384.911 580.466 383.038L590.608 378.761ZM578.388 420.344L583.235 421.362C585.022 420.918 586.853 420.672 588.693 420.629C590.793 420.618 592.89 420.768 594.966 421.077C596.786 421.373 598.452 422.277 599.691 423.642C601.279 424.783 602.053 428.163 602.053 433.824V434.965C602.091 436.319 601.791 437.661 601.179 438.87C600.568 440.079 599.664 441.116 598.55 441.888C595.788 443.731 592.497 444.618 589.182 444.413H588.042C584.015 444.745 580.008 443.57 576.8 441.114C575.906 440.118 575.221 438.952 574.788 437.685C574.354 436.419 574.179 435.078 574.274 433.743C574.36 428.953 575.785 424.284 578.388 420.262V420.344ZM598.754 409.388L599.691 418.063C592.01 418.03 584.336 418.506 576.718 419.488L575.904 410.895C583.479 409.885 591.111 409.354 598.754 409.306V409.388ZM598.754 399.451L599.691 407.596C592.7 407.562 585.717 408.038 578.796 409.021L577.94 400.876C584.839 399.932 591.791 399.428 598.754 399.369V399.451ZM587.797 435.779C588.849 435.885 589.9 435.579 590.73 434.924C591.318 434.205 591.596 433.282 591.504 432.358C591.504 430.607 591.015 429.67 590.363 429.466C589.709 429.306 589.041 429.21 588.367 429.181C587.153 429.412 586 429.898 584.987 430.607C584.987 431.014 584.987 431.381 584.987 431.747C584.91 432.78 585.092 433.816 585.516 434.761C585.776 435.114 586.122 435.393 586.522 435.572C586.922 435.75 587.361 435.822 587.797 435.779ZM606.126 379.576C617.979 380.35 629.466 381.408 640.463 382.793L639.486 392.486C634.883 391.957 630.321 391.509 625.881 391.061C625.713 391.736 625.51 392.403 625.27 393.056C628.31 393.042 631.305 393.784 633.987 395.215C635.067 396.037 635.945 397.096 636.553 398.31C637.16 399.525 637.48 400.862 637.49 402.22V403.645C637.324 406.018 636.97 408.374 636.431 410.691L640.911 411.098L640.056 421.117L601.035 418.185L602.542 408.533L608.489 408.818C608.978 406.944 609.466 405.152 609.996 403.442C608.587 403.737 607.219 404.202 605.923 404.827L603.031 396.233C606.227 395.168 609.512 394.391 612.847 393.912L614.069 389.839C610.811 389.472 607.593 389.187 604.416 388.902L606.126 379.576ZM607.267 420.588L610.485 421.402C613.963 420.871 617.475 420.599 620.993 420.588C625.988 420.127 631.007 421.162 635.412 423.561C636.567 424.448 637.471 425.621 638.035 426.963C638.6 428.306 638.804 429.772 638.63 431.218V432.521C638.842 434.252 638.706 436.009 638.23 437.687C637.755 439.366 636.949 440.932 635.86 442.295C634.028 444.169 629.181 445.106 621.238 445.106H616.269C612.541 445.471 608.807 444.473 605.76 442.295C603.863 439.619 602.969 436.36 603.235 433.091C603.303 428.602 604.707 424.235 607.267 420.547V420.588ZM622.134 429.181C619.515 429.2 616.915 429.64 614.436 430.485C614.455 430.606 614.455 430.73 614.436 430.851C614.264 432.247 614.505 433.663 615.128 434.924C615.539 435.476 616.084 435.915 616.71 436.2C617.337 436.485 618.026 436.606 618.712 436.553H620.423C622.514 436.676 624.605 436.314 626.533 435.494C626.971 435.023 627.299 434.461 627.496 433.849C627.694 433.237 627.754 432.589 627.673 431.951C627.711 431.52 627.614 431.089 627.395 430.717C627.175 430.345 626.846 430.05 626.451 429.874C625.066 429.379 623.605 429.131 622.134 429.141V429.181ZM620.301 409.51L625.23 409.795C625.69 408.397 625.977 406.947 626.085 405.478C626.181 404.391 625.955 403.301 625.433 402.342C624.727 401.863 623.881 401.634 623.03 401.691H622.582C621.808 404.216 621.034 406.822 620.301 409.469V409.51Z" fill="black"/>
<g opacity="0.42">
<path opacity="0.42" d="M300.273 91.0251L308.419 108.212C303.939 110.004 299.458 111.877 294.978 113.792L317.013 119.534L313.633 139.694H322.512L324.956 159.732C309.885 159.732 294.733 160.18 279.581 161.035C279.581 162.745 279.907 164.415 279.988 166.044C285.243 165.678 290.416 165.474 295.466 165.474C302.429 165.252 309.258 167.423 314.814 171.624C317.235 173.459 319.19 175.839 320.52 178.57C321.851 181.301 322.519 184.307 322.471 187.345C322.18 197.291 320.814 207.177 318.398 216.831L295.507 212.758C298.066 207.037 299.451 200.86 299.58 194.594C299.58 189.422 294.53 186.856 284.428 186.856C283.551 186.852 282.677 186.948 281.821 187.141C282.717 197.54 283.627 208.4 284.55 219.722L261.089 222.003C260.111 210.763 259.202 200.214 258.36 190.358C254.376 191.177 250.456 192.279 246.629 193.657C247.566 200.744 248.625 208.075 249.766 215.731L227.404 218.012C226.264 209.867 225.123 202.183 223.983 194.96L206.916 191.417C208.179 183.272 209.645 175.819 211.356 168.366C208.79 168.732 206.142 169.18 203.495 169.628L201.214 149.265C206.549 148.41 211.926 147.595 217.506 146.821C217.71 146.17 217.873 145.518 218.076 144.948L209.93 127.639C214.696 125.439 219.38 123.322 223.942 121.326C219.665 120.552 215.307 119.778 210.908 118.882L214.37 97.7451C229.929 100.026 245.204 102.741 260.193 105.891C274.096 100.46 287.456 95.5051 300.273 91.0251ZM256.609 169.343C256.609 167.144 256.242 164.985 256.038 162.908C249.562 163.478 243.045 164.13 236.569 164.904L235.713 168.325L242.882 167.633C243.049 169.173 243.335 170.698 243.737 172.194C248.014 171.054 252.535 170.198 256.609 169.343ZM236.854 137.861L244.715 139.694C244.28 141.081 243.763 142.441 243.167 143.767C264.565 141.567 286.56 140.332 309.152 140.06C292.86 135.933 276.499 132.119 260.071 128.616L236.854 137.861Z" fill="black"/>
<path opacity="0.42" d="M382.632 92.614C384.413 97.2578 386.665 101.707 389.353 105.891C394.811 105.524 400.228 105.321 405.645 105.321L406.664 114.932C413.222 106.787 419.739 99.2932 426.133 92.7362L439.901 101.493C441.978 101.289 443.974 101.207 446.458 101.207C453.026 101.038 459.517 102.657 465.236 105.891C467.418 107.254 469.236 109.126 470.534 111.346C471.833 113.567 472.572 116.069 472.69 118.639V121.489C472.69 126.458 469.689 132.947 463.688 140.957C457.205 148.949 450.212 156.513 442.752 163.601C449.921 163.601 457.049 163.316 464.095 163.316L465.806 180.34C449.894 180.34 434.524 180.679 419.698 181.358L419.983 184.779C434.606 184.005 448.862 183.557 462.833 183.354L464.666 199.97C450.165 199.97 435.868 200.459 421.734 201.111C421.734 202.536 421.979 203.921 422.142 205.183C437.701 204.613 453.6 204.328 469.838 204.328L471.549 222.207C434.158 222.18 396.454 223.701 358.438 226.769L356.727 209.012C370.657 207.709 384.669 206.813 399.169 206.12C399.169 204.817 398.843 203.554 398.762 202.414C386.271 203.391 373.902 204.627 361.655 206.12L359.945 189.544C372.517 188.078 384.899 186.924 397.092 186.082C397.092 184.861 396.766 183.598 396.644 182.376C383.284 183.15 370.413 184.128 357.989 185.39L356.442 168.203C377.894 166.221 399.318 164.864 420.716 164.131L415.421 159.243C417.824 157.736 420.105 156.148 422.305 154.519L413.547 152.401L418.272 137.332C425.645 138.961 432.202 140.631 438.027 142.382L441.326 139.491C435.787 138.065 430.736 136.844 426.174 135.785L430.247 121.449C437.64 122.727 444.946 124.468 452.12 126.662C452.705 125.51 453.038 124.246 453.098 122.956C453.07 122.11 452.818 121.287 452.367 120.571C451.916 119.856 451.282 119.273 450.532 118.883C448.558 117.811 446.342 117.264 444.096 117.295C438.522 117.708 433.036 118.915 427.803 120.879C422.092 128.366 416.789 136.156 411.918 144.215L393.996 131.63C395.422 129.798 396.807 127.965 398.069 126.051C389.923 126.404 382.198 127.015 374.893 127.884C373.834 131.142 372.979 134.278 372.286 137.332C372.129 139.276 372.524 141.224 373.427 142.953C373.945 143.667 374.646 144.229 375.455 144.58C376.265 144.931 377.154 145.058 378.029 144.948C386.117 144.106 394.116 142.566 401.939 140.346L405.523 159.243C397.083 161.541 388.454 163.082 379.74 163.846H375.056C368.881 164.252 362.782 162.302 357.989 158.388C355.798 156.064 354.11 153.313 353.031 150.306C351.951 147.3 351.504 144.103 351.717 140.916C351.815 137.793 352.196 134.685 352.857 131.63C351.106 131.997 349.436 132.445 347.847 132.893L345.403 112.163C352.369 110.615 359.252 109.394 366.014 108.416C364.774 105.898 363.673 103.315 362.714 100.678L382.632 92.614Z" fill="black"/>
<path opacity="0.42" d="M606.167 163.193L608.326 185.959C596.188 185.959 584.063 186.149 571.952 186.529C572.237 190.602 572.522 194.39 572.808 198.422C586.548 198.123 600.478 197.974 614.598 197.974L617.042 221.025C579.243 221.025 541.227 222.165 502.994 224.446L500.672 201.558C515.227 200.607 530.162 199.847 545.477 199.277C545.205 195.177 544.92 191.308 544.621 187.67C533.542 188.158 522.423 188.783 511.262 189.543L509.103 166.614C515.335 166.125 521.608 165.718 528.003 165.351L515.254 154.029C516.083 153.226 516.859 152.368 517.576 151.463L498.676 157.45C494.705 144.139 491.871 130.514 490.204 116.723L511.832 110.411C512.118 112.325 512.443 114.483 512.851 116.438C522.209 113.577 531.73 111.279 541.363 109.555C540.385 107.356 539.53 105.157 538.756 102.957L562.258 93.1016C563.924 97.5526 566.011 101.835 568.49 105.89C575.659 105.238 583.072 104.79 590.689 104.587C598.68 104.268 606.658 105.485 614.191 108.171C616.903 109.496 619.187 111.56 620.779 114.124C622.371 116.689 623.208 119.651 623.193 122.669C622.593 130.286 620.849 137.769 618.02 144.866L605.8 142.992L608.244 155.577C601.274 157.988 593.986 159.361 586.616 159.649H583.031C576.23 159.946 569.491 158.247 563.643 154.762C561.045 152.947 558.955 150.496 557.572 147.645C556.189 144.793 555.559 141.635 555.741 138.471C555.733 135.491 556.02 132.517 556.596 129.593C551.057 130.57 545.68 131.67 540.304 132.892L553.216 145.354C547.106 151.667 540.996 158.183 534.601 164.985C557.493 163.79 581.348 163.193 606.167 163.193ZM520.223 148.735C524.907 143.685 529.51 138.879 533.99 134.399C528.369 135.824 522.871 137.413 517.698 139.123C518.39 142.3 519.286 145.476 520.223 148.735ZM583.113 126.661C581.691 128.672 580.757 130.987 580.384 133.421C580.165 135.122 580.57 136.843 581.524 138.268C582.064 138.958 582.768 139.502 583.572 139.85C584.376 140.199 585.254 140.341 586.127 140.263C589.351 140.259 592.564 139.876 595.699 139.123C597.345 135.72 598.55 132.12 599.283 128.412C599.283 127.149 594.518 126.538 584.946 126.538C584.333 126.536 583.72 126.577 583.113 126.661V126.661Z" fill="black"/>
<path opacity="0.42" d="M678.466 165.067C676.332 165.342 674.182 165.478 672.03 165.475C669.545 165.475 667.02 165.475 664.454 165.189C665.296 177.489 666.097 190.182 666.857 203.269L645.554 205.428C643.219 167.063 641.115 132.934 639.241 103.04L660.584 100.596C660.584 101.492 660.584 102.348 660.584 103.203C665.896 101.181 671.52 100.106 677.203 100.026C680.367 99.8437 683.526 100.474 686.377 101.857C689.229 103.24 691.68 105.33 693.496 107.927C697.444 114.164 699.43 121.442 699.198 128.82V136.558C699.198 148.41 696.958 156.067 692.477 159.61C688.839 162.188 684.659 163.901 680.258 164.619L691.011 166.9C697.869 165.667 704.817 165 711.784 164.904C717.909 164.85 724.032 165.19 730.113 165.923C735.078 166.56 739.727 168.707 743.432 172.072C744.654 166.33 745.673 160.628 746.447 154.885C741.061 156.839 735.393 157.898 729.665 158.021H724.248C721.223 157.748 718.286 156.859 715.617 155.409C712.949 153.96 710.605 151.98 708.729 149.591C704.312 143.756 702.13 136.532 702.579 129.227C702.703 118.399 704.195 107.63 707.018 97.1753L714.187 98.8858C722.906 95.8388 732.079 94.2963 741.314 94.3244C748.236 94.2146 755.012 96.3115 760.662 100.311C767.152 105.117 770.397 113.52 770.397 125.521V130.327C770.285 139.866 769.564 149.389 768.238 158.836C767.554 166.677 766.191 174.445 764.165 182.05L748.402 178.752C750.421 184.992 751.304 191.544 751.009 198.097V200.948C751.043 204.431 750.108 207.856 748.311 210.84C746.513 213.824 743.922 216.251 740.826 217.849C732.45 222.22 723.049 224.246 713.617 223.714H709.91C694.351 223.714 682.865 220.782 675.533 214.958C672.922 212.536 670.889 209.559 669.584 206.245C668.28 202.932 667.738 199.368 667.998 195.816C668.254 184.736 671.908 174.002 678.466 165.067V165.067ZM662.173 126.254C667.55 125.684 672.926 125.358 678.466 125.236C678.261 123.532 677.721 121.885 676.877 120.39C676.433 119.576 675.771 118.901 674.965 118.441C674.16 117.98 673.242 117.753 672.315 117.783C668.661 118.37 665.151 119.641 661.969 121.53C661.969 123.037 662.051 124.625 662.132 126.254H662.173ZM663.354 147.147L669.057 147.718C671.664 147.87 674.243 147.107 676.348 145.559C677.407 144.989 678.14 143.441 678.506 140.835C673.089 140.835 667.916 141.242 663.069 141.69C663.11 143.441 663.191 145.233 663.313 147.147H663.354ZM711.58 179.729C705.781 180.632 700.168 182.476 694.962 185.186C702.295 185.764 709.578 186.866 716.753 188.485L715.002 203.636C706.757 202.097 698.436 200.995 690.074 200.337C690.675 201.908 691.654 203.307 692.925 204.41C696.387 207.342 702.579 208.849 711.54 208.849C718.926 208.849 723.936 207.749 726.57 205.55C727.911 204.298 728.946 202.754 729.596 201.038C730.246 199.322 730.492 197.48 730.317 195.653C729.91 186.978 727.629 182.173 723.433 181.195C719.555 180.155 715.555 179.634 711.54 179.648L711.58 179.729ZM748.524 134.929C748.524 131.875 748.524 129.309 748.524 127.191C748.524 119.942 747.343 114.973 744.94 112.733C742.501 111.229 739.651 110.531 736.793 110.737C733.028 111.153 729.288 111.779 725.592 112.611C725.144 114.81 724.737 116.684 724.452 118.598C730.915 117.858 737.415 117.478 743.921 117.457L745.795 133.056C738.813 133.041 731.836 133.436 724.9 134.237C726.04 138.024 727.995 139.939 730.765 139.939C737.01 139.652 743.091 137.849 748.483 134.685L748.524 134.929Z" fill="black"/>
</g>
<path d="M299.01 74.2869L307.157 91.4329C302.676 93.2792 298.196 95.1527 293.715 97.0533L315.751 102.755L312.492 123.119H321.372L323.775 143.156C308.704 143.156 293.552 143.604 278.4 144.46C278.4 146.17 278.726 147.84 278.807 149.469C284.062 149.062 289.235 148.899 294.285 148.899C301.215 148.588 308.042 150.658 313.633 154.763C316.075 156.594 318.049 158.976 319.394 161.716C320.739 164.455 321.417 167.473 321.372 170.525C321.06 180.47 319.695 190.354 317.299 200.011L294.367 195.938C296.927 190.203 298.311 184.013 298.44 177.733C298.44 172.602 293.349 170.036 283.247 170.036C282.384 170.03 281.522 170.126 280.681 170.321C281.55 180.72 282.446 191.581 283.369 202.903L259.908 205.183C258.93 193.916 258.021 183.367 257.179 173.539C253.195 174.357 249.275 175.46 245.448 176.837C246.385 183.883 247.444 191.255 248.585 198.871L226.264 201.151C225.123 193.006 223.942 185.39 222.802 178.1L205.613 174.272C206.889 166.316 208.369 158.633 210.053 151.22C207.486 151.587 204.88 151.994 202.191 152.483L199.91 132.119C205.246 131.264 210.623 130.449 216.203 129.716C216.407 129.024 216.57 128.413 216.773 127.843L208.627 110.534C213.393 108.335 218.077 106.217 222.639 104.221L209.605 101.778L213.189 80.7217C228.748 83.0432 244.023 85.7312 259.012 88.8671C272.779 83.6269 286.112 78.7668 299.01 74.2869ZM255.305 152.605C255.305 150.406 254.939 148.247 254.735 146.129C248.259 146.74 241.782 147.392 235.265 148.166L234.41 151.587L241.579 150.691C241.781 152.239 242.067 153.775 242.434 155.293C246.711 154.397 251.029 153.46 255.305 152.605ZM235.551 121.082L243.452 122.956C242.964 124.3 242.434 125.562 241.864 126.825C263.234 124.625 285.243 123.376 307.89 123.078C291.434 119.005 275.06 115.19 258.768 111.634C251.11 114.81 243.371 117.96 235.551 121.082V121.082Z" fill="white"/>
<path d="M381.329 75.8342C383.125 80.4452 385.376 84.8656 388.049 89.0298C393.507 88.6225 398.966 88.4596 404.342 88.4596L405.36 98.0304C411.918 89.885 418.435 82.432 424.83 75.8342L438.72 84.7127C440.797 84.7127 442.793 84.4276 445.318 84.4276C451.821 84.2832 458.246 85.8716 463.932 89.0298C466.12 90.3962 467.942 92.2746 469.24 94.5027C470.539 96.7308 471.275 99.2416 471.386 101.818V104.669C471.386 109.638 468.413 116.113 462.385 124.136C455.899 132.062 448.92 139.57 441.489 146.618C448.617 146.414 455.745 146.292 462.792 146.292L464.543 163.357C448.577 163.357 433.207 163.682 418.435 164.334L418.72 167.796C433.302 167.022 447.599 166.533 461.529 166.37L463.403 182.946C448.862 182.946 434.565 183.435 420.431 184.127C420.431 185.553 420.675 186.937 420.838 188.2C436.398 187.589 452.324 187.304 468.535 187.304L470.246 205.224C432.936 205.224 395.273 206.744 357.256 209.785L355.546 192.028C369.313 190.807 383.365 189.87 397.784 189.177C397.784 187.833 397.458 186.612 397.377 185.471C384.872 186.408 372.49 187.671 360.271 189.177L358.438 172.764C371.024 171.461 383.447 170.28 395.666 169.343C395.666 168.122 395.34 166.859 395.259 165.637C381.858 166.37 368.987 167.389 356.564 168.61L355.016 151.464C376.495 149.428 397.92 148.07 419.291 147.392L413.995 142.504C416.399 140.997 418.68 139.409 420.879 137.78L412.122 135.621L416.847 120.593C424.233 122.222 430.831 123.892 436.642 125.603C437.783 124.544 438.882 123.607 439.901 122.752C434.402 121.326 429.311 120.064 424.749 119.005L428.822 104.71C436.234 105.993 443.555 107.762 450.735 110.004C451.315 108.85 451.648 107.588 451.713 106.298C451.698 105.45 451.451 104.621 450.999 103.903C450.547 103.185 449.906 102.605 449.147 102.225C447.173 101.154 444.957 100.607 442.711 100.637C437.135 101.031 431.646 102.238 426.419 104.221C420.708 111.708 415.405 119.499 410.533 127.558L392.611 114.973C394.023 113.127 395.381 111.253 396.685 109.353C388.538 109.76 380.962 110.371 373.508 111.226C372.449 114.484 371.594 117.62 370.901 120.675C370.806 122.635 371.302 124.58 372.327 126.254C372.826 126.979 373.518 127.549 374.324 127.902C375.13 128.254 376.018 128.375 376.889 128.25C384.977 127.429 392.977 125.903 400.798 123.688L404.383 142.545C396.001 144.77 387.443 146.268 378.803 147.025H373.753C367.578 147.432 361.479 145.482 356.686 141.568C354.479 139.249 352.772 136.502 351.672 133.496C350.572 130.491 350.102 127.291 350.291 124.096C350.384 120.972 350.766 117.863 351.432 114.81C349.721 115.177 348.051 115.584 346.422 116.073L343.978 95.3017C350.943 93.7948 357.827 92.5323 364.588 91.5956C363.349 89.0779 362.247 86.4947 361.289 83.8574L381.329 75.8342Z" fill="white"/>
<path d="M604.864 146.618L607.022 169.384C594.884 169.384 582.76 169.588 570.649 169.995C570.921 173.905 571.206 177.856 571.504 181.847C585.231 181.562 599.202 181.44 613.295 181.44L615.739 204.491C577.94 204.491 539.924 205.631 501.69 207.912L499.369 185.024C513.896 184.046 528.831 183.272 544.174 182.702C543.888 178.629 543.603 174.557 543.318 171.136C532.239 171.584 521.119 172.235 509.959 172.968L507.8 150.08C514.032 149.591 520.305 149.184 526.7 148.777L513.991 137.454C514.797 136.64 515.558 135.784 516.272 134.889L497.373 140.916C493.419 127.6 490.585 113.977 488.901 100.189L510.774 93.6729C511.059 95.5871 511.385 97.7456 511.792 99.6598C521.151 96.8129 530.672 94.5281 540.304 92.8177C539.367 90.6184 538.471 88.4192 537.738 86.2199L561.199 76.3232C562.736 80.8049 564.7 85.1283 567.065 89.2337C574.233 88.5413 581.647 88.1341 589.263 87.9304C597.256 87.5875 605.239 88.8048 612.766 91.5144C615.516 92.7863 617.848 94.8124 619.492 97.3574C621.136 99.9023 622.024 102.862 622.052 105.891C621.476 113.498 619.731 120.971 616.879 128.047L604.66 126.214L607.104 138.798C600.133 141.21 592.846 142.582 585.475 142.871H581.891C575.069 143.174 568.305 141.491 562.421 138.025C559.823 136.209 557.733 133.759 556.35 130.907C554.967 128.056 554.337 124.898 554.519 121.734C554.525 118.752 554.825 115.778 555.415 112.855C549.876 113.792 544.459 114.892 539.123 116.154L552.035 128.617C545.925 134.889 539.815 141.446 533.42 148.206C556.23 147.148 580.044 146.618 604.864 146.618ZM518.961 131.956C523.604 126.906 528.207 122.141 532.687 117.661C527.066 119.087 521.567 120.675 516.395 122.385C517.291 125.521 517.983 128.739 518.961 131.956ZM581.81 109.964C580.383 111.957 579.448 114.26 579.08 116.684C578.884 118.396 579.287 120.123 580.221 121.571C580.761 122.261 581.465 122.805 582.269 123.153C583.073 123.502 583.951 123.644 584.824 123.567C588.048 123.565 591.261 123.182 594.396 122.426C596.067 119.019 597.273 115.403 597.98 111.674C597.98 110.452 593.214 109.801 583.683 109.801C583.055 109.809 582.429 109.864 581.81 109.964Z" fill="white"/>
<path d="M677.162 148.288C675.029 148.576 672.879 148.726 670.727 148.736C668.242 148.736 665.717 148.736 663.151 148.451C663.992 160.751 664.807 173.444 665.595 186.531L644.251 188.689C641.97 150.297 639.866 116.168 637.938 86.3016L659.281 83.858C659.281 84.7269 659.281 85.5821 659.281 86.4238C664.6 84.4336 670.221 83.3728 675.9 83.2878C679.06 83.1048 682.214 83.7306 685.065 85.1059C687.916 86.4813 690.369 88.5609 692.192 91.1481C696.131 97.4066 698.129 104.69 697.935 112.082V119.82C697.935 131.631 695.682 139.315 691.174 142.871C687.534 145.447 683.355 147.16 678.955 147.881L689.667 150.162C696.522 148.909 703.472 148.241 710.44 148.166C716.564 148.119 722.685 148.446 728.769 149.143C733.734 149.781 738.383 151.928 742.088 155.293C743.31 149.591 744.329 143.849 745.103 138.147C739.717 140.1 734.049 141.159 728.321 141.283H722.904C719.811 141.061 716.798 140.193 714.062 138.733C711.326 137.274 708.926 135.257 707.019 132.812C702.601 127.053 700.403 119.897 700.827 112.652C700.952 101.81 702.443 91.0275 705.267 80.5591L712.436 82.2697C721.336 79.0734 730.717 77.4205 740.174 77.3824C747.1 77.2844 753.877 79.3958 759.522 83.41C765.998 88.1751 769.256 96.6056 769.256 108.62V113.344C769.144 122.884 768.423 132.406 767.098 141.853C766.414 149.695 765.051 157.462 763.024 165.068L747.302 161.769C749.285 168.003 750.154 174.538 749.868 181.073V183.965C749.918 187.446 748.99 190.872 747.19 193.853C745.39 196.833 742.79 199.249 739.685 200.826C731.321 205.23 721.914 207.272 712.477 206.731H708.729C693.17 206.731 681.711 203.813 674.352 197.975C671.776 195.601 669.757 192.687 668.44 189.441C667.123 186.195 666.541 182.697 666.735 179.2C666.959 168.071 670.599 157.28 677.162 148.288V148.288ZM660.87 109.475C666.206 108.905 671.582 108.579 677.162 108.498C676.968 106.778 676.428 105.116 675.574 103.611C675.12 102.807 674.455 102.143 673.651 101.691C672.847 101.238 671.934 101.015 671.012 101.045C667.37 101.603 663.87 102.861 660.707 104.751C660.666 106.299 660.748 107.887 660.87 109.475V109.475ZM662.01 130.409C664.088 130.409 666.083 130.776 667.713 130.979C670.33 131.108 672.914 130.347 675.044 128.821C676.063 128.25 676.796 126.662 677.162 124.096C671.745 124.096 666.572 124.463 661.725 124.952C661.807 126.662 661.888 128.495 662.01 130.328V130.409ZM710.236 162.991C704.449 163.868 698.847 165.698 693.659 168.407C700.978 168.988 708.247 170.09 715.409 171.706L713.699 187.02C705.45 185.514 697.13 184.426 688.771 183.761C689.372 185.333 690.351 186.732 691.622 187.834C695.084 190.807 701.275 192.273 710.236 192.273C717.609 192.273 722.456 191.214 725.307 189.015C726.63 187.765 727.656 186.234 728.312 184.536C728.967 182.838 729.235 181.015 729.095 179.2C728.729 170.525 726.407 165.679 722.211 164.742C718.32 163.598 714.292 162.982 710.236 162.909V162.991ZM747.221 118.191C747.221 115.136 747.221 112.571 747.221 110.453C747.221 103.203 746.039 98.2346 743.636 95.9947C741.2 94.4856 738.348 93.787 735.49 93.999C731.738 94.4006 728.012 95.0125 724.33 95.8318C723.841 98.031 723.433 99.9045 723.148 101.859C729.624 101.099 736.139 100.718 742.659 100.719L744.492 116.317C737.511 116.312 730.535 116.692 723.596 117.458C724.737 121.286 726.692 123.2 729.462 123.2C735.705 122.959 741.798 121.212 747.221 118.109V118.191Z" fill="white"/>
</g>
<defs>
<clipPath id="clip0_52_86">
<rect width="971" height="1219" fill="white"/>
</clipPath>
</defs>
</svg>
