<svg width="971" height="1219" viewBox="0 0 971 1219" fill="none" xmlns="http://www.w3.org/2000/svg">
<g clip-path="url(#clip0_52_2)">
<path d="M792.84 884.591L971 853.394V185.715L822.981 166.655L971 150.934V66.0592C971 48.5392 964.039 31.7368 951.649 19.3483C939.26 6.95979 922.455 0 904.933 0L66.0666 0C48.5447 0 31.7404 6.95979 19.3505 19.3483C6.96057 31.7368 0 48.5392 0 66.0592L0 584.025L125.861 610.905L0 613.837V1152.94C0 1170.46 6.96057 1187.26 19.3505 1199.65C31.7404 1212.04 48.5447 1219 66.0666 1219H93.6826L158.161 1100.61L126.064 1219H904.933C922.455 1219 939.26 1212.04 951.649 1199.65C964.039 1187.26 971 1170.46 971 1152.94V895.342L792.84 884.591Z" fill="#51331F"/>
<path d="M797.443 864.024L971 833.56V181.398L826.851 162.908L971.041 147.554V64.5524C971.057 56.0845 969.404 47.6964 966.175 39.868C962.946 32.0395 958.206 24.9242 952.225 18.9288C946.244 12.9335 939.14 8.17588 931.319 4.92793C923.498 1.67998 915.113 0.00545334 906.644 0.000115883H89.6096C81.1251 -0.0159684 72.7208 1.64245 64.8786 4.88031C57.0363 8.11817 49.9102 12.8718 43.9089 18.8687C37.9075 24.8656 33.1488 31.9879 29.9057 39.8272C26.6625 47.6666 24.9986 56.0688 25.0093 64.5524V570.423L147.652 596.732L25.0093 599.542V1126.14C24.9986 1134.63 26.6625 1143.03 29.9057 1150.87C33.1488 1158.71 37.9075 1165.83 43.9089 1171.83C49.9102 1177.82 57.0363 1182.58 64.8786 1185.81C72.7208 1189.05 81.1251 1190.71 89.6096 1190.69H116.33L178.975 1075.19L147.652 1190.9H906.644C915.11 1190.89 923.49 1189.21 931.307 1185.96C939.123 1182.71 946.222 1177.95 952.199 1171.96C958.176 1165.96 962.912 1158.85 966.138 1151.02C969.364 1143.2 971.016 1134.81 971 1126.35V874.531L797.443 864.024Z" fill="#83593D"/>
<path opacity="0.32" d="M967.212 134.887C865.737 143.777 763.821 146.579 662.01 143.277C492.282 137.616 408.864 117.375 237.343 120.226C166.358 121.406 95.4829 126.3 25.0093 134.887V88.8251C68.9179 85.7298 139.954 81.6164 227.73 81.2091C412.611 80.2724 497.536 96.4003 665.31 99.2919C766.056 100.944 866.822 97.4505 967.212 88.8251V134.887Z" fill="#291100"/>
<path opacity="0.19" d="M967.212 497.236C865.737 506.126 763.821 508.927 662.01 505.626C492.282 499.965 408.864 479.723 237.343 482.574C166.358 483.754 95.4829 488.648 25.0093 497.236V451.174C68.9179 448.078 139.954 443.965 227.73 443.558C412.611 442.621 497.536 458.749 665.31 461.641C766.056 463.293 866.822 459.799 967.212 451.174V497.236Z" fill="#050000"/>
<path opacity="0.19" d="M969.126 715.044C867.65 723.912 765.735 726.713 663.925 723.434C494.237 717.773 410.778 697.491 239.298 700.382C168.313 701.561 97.4377 706.455 26.9642 715.044V668.982C70.8321 665.846 141.909 661.773 229.685 661.325C414.566 660.429 499.491 676.557 667.265 679.449C768.011 681.101 868.777 677.607 969.167 668.982L969.126 715.044Z" fill="white"/>
<path opacity="0.06" d="M969.126 1070.31C867.651 1079.19 765.735 1082 663.925 1078.7C494.237 1073.03 410.778 1052.79 239.298 1055.64C168.313 1056.82 97.4377 1061.72 26.9642 1070.31V1024.24C70.8321 1021.15 141.909 1017.03 229.685 1016.63C414.566 1015.69 499.491 1031.82 667.265 1034.71C768.011 1036.36 868.777 1032.87 969.167 1024.24L969.126 1070.31Z" fill="white"/>
<path opacity="0.19" d="M967.212 316.082C865.731 324.874 763.816 327.594 662.01 324.227C492.282 318.81 408.864 298.528 237.343 301.379C166.358 302.56 95.4829 307.454 25.0093 316.041V270.02C68.9179 266.884 139.954 262.811 227.73 262.363C412.611 261.426 497.536 277.595 665.31 280.486C766.056 282.138 866.822 278.645 967.212 270.02V316.082Z" fill="#4F3324"/>
<path opacity="0.19" d="M969.126 955.862C867.651 964.751 765.735 967.552 663.925 964.252C494.237 958.591 410.778 938.35 239.298 941.201C168.313 942.379 97.4377 947.273 26.9642 955.862V909.8C70.8321 906.664 141.909 902.591 229.685 902.143C414.566 901.247 499.491 917.375 667.265 920.267C768.011 921.919 868.777 918.425 969.167 909.8L969.126 955.862Z" fill="#050000"/>
<path opacity="0.19" d="M598.754 835.473C537.21 844.324 474.945 847.121 412.855 843.822C309.478 838.161 258.686 817.92 154.21 820.812C110.762 821.997 67.4967 826.903 24.887 835.473V789.371C65.9187 784.701 107.171 782.227 148.467 781.958C261.089 781.021 312.818 797.149 415.014 800.041C476.452 801.656 537.916 798.086 598.754 789.371V835.473Z" fill="#4F3324"/>
<path opacity="0.19" d="M967.212 597.751C899.715 606.646 831.554 609.454 763.554 606.14C650.442 600.479 594.844 580.238 480.51 583.13C433.021 584.319 385.697 589.208 338.968 597.751V551.688C368.213 548.593 415.584 544.48 474.075 544.072C597.328 543.136 653.945 559.264 765.753 562.155C833.008 563.846 900.292 560.347 967.008 551.688L967.212 597.751Z" fill="#2C1400"/>
<path d="M795.406 330.825H193.067C168.412 330.825 148.426 350.81 148.426 375.462V732.068C148.426 756.72 168.412 776.704 193.067 776.704H795.406C820.061 776.704 840.048 756.72 840.048 732.068V375.462C840.048 350.81 820.061 330.825 795.406 330.825Z" fill="#F0C7A3"/>
<path d="M358.112 399.654C362.041 400.235 365.868 401.373 369.476 403.035L366.625 412.768C362.935 411.202 359.12 409.949 355.22 409.021L358.112 399.654ZM400.065 379.291C403.143 379.116 406.214 379.733 408.986 381.083C410.143 381.572 411.123 382.405 411.793 383.468C412.463 384.531 412.791 385.774 412.733 387.029C412.743 388.034 412.52 389.027 412.081 389.931C411.643 390.836 411.002 391.626 410.208 392.242L408.701 393.26L412.163 393.627L411.633 400.998C412.632 401.618 413.573 402.327 414.444 403.116C417.65 406.533 419.416 411.056 419.372 415.741V418.796C418.846 425.01 417.672 431.153 415.869 437.123L404.79 435.209C406.828 429.696 407.983 423.895 408.212 418.022C408.581 414.983 407.796 411.917 406.012 409.429C404.052 407.935 401.632 407.172 399.169 407.27V407.27C399.169 408.818 399.577 410.447 399.74 412.076L406.053 412.646L405.564 419.855L400.391 419.488C400.391 420.14 400.391 420.751 400.636 421.362L405.361 421.81L404.79 429.018L401.491 428.815C401.491 429.996 401.776 431.218 401.898 432.48L397.825 432.887L399.414 440.748C392.773 442.548 385.929 443.492 379.048 443.558H376.115C371.219 443.714 366.365 442.606 362.022 440.341C360.013 439.158 358.359 437.456 357.233 435.413C356.108 433.371 355.553 431.064 355.627 428.733C355.794 423.402 356.968 418.151 359.089 413.257L370.535 415.782C368.454 419.076 367.248 422.847 367.032 426.738C366.96 427.799 367.166 428.861 367.631 429.818C368.095 430.775 368.801 431.595 369.68 432.195C370.924 432.933 372.314 433.392 373.753 433.539C372.422 422.679 371.227 411.818 370.168 400.957L381.614 399.736V401.039C384.139 400.347 386.705 399.817 389.272 399.369L381.125 398.677L382.062 390.979L393.467 391.794C396.108 391.037 398.694 390.098 401.206 388.984C401.695 388.739 401.898 388.536 401.898 388.414C401.898 388.291 400.921 387.843 398.966 387.843C390.836 388.245 382.782 389.612 374.975 391.916L372.612 383.323C381.559 380.831 390.781 379.463 400.065 379.25V379.291ZM359.741 385.929C363.955 386.512 368.067 387.678 371.961 389.391L369.028 399.41C365.163 397.76 361.135 396.518 357.012 395.704L359.741 385.929ZM388.253 411.424C388.253 410.528 388.253 409.632 387.968 408.777C386.095 409.184 384.302 409.632 382.551 410.162V411.139L388.253 411.424ZM389.394 420.669C389.394 420.099 389.394 419.488 389.394 418.877L383.61 418.429C383.61 419.122 383.61 419.733 383.61 420.303C385.687 420.384 387.602 420.466 389.516 420.629L389.394 420.669ZM385.035 433.539C386.909 433.539 388.824 433.01 390.779 432.643L390.208 428.041C388.253 428.041 386.135 428.041 384.384 427.674C384.75 429.548 384.954 431.706 385.158 433.498L385.035 433.539Z" fill="black"/>
<path d="M436.765 381.53C436.807 381.8 436.807 382.075 436.765 382.345C439.874 381.509 443.077 381.071 446.296 381.042C447.917 380.919 449.545 381.188 451.04 381.826C452.536 382.464 453.857 383.452 454.89 384.707C456.9 387.658 457.952 391.156 457.904 394.726V398.432C457.904 404.052 456.764 407.759 454.524 409.469L452.243 410.691C454.01 411.546 455.631 412.673 457.049 414.031C458.824 415.779 459.958 418.075 460.267 420.547C460.281 420.973 460.197 421.398 460.02 421.786C459.844 422.175 459.579 422.517 459.249 422.787C459.834 423.569 460.3 424.434 460.633 425.353V425.719C461.089 424.548 461.691 423.44 462.426 422.42C462.024 422.092 461.704 421.674 461.492 421.2C461.28 420.727 461.181 420.21 461.204 419.692C461.489 417.185 462.509 414.818 464.136 412.89C465.317 411.666 466.694 410.648 468.21 409.876C466.165 409.157 464.341 407.923 462.914 406.292C460.936 403.507 459.959 400.133 460.145 396.722C460.239 390.766 461.298 384.866 463.281 379.25L468.21 380.553C471.811 379.302 475.598 378.669 479.411 378.68C481.428 378.583 483.441 378.941 485.301 379.726C487.161 380.512 488.821 381.705 490.158 383.218C491.496 384.731 492.476 386.525 493.027 388.467C493.577 390.41 493.685 392.451 493.341 394.441V396.925C493.28 401.753 492.775 406.566 491.834 411.302C491.336 415.377 490.281 419.365 488.698 423.153L479.248 421.117C480.658 417.141 481.735 413.054 482.466 408.899C479.289 409.743 476.018 410.181 472.731 410.202H471.875C473.401 410.928 474.859 411.786 476.234 412.768C477.969 414.083 479.147 416.002 479.533 418.144C479.596 418.8 479.5 419.461 479.251 420.071C479.003 420.681 478.61 421.221 478.107 421.646C478.921 422.403 479.645 423.25 480.266 424.172C480.908 425.127 481.274 426.24 481.325 427.389C481.334 427.964 481.201 428.532 480.938 429.044C480.675 429.555 480.291 429.994 479.818 430.321C480.708 431.879 481.224 433.621 481.325 435.412C481.405 436.361 481.273 437.316 480.936 438.207C480.6 439.098 480.069 439.903 479.382 440.563C478.695 441.223 477.869 441.72 476.965 442.02C476.061 442.32 475.101 442.414 474.156 442.295H473.382H472.079L472.446 444.657L464.055 445.513C463.322 440.707 462.629 435.86 462.059 431.054C461.632 430.839 461.246 430.549 460.919 430.199C460.434 430.865 459.79 431.397 459.045 431.747C459.86 435.82 460.796 440.137 461.855 444.657L453.709 445.513C453.424 444.25 453.139 443.069 452.854 441.929C452.039 441.929 451.265 441.929 450.573 441.929C448.026 442.134 445.475 441.581 443.241 440.34C442.589 439.879 442.056 439.269 441.688 438.561C441.32 437.852 441.126 437.066 441.123 436.268C441.162 434.646 441.581 433.056 442.345 431.625C441.896 431.371 441.522 431.004 441.257 430.561C440.993 430.119 440.849 429.615 440.838 429.1C440.838 428.774 440.838 428.407 440.838 427.959L430.981 429.1C429.46 411.831 428.048 396.409 426.745 382.834L436.765 381.53ZM437.946 393.423C441.227 392.803 444.548 392.422 447.884 392.282C447.779 391.466 447.486 390.686 447.029 390.002C446.684 389.572 446.242 389.23 445.739 389.004C445.237 388.777 444.688 388.673 444.137 388.698C441.918 388.944 439.741 389.478 437.661 390.287C437.742 391.264 437.824 392.323 437.946 393.423V393.423ZM438.924 404.093C440.471 404.093 441.856 404.419 442.997 404.5C444.444 404.587 445.878 404.185 447.07 403.36C447.64 402.994 448.007 401.975 448.21 400.306C445.011 400.419 441.825 400.773 438.679 401.364L438.924 404.093ZM441.082 427.43C441.546 425.997 442.19 424.629 442.997 423.357C442.67 423.008 442.415 422.599 442.248 422.151C442.08 421.704 442.002 421.228 442.019 420.75C442.296 418.19 443.348 415.775 445.033 413.827C445.512 413.259 446.059 412.753 446.663 412.32H444.3C442.793 412.32 441.204 412.32 439.657 412.32C440.105 417.044 440.594 422.176 441.082 427.633V427.43ZM449.229 419.04C452.324 419.04 453.872 419.04 453.872 418.47C453.79 417.717 453.415 417.026 452.828 416.546C452.242 416.066 451.49 415.835 450.736 415.904C449.025 416.189 448.129 417.044 448.129 418.47C448.373 418.877 448.699 419.04 449.392 419.04H449.229ZM449.636 424.416C449.086 425.052 448.658 425.784 448.373 426.574C448.381 426.767 448.448 426.952 448.564 427.105C448.681 427.258 448.842 427.371 449.025 427.43C449.687 427.526 450.359 427.526 451.021 427.43C451.732 427.473 452.444 427.347 453.098 427.063C453.245 427.018 453.372 426.926 453.461 426.801C453.549 426.675 453.594 426.524 453.587 426.371C453.44 425.59 453.12 424.852 452.65 424.212H449.636V424.416ZM451.51 436.227C451.51 435.249 451.143 434.19 450.939 433.172H450.288H449.31C449.041 433.622 448.823 434.1 448.658 434.598C448.638 434.844 448.671 435.091 448.756 435.323C448.84 435.555 448.973 435.766 449.147 435.942C449.6 436.288 450.168 436.448 450.736 436.39L451.51 436.227ZM468.78 418.185C471.794 418.185 473.26 418.185 473.26 417.696C472.934 416.108 471.794 415.334 469.839 415.334C467.884 415.334 467.558 416.311 467.558 417.696C467.748 418.022 468.21 418.185 468.943 418.185H468.78ZM469.106 423.642C468.61 424.135 468.209 424.714 467.924 425.353C467.904 425.639 467.966 425.926 468.103 426.178C468.24 426.431 468.447 426.639 468.698 426.778C469.444 427.091 470.255 427.217 471.061 427.145C471.427 427.184 471.798 427.138 472.144 427.011C472.49 426.884 472.802 426.679 473.057 426.412C473.24 426.243 473.38 426.033 473.466 425.799C473.551 425.565 473.578 425.314 473.545 425.068C473.545 424.742 473.179 424.212 472.405 423.561H471.142L469.106 423.642ZM483.728 400.02C483.728 398.188 483.728 396.681 483.728 395.5C483.888 394.173 483.776 392.828 483.398 391.546C483.019 390.265 482.383 389.074 481.529 388.047C480.265 387.315 478.834 386.922 477.374 386.906C474.979 387.223 472.611 387.713 470.287 388.373C470.287 389.309 469.92 390.165 469.798 390.979C473.179 390.694 476.478 390.531 479.737 390.531L480.673 398.351C476.845 398.351 473.26 398.351 469.92 398.758C470.45 400.794 471.55 401.772 473.138 401.772C476.791 401.748 480.419 401.157 483.891 400.02H483.728ZM470.613 432.602C470.869 433.703 471.059 434.818 471.183 435.942H472.486C473.22 435.942 473.545 435.453 473.545 434.435C473.479 433.688 473.164 432.985 472.649 432.439H471.346L470.613 432.602Z" fill="black"/>
<path d="M513.747 416.027L505.886 413.379C507.922 409.307 509.959 405.641 511.548 402.302L503.401 404.827C501.711 399.277 500.485 393.596 499.735 387.843L509.185 384.993C509.272 386.073 509.421 387.147 509.633 388.21C515.005 386.834 520.442 385.733 525.926 384.911C525.463 383.902 525.055 382.869 524.704 381.816L535.661 377.743C536.401 379.861 537.414 381.874 538.675 383.73C542.381 383.445 546.251 383.241 550.283 383.16C554.236 383.005 558.183 383.571 561.933 384.83C563.28 385.406 564.434 386.357 565.257 387.57C566.081 388.783 566.538 390.207 566.576 391.672C566.367 395.299 565.696 398.885 564.58 402.342L553.705 400.835C554.476 398.721 555.049 396.54 555.416 394.319C555.416 393.016 552.849 392.323 547.758 392.323C544.296 392.323 540.874 392.771 537.534 393.097C538.637 394.064 539.621 395.158 540.467 396.355L537.168 399.614C539.897 397.862 542.626 396.152 545.314 394.563L552.972 399.776C547.31 403.36 541.811 407.026 536.679 410.814C541.14 410.157 545.56 409.246 549.917 408.085L551.424 416.23C545.467 418.041 539.312 419.122 533.095 419.448C530.738 419.499 528.388 419.183 526.13 418.511C523.93 420.181 522.056 421.891 519.857 423.602L525.274 424.824C524.134 426.556 523.384 428.515 523.075 430.566C523.017 431.469 523.312 432.36 523.896 433.051C524.481 433.742 525.311 434.179 526.211 434.272C528.385 434.714 530.592 434.973 532.809 435.046C532.117 430.2 531.547 425.72 531.017 421.688L542.544 420.588L544.377 434.924C546.41 434.677 548.382 434.071 550.202 433.132C550.86 432.859 551.416 432.386 551.789 431.779C552.162 431.171 552.333 430.462 552.279 429.752C552.04 426.117 550.737 422.633 548.532 419.733L560.018 417.167C562.51 422.146 563.781 427.646 563.725 433.213C563.853 434.582 563.632 435.961 563.084 437.221C562.536 438.481 561.677 439.583 560.588 440.422C558.141 442.039 555.353 443.07 552.442 443.436C548.416 444.223 544.325 444.632 540.223 444.658H535.335C529.331 444.906 523.32 444.372 517.454 443.069C515.706 442.666 514.16 441.654 513.092 440.213C512.024 438.772 511.506 436.998 511.629 435.209C511.634 433.6 511.757 431.994 511.996 430.403L509.837 432.358L501.243 426.33C505.438 422.706 509.592 419.488 513.747 416.027ZM521.038 396.518L530.488 398.514C529.738 400.629 529.193 402.811 528.859 405.03C530.786 403.7 532.701 402.437 534.602 401.243C532.679 399.232 530.609 397.367 528.41 395.663L530.08 393.912C523.838 394.814 517.651 396.065 511.548 397.659C511.548 398.636 512.036 399.614 512.322 400.591L513.258 398.799L519.775 400.958C520.142 399.369 520.59 397.903 521.038 396.518ZM519.042 408.085C517.942 410.203 516.883 412.157 515.906 414.397L519.327 411.832C519.327 411.262 519.205 410.61 518.961 409.877C518.961 409.266 519.002 408.655 519.042 408.085ZM556.189 402.22C559.534 404.089 562.481 406.593 564.865 409.592L559.081 415.416C556.538 412.775 553.816 410.312 550.935 408.044L556.189 402.22Z" fill="black"/>
<path d="M590.608 378.761C591.475 381.829 592.706 384.782 594.274 387.558C596.826 387.558 599.392 387.558 601.972 387.558L602.909 397.211C593.608 397.153 584.318 397.848 575.13 399.288L574.315 389.35C577.044 388.902 579.732 388.576 582.461 388.332C581.769 386.662 581.076 384.911 580.466 383.038L590.608 378.761ZM578.388 420.344L583.235 421.362C585.022 420.918 586.853 420.672 588.693 420.629C590.793 420.618 592.89 420.768 594.966 421.077C596.786 421.373 598.452 422.277 599.691 423.642C601.279 424.783 602.053 428.163 602.053 433.824V434.965C602.091 436.319 601.791 437.661 601.179 438.87C600.568 440.079 599.664 441.116 598.55 441.888C595.788 443.731 592.497 444.618 589.182 444.413H588.042C584.015 444.745 580.008 443.57 576.8 441.114C575.906 440.118 575.221 438.952 574.788 437.685C574.354 436.419 574.179 435.078 574.274 433.743C574.36 428.953 575.785 424.284 578.388 420.262V420.344ZM598.754 409.388L599.691 418.063C592.01 418.03 584.336 418.506 576.718 419.488L575.904 410.895C583.479 409.885 591.111 409.354 598.754 409.306V409.388ZM598.754 399.451L599.691 407.596C592.7 407.562 585.717 408.038 578.796 409.021L577.94 400.876C584.839 399.932 591.791 399.428 598.754 399.369V399.451ZM587.797 435.779C588.849 435.885 589.9 435.579 590.73 434.924C591.318 434.205 591.596 433.282 591.504 432.358C591.504 430.607 591.015 429.67 590.363 429.466C589.709 429.306 589.041 429.21 588.367 429.181C587.153 429.412 586 429.898 584.987 430.607C584.987 431.014 584.987 431.381 584.987 431.747C584.91 432.78 585.092 433.816 585.516 434.761C585.776 435.114 586.122 435.393 586.522 435.572C586.922 435.75 587.361 435.822 587.797 435.779ZM606.126 379.576C617.979 380.35 629.466 381.408 640.463 382.793L639.486 392.486C634.883 391.957 630.321 391.509 625.881 391.061C625.713 391.736 625.51 392.403 625.27 393.056C628.31 393.042 631.305 393.784 633.987 395.215C635.067 396.037 635.945 397.096 636.553 398.31C637.16 399.525 637.48 400.862 637.49 402.22V403.645C637.324 406.018 636.97 408.374 636.431 410.691L640.911 411.098L640.056 421.117L601.035 418.185L602.542 408.533L608.489 408.818C608.978 406.944 609.466 405.152 609.996 403.442C608.587 403.737 607.219 404.202 605.923 404.827L603.031 396.233C606.227 395.168 609.512 394.391 612.847 393.912L614.069 389.839C610.811 389.472 607.593 389.187 604.416 388.902L606.126 379.576ZM607.267 420.588L610.485 421.402C613.963 420.871 617.475 420.599 620.993 420.588C625.988 420.127 631.007 421.162 635.412 423.561C636.567 424.448 637.471 425.621 638.035 426.963C638.6 428.306 638.804 429.772 638.63 431.218V432.521C638.842 434.252 638.706 436.009 638.23 437.687C637.755 439.366 636.949 440.932 635.86 442.295C634.028 444.169 629.181 445.106 621.238 445.106H616.269C612.541 445.471 608.807 444.473 605.76 442.295C603.863 439.619 602.969 436.36 603.235 433.091C603.303 428.602 604.707 424.235 607.267 420.547V420.588ZM622.134 429.181C619.515 429.2 616.915 429.64 614.436 430.485C614.455 430.606 614.455 430.73 614.436 430.851C614.264 432.247 614.505 433.663 615.128 434.924C615.539 435.476 616.084 435.915 616.71 436.2C617.337 436.485 618.026 436.606 618.712 436.553H620.423C622.514 436.676 624.605 436.314 626.533 435.494C626.971 435.023 627.299 434.461 627.496 433.849C627.694 433.237 627.754 432.589 627.673 431.951C627.711 431.52 627.614 431.089 627.395 430.717C627.175 430.345 626.846 430.05 626.451 429.874C625.066 429.379 623.605 429.131 622.134 429.141V429.181ZM620.301 409.51L625.23 409.795C625.69 408.397 625.977 406.947 626.085 405.478C626.181 404.391 625.955 403.301 625.433 402.342C624.727 401.863 623.881 401.634 623.03 401.691H622.582C621.808 404.216 621.034 406.822 620.301 409.469V409.51Z" fill="black"/>
<g opacity="0.4">
<path opacity="0.4" d="M266.14 94.8535L269.114 101.573C289.786 105.784 310.188 111.224 330.211 117.864L323.898 138.92C305.285 132.685 286.36 127.424 267.199 123.159C268.625 125.847 270.132 128.535 271.761 131.304H280.519C292.521 131.304 301.4 133.924 307.157 139.164C312.588 143.943 315.304 151.722 315.304 162.501C315.304 173.28 312.914 180.339 308.135 183.679C306.09 185.23 303.825 186.465 301.414 187.345C304.116 189.997 305.895 193.447 306.489 197.186C307.083 200.925 306.461 204.756 304.713 208.115C311.882 207.749 319.01 207.219 326.179 206.527L323.898 229.578C310.131 229.578 297.911 229.09 287.239 228.031C283.121 227.271 279.042 226.306 275.02 225.139C264.819 227.087 254.448 228.001 244.064 227.868C232.333 227.868 223.698 225.221 217.996 219.723C213.054 214.808 210.583 206.513 210.583 194.838C210.939 176.904 213.137 159.053 217.14 141.567L207.691 145.64L198.974 126.254C221.865 116.045 244.254 105.578 266.14 94.8535ZM230.623 135.581C237.221 134.318 243.86 133.381 250.54 132.689C249.579 130.977 248.722 129.209 247.974 127.394C242.72 129.96 236.895 132.648 230.623 135.54V135.581ZM232.17 188.811C231.885 191.271 231.736 193.746 231.722 196.223C231.387 199.682 232.426 203.135 234.614 205.835C235.885 207.023 237.4 207.92 239.053 208.462C240.707 209.004 242.459 209.177 244.186 208.971H245.775C244.938 207.185 244.494 205.241 244.471 203.269C244.258 198.651 245.623 194.098 248.341 190.358C242.598 189.992 237.221 189.462 232.17 188.811ZM234.044 168.895C234.088 169.424 234.088 169.955 234.044 170.484C247.399 172.084 260.837 172.886 274.287 172.886C279.452 173.142 284.604 172.165 289.317 170.036C290.519 169.168 291.461 167.989 292.043 166.625C292.624 165.262 292.822 163.765 292.616 162.297C292.908 158.871 292.048 155.445 290.172 152.564C286.272 150.05 281.63 148.944 277.016 149.428C263.549 149.619 250.125 150.982 236.895 153.5C236.869 153.635 236.869 153.773 236.895 153.908C251.029 153.908 265.041 154.478 279.012 155.048L276.975 169.873C262.583 169.438 248.232 169.112 233.922 168.895H234.044ZM274.776 199.685C272.783 199.571 270.788 199.862 268.91 200.54C268.419 200.804 268.01 201.198 267.73 201.68C267.45 202.162 267.308 202.712 267.322 203.269C267.322 203.92 268.625 204.735 271.395 205.672C272.658 206.079 274.042 206.446 275.468 206.812C280.519 205.957 283.044 204.979 283.044 203.839C283.066 203.119 282.877 202.407 282.501 201.792C282.125 201.178 281.578 200.686 280.926 200.377C278.879 199.706 276.722 199.43 274.572 199.563L274.776 199.685Z" fill="black"/>
<path opacity="0.4" d="M354.365 109.963C369.191 110.818 383.814 111.755 398.355 112.814C400.853 106.84 403.379 101.112 405.931 95.627L433.221 101.817L427.682 114.891C443.73 116.357 459.534 117.891 475.094 119.493L472.935 144.133C453.927 142.585 435.462 141.01 417.54 139.408C416.277 142.748 415.014 146.088 413.467 149.427C423.975 149.427 433.588 150.038 442.386 150.975C452.156 151.842 461.344 155.99 468.454 162.745C473.152 167.578 475.487 176.742 475.46 190.236V195.082C475.243 200.606 473.855 206.02 471.387 210.966C467.395 219.111 459.425 224.134 447.478 226.035C436.986 227.405 426.409 228.017 415.829 227.868H405.239C386.706 227.868 372.979 225.75 363.978 222.003C351.46 217.306 345.214 207.042 345.241 191.213C345.241 183.068 349.437 168.949 357.827 148.857L375.871 153.704C378.152 153.215 380.352 152.726 382.47 152.156C384.384 146.902 386.217 141.811 388.05 136.965L350.292 133.829L354.365 109.963ZM411.634 171.053C399.273 171.042 386.991 173.022 375.26 176.918C373.942 181.375 373.256 185.995 373.224 190.643C373.082 193.374 373.912 196.068 375.567 198.245C377.223 200.422 379.596 201.942 382.266 202.535C387.398 204.735 398.925 205.875 416.766 205.956C422.989 205.968 429.206 205.587 435.38 204.816C437.324 204.773 439.236 204.319 440.991 203.483C442.746 202.648 444.304 201.45 445.563 199.97C447.339 197.395 448.291 194.341 448.292 191.213C448.647 187.034 447.947 182.833 446.256 178.995C442.52 174.998 437.415 172.555 431.959 172.153C425.211 171.391 418.424 171.024 411.634 171.053V171.053Z" fill="black"/>
<path opacity="0.4" d="M617.246 101.818L619.527 125.44C605.108 125.44 590.771 125.44 576.433 126.01L582.462 131.671C575.782 137.59 569.197 143.645 562.707 149.835C567.824 154.486 572.085 160 575.293 166.126L575.863 166.981L581.321 150.69C594.315 159.229 609.338 164.175 624.863 165.026L619.12 188.811C605.511 188.867 592.111 185.461 580.181 178.914C580.986 183.156 581.368 187.467 581.321 191.784C581.321 203.35 578.932 211.713 574.152 216.872C571.234 219.894 567.715 222.271 563.821 223.849C559.927 225.428 555.746 226.172 551.546 226.035C544.587 226.162 537.632 225.63 530.773 224.447L528.615 200.825C534.814 201.949 541.093 202.576 547.392 202.699C548.744 202.778 550.098 202.56 551.358 202.06C552.617 201.561 553.752 200.792 554.683 199.807C555.844 198.602 556.726 197.157 557.268 195.573C557.81 193.99 557.998 192.307 557.819 190.643C557.994 185.384 556.816 180.167 554.398 175.493C552.103 171.783 549.368 168.364 546.251 165.311C534.602 176.172 522.817 187.29 510.896 198.667L492.567 181.928C512.526 161.972 531.9 143.59 550.691 126.784C534.398 127.571 517.929 128.63 501.284 129.96L498.881 106.461C535.593 103.365 575.049 101.818 617.246 101.818Z" fill="black"/>
<path opacity="0.4" d="M683.558 111.063L691.134 132.078C687.794 133.137 684.494 134.236 681.236 135.377C676.597 160.925 673.969 186.798 673.375 212.758L649.302 210.599C649.556 188.244 651.53 165.941 655.208 143.889C651.461 145.029 647.795 146.292 644.17 147.636L637.857 125.724C653.905 120.05 669.139 115.163 683.558 111.063ZM756.875 125.806L766.732 147.717C754.05 153.826 736.291 161.795 713.455 171.624C713.455 172.927 713.455 174.23 713.455 175.696C713.195 180.848 713.971 186 715.736 190.847C716.407 192.545 717.574 194.001 719.086 195.025C720.597 196.049 722.382 196.594 724.208 196.589C738.036 195.788 751.655 192.833 764.573 187.833L769.013 212.269C762.377 215.157 755.394 217.17 748.239 218.256C741.048 219.895 733.701 220.755 726.326 220.822H723.638C719.187 221.087 714.729 220.451 710.53 218.954C706.331 217.456 702.477 215.127 699.199 212.106C692.736 204.857 689.491 194.119 689.464 179.891C689.766 167.413 690.963 154.973 693.048 142.667C696.058 127.328 700.28 112.253 705.675 97.582L729.706 105.727C725.036 118.597 721.071 131.25 717.813 143.685C730.956 137.685 743.976 131.725 756.875 125.806Z" fill="black"/>
</g>
<path d="M265.366 79.9067L268.381 86.6674C289.058 90.8519 309.462 96.2922 329.478 102.958L323.205 124.014C304.593 117.779 285.667 112.518 266.507 108.253C267.932 110.941 269.44 113.629 271.069 116.398H279.785C291.842 116.398 300.721 119.018 306.424 124.258C311.855 129.01 314.57 136.789 314.57 147.595C314.57 158.021 312.167 165.067 307.401 168.814C305.358 170.408 303.094 171.698 300.681 172.642C302.465 174.268 303.865 176.269 304.781 178.502C305.696 180.735 306.105 183.143 305.976 185.553C305.967 188.297 305.281 190.997 303.98 193.413C311.108 193.046 318.277 192.517 325.445 191.865L323.164 214.917C309.397 214.917 297.178 214.387 286.506 213.328C281.903 212.473 277.79 211.496 274.287 210.478C264.095 212.388 253.74 213.288 243.371 213.166C231.641 213.166 223.006 210.518 217.303 205.02C212.334 200.051 209.849 191.743 209.849 180.095C210.201 162.158 212.413 144.305 216.448 126.824C213.311 128.168 210.134 129.553 206.998 130.897L198.281 111.429C221.145 101.139 243.507 90.6315 265.366 79.9067ZM229.889 120.634C236.488 119.371 243.127 118.434 249.807 117.742C248.833 116.031 247.962 114.263 247.2 112.448C241.986 115.013 236.243 117.701 229.889 120.593V120.634ZM231.315 173.905C231.03 176.365 230.88 178.84 230.867 181.317C230.537 184.769 231.559 188.214 233.718 190.929C235.004 192.107 236.527 192.996 238.185 193.537C239.843 194.078 241.597 194.258 243.331 194.065H244.919C244.082 192.279 243.638 190.335 243.616 188.363C243.403 183.745 244.767 179.192 247.485 175.452C241.864 175.126 236.447 174.516 231.315 173.864V173.905ZM233.148 153.989C233.191 154.518 233.191 155.049 233.148 155.578C246.5 157.198 259.94 158 273.391 157.98C278.556 158.236 283.708 157.259 288.42 155.13C289.623 154.262 290.565 153.083 291.146 151.719C291.728 150.356 291.926 148.859 291.72 147.391C292.012 143.965 291.152 140.539 289.276 137.658C285.357 135.074 280.667 133.923 275.997 134.399C262.531 134.591 249.107 135.954 235.877 138.472C235.856 138.607 235.856 138.744 235.877 138.879C249.997 139.069 264.022 139.45 277.952 140.02L276.405 154.804C261.904 154.424 247.485 154.138 233.148 153.948V153.989ZM273.879 184.779C271.886 184.665 269.891 184.956 268.014 185.634C267.529 185.904 267.125 186.301 266.846 186.781C266.566 187.261 266.421 187.807 266.425 188.363C266.425 189.014 267.729 189.829 270.295 190.766C271.517 191.173 272.902 191.539 274.368 191.947C279.419 191.051 281.944 190.073 281.944 188.933C281.968 188.207 281.775 187.49 281.391 186.874C281.007 186.258 280.448 185.769 279.785 185.471C277.864 184.868 275.849 184.619 273.839 184.738L273.879 184.779Z" fill="white"/>
<path d="M353.591 94.8134C368.377 95.6687 383.04 96.6462 397.54 97.6643C400.011 91.691 402.55 85.9621 405.157 80.4775L432.488 86.7902C430.574 91.1887 428.741 95.5873 426.908 99.9858C442.956 101.398 458.76 102.918 474.319 104.547L472.161 128.983C453.152 127.436 434.674 125.861 416.725 124.259C415.503 127.599 414.2 130.938 412.652 134.278C423.16 134.278 432.814 134.794 441.612 135.826C451.371 136.686 460.549 140.836 467.639 147.596C472.337 152.429 474.686 161.592 474.686 175.086V179.933C474.465 185.469 473.077 190.895 470.613 195.857C466.54 204.003 458.638 208.849 446.703 210.885C436.212 212.255 425.635 212.868 415.055 212.718H404.872C386.326 212.555 372.572 210.6 363.611 206.853C351.12 202.156 344.874 191.893 344.874 176.064C344.874 167.918 349.07 153.8 357.46 133.708L375.505 138.554C377.786 138.106 379.985 137.577 382.103 137.007C384.017 131.753 385.85 126.662 387.683 121.815L349.599 118.679L353.591 94.8134ZM410.86 155.904C398.499 155.899 386.218 157.879 374.486 161.769C373.18 166.227 372.509 170.848 372.49 175.494C372.348 178.225 373.179 180.918 374.834 183.095C376.489 185.272 378.863 186.793 381.533 187.386C386.665 189.585 398.192 190.726 416.032 190.807C422.255 190.819 428.472 190.438 434.647 189.667C436.585 189.628 438.493 189.176 440.242 188.34C441.991 187.504 443.541 186.304 444.789 184.82C446.582 182.253 447.535 179.194 447.518 176.064C447.894 171.888 447.208 167.685 445.522 163.846C441.791 159.814 436.665 157.353 431.185 156.963C424.432 156.281 417.645 155.996 410.86 156.108V155.904Z" fill="white"/>
<path d="M616.513 86.7896L618.794 110.411C604.375 110.411 590.011 110.601 575.7 110.981L581.566 116.724C574.886 122.643 568.301 128.698 561.811 134.888C566.905 139.561 571.161 145.071 574.397 151.179L574.967 152.034L580.425 135.54C593.415 144.085 608.44 149.032 623.967 149.876L618.224 173.945C604.614 174.005 591.214 170.599 579.285 164.049C580.07 168.293 580.452 172.602 580.425 176.918C580.425 188.485 578.036 196.847 573.256 202.006C570.338 205.029 566.818 207.405 562.925 208.984C559.031 210.562 554.85 211.307 550.65 211.17C543.691 211.297 536.736 210.765 529.877 209.581L527.718 185.96C533.917 187.086 540.197 187.712 546.496 187.833C547.848 187.912 549.202 187.694 550.461 187.195C551.721 186.695 552.856 185.926 553.787 184.942C554.941 183.732 555.819 182.286 556.36 180.704C556.902 179.122 557.094 177.441 556.923 175.778C557.098 170.518 555.92 165.302 553.502 160.628C551.182 156.935 548.448 153.52 545.355 150.446C533.706 161.306 521.921 172.425 510 183.801L491.508 166.981C511.412 147.025 530.787 128.643 549.632 111.837C533.339 112.597 516.87 113.656 500.225 115.013L497.781 91.5139C534.846 88.3915 574.424 86.8167 616.513 86.7896Z" fill="white"/>
<path d="M682.784 96.1154L690.4 117.131C687.06 118.189 683.761 119.289 680.503 120.429C675.844 145.975 673.216 171.85 672.641 197.811L648.569 195.693C648.787 173.324 650.748 151.006 654.434 128.941C650.728 130.082 647.062 131.344 643.437 132.688L637.123 110.777C653.172 105.075 668.392 100.188 682.784 96.1154ZM756.1 110.859L765.998 132.77C753.29 138.879 735.531 146.848 712.721 156.677C712.721 158.02 712.721 159.283 712.721 160.749C712.44 165.902 713.216 171.058 715.002 175.9C715.671 177.591 716.832 179.042 718.335 180.066C719.839 181.09 721.615 181.639 723.434 181.642C737.276 180.844 750.909 177.89 763.839 172.886L768.279 197.322C761.644 200.21 754.661 202.223 747.506 203.309C740.316 204.96 732.969 205.834 725.592 205.915H722.863C718.41 206.18 713.949 205.54 709.749 204.035C705.549 202.53 701.697 200.191 698.424 197.159C691.717 189.638 688.364 178.764 688.364 164.537C688.667 152.059 689.865 139.619 691.948 127.312C695.003 111.976 699.252 96.9018 704.656 82.2275L728.729 90.3729C724.058 103.243 720.094 115.895 716.835 128.331C730.141 122.602 743.229 116.778 756.1 110.859V110.859Z" fill="white"/>
</g>
<defs>
<clipPath id="clip0_52_2">
<rect width="971" height="1219" fill="white"/>
</clipPath>
</defs>
</svg>
