<svg width="971" height="1219" viewBox="0 0 971 1219" fill="none" xmlns="http://www.w3.org/2000/svg">
<g clip-path="url(#clip0_52_58)">
<path d="M792.84 884.591L971 853.394V185.715L822.981 166.655L971 150.934V66.0592C971 48.5392 964.039 31.7368 951.649 19.3483C939.26 6.95979 922.455 0 904.933 0L66.0666 0C48.5447 0 31.7404 6.95979 19.3505 19.3483C6.96057 31.7368 0 48.5392 0 66.0592L0 584.025L125.861 610.905L0 613.837V1152.94C0 1170.46 6.96057 1187.26 19.3505 1199.65C31.7404 1212.04 48.5447 1219 66.0666 1219H93.6826L158.161 1100.61L126.064 1219H904.933C922.455 1219 939.26 1212.04 951.649 1199.65C964.039 1187.26 971 1170.46 971 1152.94V895.342L792.84 884.591Z" fill="#51331F"/>
<path d="M797.443 864.024L971 833.56V181.398L826.851 162.908L971.041 147.554V64.5524C971.057 56.0845 969.404 47.6964 966.175 39.868C962.946 32.0395 958.206 24.9242 952.225 18.9288C946.244 12.9335 939.14 8.17588 931.319 4.92793C923.498 1.67998 915.113 0.00545334 906.644 0.000115883H89.6096C81.1251 -0.0159684 72.7208 1.64245 64.8786 4.88031C57.0363 8.11817 49.9102 12.8718 43.9089 18.8687C37.9075 24.8656 33.1488 31.9879 29.9057 39.8272C26.6625 47.6666 24.9986 56.0688 25.0093 64.5524V570.423L147.652 596.732L25.0093 599.542V1126.14C24.9986 1134.63 26.6625 1143.03 29.9057 1150.87C33.1488 1158.71 37.9075 1165.83 43.9089 1171.83C49.9102 1177.82 57.0363 1182.58 64.8786 1185.81C72.7208 1189.05 81.1251 1190.71 89.6096 1190.69H116.33L178.975 1075.19L147.652 1190.9H906.644C915.11 1190.89 923.49 1189.21 931.307 1185.96C939.123 1182.71 946.222 1177.95 952.199 1171.96C958.176 1165.96 962.912 1158.85 966.138 1151.02C969.364 1143.2 971.016 1134.81 971 1126.35V874.531L797.443 864.024Z" fill="#83593D"/>
<path opacity="0.32" d="M967.212 134.887C865.737 143.777 763.821 146.579 662.01 143.277C492.282 137.616 408.864 117.375 237.343 120.226C166.358 121.406 95.4829 126.3 25.0093 134.887V88.8251C68.9179 85.7298 139.954 81.6164 227.73 81.2091C412.611 80.2724 497.536 96.4003 665.31 99.2919C766.056 100.944 866.822 97.4505 967.212 88.8251V134.887Z" fill="#291100"/>
<path opacity="0.19" d="M967.212 497.236C865.737 506.126 763.821 508.927 662.01 505.626C492.282 499.965 408.864 479.723 237.343 482.574C166.358 483.754 95.4829 488.648 25.0093 497.236V451.174C68.9179 448.078 139.954 443.965 227.73 443.558C412.611 442.621 497.536 458.749 665.31 461.641C766.056 463.293 866.822 459.799 967.212 451.174V497.236Z" fill="#050000"/>
<path opacity="0.19" d="M969.126 715.044C867.65 723.912 765.735 726.713 663.925 723.434C494.237 717.773 410.778 697.491 239.298 700.382C168.313 701.561 97.4377 706.455 26.9642 715.044V668.982C70.8321 665.846 141.909 661.773 229.685 661.325C414.566 660.429 499.491 676.557 667.265 679.449C768.011 681.101 868.777 677.607 969.167 668.982L969.126 715.044Z" fill="white"/>
<path opacity="0.06" d="M969.126 1070.31C867.651 1079.19 765.735 1082 663.925 1078.7C494.237 1073.03 410.778 1052.79 239.298 1055.64C168.313 1056.82 97.4377 1061.72 26.9642 1070.31V1024.24C70.8321 1021.15 141.909 1017.03 229.685 1016.63C414.566 1015.69 499.491 1031.82 667.265 1034.71C768.011 1036.36 868.777 1032.87 969.167 1024.24L969.126 1070.31Z" fill="white"/>
<path opacity="0.19" d="M967.212 316.082C865.731 324.874 763.816 327.594 662.01 324.227C492.282 318.81 408.864 298.528 237.343 301.379C166.358 302.56 95.4829 307.454 25.0093 316.041V270.02C68.9179 266.884 139.954 262.811 227.73 262.363C412.611 261.426 497.536 277.595 665.31 280.486C766.056 282.138 866.822 278.645 967.212 270.02V316.082Z" fill="#4F3324"/>
<path opacity="0.19" d="M969.126 955.862C867.651 964.751 765.735 967.552 663.925 964.252C494.237 958.591 410.778 938.35 239.298 941.201C168.313 942.379 97.4377 947.273 26.9642 955.862V909.8C70.8321 906.664 141.909 902.591 229.685 902.143C414.566 901.247 499.491 917.375 667.265 920.267C768.011 921.919 868.777 918.425 969.167 909.8L969.126 955.862Z" fill="#050000"/>
<path opacity="0.19" d="M598.754 835.473C537.21 844.324 474.945 847.121 412.855 843.822C309.478 838.161 258.686 817.92 154.21 820.812C110.762 821.997 67.4967 826.903 24.887 835.473V789.371C65.9187 784.701 107.171 782.227 148.467 781.958C261.089 781.021 312.818 797.149 415.014 800.041C476.452 801.656 537.916 798.086 598.754 789.371V835.473Z" fill="#4F3324"/>
<path opacity="0.19" d="M967.212 597.751C899.715 606.646 831.554 609.454 763.554 606.14C650.442 600.479 594.844 580.238 480.51 583.13C433.021 584.319 385.697 589.208 338.968 597.751V551.688C368.213 548.593 415.584 544.48 474.075 544.072C597.328 543.136 653.945 559.264 765.753 562.155C833.008 563.846 900.292 560.347 967.008 551.688L967.212 597.751Z" fill="#2C1400"/>
<path d="M795.406 330.825H193.067C168.412 330.825 148.426 350.81 148.426 375.462V732.068C148.426 756.72 168.412 776.704 193.067 776.704H795.406C820.061 776.704 840.048 756.72 840.048 732.068V375.462C840.048 350.81 820.061 330.825 795.406 330.825Z" fill="#F0C7A3"/>
<path d="M358.112 399.654C362.041 400.235 365.868 401.373 369.476 403.035L366.625 412.768C362.935 411.202 359.12 409.949 355.22 409.021L358.112 399.654ZM400.065 379.291C403.143 379.116 406.214 379.733 408.986 381.083C410.143 381.572 411.123 382.405 411.793 383.468C412.463 384.531 412.791 385.774 412.733 387.029C412.743 388.034 412.52 389.027 412.081 389.931C411.643 390.836 411.002 391.626 410.208 392.242L408.701 393.26L412.163 393.627L411.633 400.998C412.632 401.618 413.573 402.327 414.444 403.116C417.65 406.533 419.416 411.056 419.372 415.741V418.796C418.846 425.01 417.672 431.153 415.869 437.123L404.79 435.209C406.828 429.696 407.983 423.895 408.212 418.022C408.581 414.983 407.796 411.917 406.012 409.429C404.052 407.935 401.632 407.172 399.169 407.27V407.27C399.169 408.818 399.577 410.447 399.74 412.076L406.053 412.646L405.564 419.855L400.391 419.488C400.391 420.14 400.391 420.751 400.636 421.362L405.361 421.81L404.79 429.018L401.491 428.815C401.491 429.996 401.776 431.218 401.898 432.48L397.825 432.887L399.414 440.748C392.773 442.548 385.929 443.492 379.048 443.558H376.115C371.219 443.714 366.365 442.606 362.022 440.341C360.013 439.158 358.359 437.456 357.233 435.413C356.108 433.371 355.553 431.064 355.627 428.733C355.794 423.402 356.968 418.151 359.089 413.257L370.535 415.782C368.454 419.076 367.248 422.847 367.032 426.738C366.96 427.799 367.166 428.861 367.631 429.818C368.095 430.775 368.801 431.595 369.68 432.195C370.924 432.933 372.314 433.392 373.753 433.539C372.422 422.679 371.227 411.818 370.168 400.957L381.614 399.736V401.039C384.139 400.347 386.705 399.817 389.272 399.369L381.125 398.677L382.062 390.979L393.467 391.794C396.108 391.037 398.694 390.098 401.206 388.984C401.695 388.739 401.898 388.536 401.898 388.414C401.898 388.291 400.921 387.843 398.966 387.843C390.836 388.245 382.782 389.612 374.975 391.916L372.612 383.323C381.559 380.831 390.781 379.463 400.065 379.25V379.291ZM359.741 385.929C363.955 386.512 368.067 387.678 371.961 389.391L369.028 399.41C365.163 397.76 361.135 396.518 357.012 395.704L359.741 385.929ZM388.253 411.424C388.253 410.528 388.253 409.632 387.968 408.777C386.095 409.184 384.302 409.632 382.551 410.162V411.139L388.253 411.424ZM389.394 420.669C389.394 420.099 389.394 419.488 389.394 418.877L383.61 418.429C383.61 419.122 383.61 419.733 383.61 420.303C385.687 420.384 387.602 420.466 389.516 420.629L389.394 420.669ZM385.035 433.539C386.909 433.539 388.824 433.01 390.779 432.643L390.208 428.041C388.253 428.041 386.135 428.041 384.384 427.674C384.75 429.548 384.954 431.706 385.158 433.498L385.035 433.539Z" fill="black"/>
<path d="M436.765 381.53C436.807 381.8 436.807 382.075 436.765 382.345C439.874 381.509 443.077 381.071 446.296 381.042C447.917 380.919 449.545 381.188 451.04 381.826C452.536 382.464 453.857 383.452 454.89 384.707C456.9 387.658 457.952 391.156 457.904 394.726V398.432C457.904 404.052 456.764 407.759 454.524 409.469L452.243 410.691C454.01 411.546 455.631 412.673 457.049 414.031C458.824 415.779 459.958 418.075 460.267 420.547C460.281 420.973 460.197 421.398 460.02 421.786C459.844 422.175 459.579 422.517 459.249 422.787C459.834 423.569 460.3 424.434 460.633 425.353V425.719C461.089 424.548 461.691 423.44 462.426 422.42C462.024 422.092 461.704 421.674 461.492 421.2C461.28 420.727 461.181 420.21 461.204 419.692C461.489 417.185 462.509 414.818 464.136 412.89C465.317 411.666 466.694 410.648 468.21 409.876C466.165 409.157 464.341 407.923 462.914 406.292C460.936 403.507 459.959 400.133 460.145 396.722C460.239 390.766 461.298 384.866 463.281 379.25L468.21 380.553C471.811 379.302 475.598 378.669 479.411 378.68C481.428 378.583 483.441 378.941 485.301 379.726C487.161 380.512 488.821 381.705 490.158 383.218C491.496 384.731 492.476 386.525 493.027 388.467C493.577 390.41 493.685 392.451 493.341 394.441V396.925C493.28 401.753 492.775 406.566 491.834 411.302C491.336 415.377 490.281 419.365 488.698 423.153L479.248 421.117C480.658 417.141 481.735 413.054 482.466 408.899C479.289 409.743 476.018 410.181 472.731 410.202H471.875C473.401 410.928 474.859 411.786 476.234 412.768C477.969 414.083 479.147 416.002 479.533 418.144C479.596 418.8 479.5 419.461 479.251 420.071C479.003 420.681 478.61 421.221 478.107 421.646C478.921 422.403 479.645 423.25 480.266 424.172C480.908 425.127 481.274 426.24 481.325 427.389C481.334 427.964 481.201 428.532 480.938 429.044C480.675 429.555 480.291 429.994 479.818 430.321C480.708 431.879 481.224 433.621 481.325 435.412C481.405 436.361 481.273 437.316 480.936 438.207C480.6 439.098 480.069 439.903 479.382 440.563C478.695 441.223 477.869 441.72 476.965 442.02C476.061 442.32 475.101 442.414 474.156 442.295H473.382H472.079L472.446 444.657L464.055 445.513C463.322 440.707 462.629 435.86 462.059 431.054C461.632 430.839 461.246 430.549 460.919 430.199C460.434 430.865 459.79 431.397 459.045 431.747C459.86 435.82 460.796 440.137 461.855 444.657L453.709 445.513C453.424 444.25 453.139 443.069 452.854 441.929C452.039 441.929 451.265 441.929 450.573 441.929C448.026 442.134 445.475 441.581 443.241 440.34C442.589 439.879 442.056 439.269 441.688 438.561C441.32 437.852 441.126 437.066 441.123 436.268C441.162 434.646 441.581 433.056 442.345 431.625C441.896 431.371 441.522 431.004 441.257 430.561C440.993 430.119 440.849 429.615 440.838 429.1C440.838 428.774 440.838 428.407 440.838 427.959L430.981 429.1C429.46 411.831 428.048 396.409 426.745 382.834L436.765 381.53ZM437.946 393.423C441.227 392.803 444.548 392.422 447.884 392.282C447.779 391.466 447.486 390.686 447.029 390.002C446.684 389.572 446.242 389.23 445.739 389.004C445.237 388.777 444.688 388.673 444.137 388.698C441.918 388.944 439.741 389.478 437.661 390.287C437.742 391.264 437.824 392.323 437.946 393.423V393.423ZM438.924 404.093C440.471 404.093 441.856 404.419 442.997 404.5C444.444 404.587 445.878 404.185 447.07 403.36C447.64 402.994 448.007 401.975 448.21 400.306C445.011 400.419 441.825 400.773 438.679 401.364L438.924 404.093ZM441.082 427.43C441.546 425.997 442.19 424.629 442.997 423.357C442.67 423.008 442.415 422.599 442.248 422.151C442.08 421.704 442.002 421.228 442.019 420.75C442.296 418.19 443.348 415.775 445.033 413.827C445.512 413.259 446.059 412.753 446.663 412.32H444.3C442.793 412.32 441.204 412.32 439.657 412.32C440.105 417.044 440.594 422.176 441.082 427.633V427.43ZM449.229 419.04C452.324 419.04 453.872 419.04 453.872 418.47C453.79 417.717 453.415 417.026 452.828 416.546C452.242 416.066 451.49 415.835 450.736 415.904C449.025 416.189 448.129 417.044 448.129 418.47C448.373 418.877 448.699 419.04 449.392 419.04H449.229ZM449.636 424.416C449.086 425.052 448.658 425.784 448.373 426.574C448.381 426.767 448.448 426.952 448.564 427.105C448.681 427.258 448.842 427.371 449.025 427.43C449.687 427.526 450.359 427.526 451.021 427.43C451.732 427.473 452.444 427.347 453.098 427.063C453.245 427.018 453.372 426.926 453.461 426.801C453.549 426.675 453.594 426.524 453.587 426.371C453.44 425.59 453.12 424.852 452.65 424.212H449.636V424.416ZM451.51 436.227C451.51 435.249 451.143 434.19 450.939 433.172H450.288H449.31C449.041 433.622 448.823 434.1 448.658 434.598C448.638 434.844 448.671 435.091 448.756 435.323C448.84 435.555 448.973 435.766 449.147 435.942C449.6 436.288 450.168 436.448 450.736 436.39L451.51 436.227ZM468.78 418.185C471.794 418.185 473.26 418.185 473.26 417.696C472.934 416.108 471.794 415.334 469.839 415.334C467.884 415.334 467.558 416.311 467.558 417.696C467.748 418.022 468.21 418.185 468.943 418.185H468.78ZM469.106 423.642C468.61 424.135 468.209 424.714 467.924 425.353C467.904 425.639 467.966 425.926 468.103 426.178C468.24 426.431 468.447 426.639 468.698 426.778C469.444 427.091 470.255 427.217 471.061 427.145C471.427 427.184 471.798 427.138 472.144 427.011C472.49 426.884 472.802 426.679 473.057 426.412C473.24 426.243 473.38 426.033 473.466 425.799C473.551 425.565 473.578 425.314 473.545 425.068C473.545 424.742 473.179 424.212 472.405 423.561H471.142L469.106 423.642ZM483.728 400.02C483.728 398.188 483.728 396.681 483.728 395.5C483.888 394.173 483.776 392.828 483.398 391.546C483.019 390.265 482.383 389.074 481.529 388.047C480.265 387.315 478.834 386.922 477.374 386.906C474.979 387.223 472.611 387.713 470.287 388.373C470.287 389.309 469.92 390.165 469.798 390.979C473.179 390.694 476.478 390.531 479.737 390.531L480.673 398.351C476.845 398.351 473.26 398.351 469.92 398.758C470.45 400.794 471.55 401.772 473.138 401.772C476.791 401.748 480.419 401.157 483.891 400.02H483.728ZM470.613 432.602C470.869 433.703 471.059 434.818 471.183 435.942H472.486C473.22 435.942 473.545 435.453 473.545 434.435C473.479 433.688 473.164 432.985 472.649 432.439H471.346L470.613 432.602Z" fill="black"/>
<path d="M513.747 416.027L505.886 413.379C507.922 409.307 509.959 405.641 511.548 402.302L503.401 404.827C501.711 399.277 500.485 393.596 499.735 387.843L509.185 384.993C509.272 386.073 509.421 387.147 509.633 388.21C515.005 386.834 520.442 385.733 525.926 384.911C525.463 383.902 525.055 382.869 524.704 381.816L535.661 377.743C536.401 379.861 537.414 381.874 538.675 383.73C542.381 383.445 546.251 383.241 550.283 383.16C554.236 383.005 558.183 383.571 561.933 384.83C563.28 385.406 564.434 386.357 565.257 387.57C566.081 388.783 566.538 390.207 566.576 391.672C566.367 395.299 565.696 398.885 564.58 402.342L553.705 400.835C554.476 398.721 555.049 396.54 555.416 394.319C555.416 393.016 552.849 392.323 547.758 392.323C544.296 392.323 540.874 392.771 537.534 393.097C538.637 394.064 539.621 395.158 540.467 396.355L537.168 399.614C539.897 397.862 542.626 396.152 545.314 394.563L552.972 399.776C547.31 403.36 541.811 407.026 536.679 410.814C541.14 410.157 545.56 409.246 549.917 408.085L551.424 416.23C545.467 418.041 539.312 419.122 533.095 419.448C530.738 419.499 528.388 419.183 526.13 418.511C523.93 420.181 522.056 421.891 519.857 423.602L525.274 424.824C524.134 426.556 523.384 428.515 523.075 430.566C523.017 431.469 523.312 432.36 523.896 433.051C524.481 433.742 525.311 434.179 526.211 434.272C528.385 434.714 530.592 434.973 532.809 435.046C532.117 430.2 531.547 425.72 531.017 421.688L542.544 420.588L544.377 434.924C546.41 434.677 548.382 434.071 550.202 433.132C550.86 432.859 551.416 432.386 551.789 431.779C552.162 431.171 552.333 430.462 552.279 429.752C552.04 426.117 550.737 422.633 548.532 419.733L560.018 417.167C562.51 422.146 563.781 427.646 563.725 433.213C563.853 434.582 563.632 435.961 563.084 437.221C562.536 438.481 561.677 439.583 560.588 440.422C558.141 442.039 555.353 443.07 552.442 443.436C548.416 444.223 544.325 444.632 540.223 444.658H535.335C529.331 444.906 523.32 444.372 517.454 443.069C515.706 442.666 514.16 441.654 513.092 440.213C512.024 438.772 511.506 436.998 511.629 435.209C511.634 433.6 511.757 431.994 511.996 430.403L509.837 432.358L501.243 426.33C505.438 422.706 509.592 419.488 513.747 416.027ZM521.038 396.518L530.488 398.514C529.738 400.629 529.193 402.811 528.859 405.03C530.786 403.7 532.701 402.437 534.602 401.243C532.679 399.232 530.609 397.367 528.41 395.663L530.08 393.912C523.838 394.814 517.651 396.065 511.548 397.659C511.548 398.636 512.036 399.614 512.322 400.591L513.258 398.799L519.775 400.958C520.142 399.369 520.59 397.903 521.038 396.518ZM519.042 408.085C517.942 410.203 516.883 412.157 515.906 414.397L519.327 411.832C519.327 411.262 519.205 410.61 518.961 409.877C518.961 409.266 519.002 408.655 519.042 408.085ZM556.189 402.22C559.534 404.089 562.481 406.593 564.865 409.592L559.081 415.416C556.538 412.775 553.816 410.312 550.935 408.044L556.189 402.22Z" fill="black"/>
<path d="M590.608 378.761C591.475 381.829 592.706 384.782 594.274 387.558C596.826 387.558 599.392 387.558 601.972 387.558L602.909 397.211C593.608 397.153 584.318 397.848 575.13 399.288L574.315 389.35C577.044 388.902 579.732 388.576 582.461 388.332C581.769 386.662 581.076 384.911 580.466 383.038L590.608 378.761ZM578.388 420.344L583.235 421.362C585.022 420.918 586.853 420.672 588.693 420.629C590.793 420.618 592.89 420.768 594.966 421.077C596.786 421.373 598.452 422.277 599.691 423.642C601.279 424.783 602.053 428.163 602.053 433.824V434.965C602.091 436.319 601.791 437.661 601.179 438.87C600.568 440.079 599.664 441.116 598.55 441.888C595.788 443.731 592.497 444.618 589.182 444.413H588.042C584.015 444.745 580.008 443.57 576.8 441.114C575.906 440.118 575.221 438.952 574.788 437.685C574.354 436.419 574.179 435.078 574.274 433.743C574.36 428.953 575.785 424.284 578.388 420.262V420.344ZM598.754 409.388L599.691 418.063C592.01 418.03 584.336 418.506 576.718 419.488L575.904 410.895C583.479 409.885 591.111 409.354 598.754 409.306V409.388ZM598.754 399.451L599.691 407.596C592.7 407.562 585.717 408.038 578.796 409.021L577.94 400.876C584.839 399.932 591.791 399.428 598.754 399.369V399.451ZM587.797 435.779C588.849 435.885 589.9 435.579 590.73 434.924C591.318 434.205 591.596 433.282 591.504 432.358C591.504 430.607 591.015 429.67 590.363 429.466C589.709 429.306 589.041 429.21 588.367 429.181C587.153 429.412 586 429.898 584.987 430.607C584.987 431.014 584.987 431.381 584.987 431.747C584.91 432.78 585.092 433.816 585.516 434.761C585.776 435.114 586.122 435.393 586.522 435.572C586.922 435.75 587.361 435.822 587.797 435.779ZM606.126 379.576C617.979 380.35 629.466 381.408 640.463 382.793L639.486 392.486C634.883 391.957 630.321 391.509 625.881 391.061C625.713 391.736 625.51 392.403 625.27 393.056C628.31 393.042 631.305 393.784 633.987 395.215C635.067 396.037 635.945 397.096 636.553 398.31C637.16 399.525 637.48 400.862 637.49 402.22V403.645C637.324 406.018 636.97 408.374 636.431 410.691L640.911 411.098L640.056 421.117L601.035 418.185L602.542 408.533L608.489 408.818C608.978 406.944 609.466 405.152 609.996 403.442C608.587 403.737 607.219 404.202 605.923 404.827L603.031 396.233C606.227 395.168 609.512 394.391 612.847 393.912L614.069 389.839C610.811 389.472 607.593 389.187 604.416 388.902L606.126 379.576ZM607.267 420.588L610.485 421.402C613.963 420.871 617.475 420.599 620.993 420.588C625.988 420.127 631.007 421.162 635.412 423.561C636.567 424.448 637.471 425.621 638.035 426.963C638.6 428.306 638.804 429.772 638.63 431.218V432.521C638.842 434.252 638.706 436.009 638.23 437.687C637.755 439.366 636.949 440.932 635.86 442.295C634.028 444.169 629.181 445.106 621.238 445.106H616.269C612.541 445.471 608.807 444.473 605.76 442.295C603.863 439.619 602.969 436.36 603.235 433.091C603.303 428.602 604.707 424.235 607.267 420.547V420.588ZM622.134 429.181C619.515 429.2 616.915 429.64 614.436 430.485C614.455 430.606 614.455 430.73 614.436 430.851C614.264 432.247 614.505 433.663 615.128 434.924C615.539 435.476 616.084 435.915 616.71 436.2C617.337 436.485 618.026 436.606 618.712 436.553H620.423C622.514 436.676 624.605 436.314 626.533 435.494C626.971 435.023 627.299 434.461 627.496 433.849C627.694 433.237 627.754 432.589 627.673 431.951C627.711 431.52 627.614 431.089 627.395 430.717C627.175 430.345 626.846 430.05 626.451 429.874C625.066 429.379 623.605 429.131 622.134 429.141V429.181ZM620.301 409.51L625.23 409.795C625.69 408.397 625.977 406.947 626.085 405.478C626.181 404.391 625.955 403.301 625.433 402.342C624.727 401.863 623.881 401.634 623.03 401.691H622.582C621.808 404.216 621.034 406.822 620.301 409.469V409.51Z" fill="black"/>
<g opacity="0.42">
<path opacity="0.42" d="M208.464 98.478H248.463C248.463 97.3376 248.218 96.1158 248.015 94.894L271.639 92.6133C271.639 94.5275 272.046 96.686 272.209 98.478H321.779L320.232 116.235H274.205C274.205 117.09 274.409 117.986 274.49 118.923C286.71 118.624 299.078 118.244 311.597 117.783L313.307 133.422C301.088 133.87 288.868 134.277 276.364 134.562C276.364 135.295 276.567 136.069 276.649 136.843C291.937 136.191 307.401 135.431 323.042 134.562L324.753 151.749C314.937 152.319 305.079 152.849 295.263 153.297L301.006 155.292C308.053 157.899 311.597 161.279 311.597 165.474C311.682 168.018 311.077 170.537 309.845 172.764C314.191 177.557 316.814 183.662 317.299 190.114C317.243 192.225 316.501 194.261 315.186 195.914C313.87 197.567 312.053 198.748 310.008 199.277C316.388 202.666 322.145 207.114 327.034 212.432L311.597 228.071C305.161 222.638 298.356 217.657 291.231 213.165L302.554 201.436C293.12 202.922 283.592 203.738 274.042 203.879C274.612 210.437 275.223 217.36 275.916 224.61L252.536 226.768C251.775 218.46 251.069 210.776 250.418 203.717C242.393 203.84 234.375 203.213 226.468 201.843C218.321 199.848 214.248 197.078 214.248 193.698C214.382 190.391 215.171 187.144 216.57 184.145C217.968 181.146 219.948 178.454 222.394 176.226C221.145 175.199 220.134 173.914 219.431 172.458C218.727 171.003 218.349 169.412 218.321 167.795C218.321 165.23 221.132 162.338 226.753 159.202L233.799 155.74L205.287 156.351L203.658 139.124C219.95 138.852 236.325 138.377 252.78 137.698L252.536 135.132L214.167 135.702L212.293 120.226C225.001 120.023 237.791 119.819 250.703 119.534C250.499 118.353 250.336 117.294 250.255 116.235H205.45L208.464 98.478ZM209.645 202.698L231.396 204.857C229.795 211.527 228.975 218.361 228.952 225.22L207.324 222.777C207.301 216.016 208.08 209.276 209.645 202.698V202.698ZM241.579 182.783C241.172 183.272 240.968 183.597 240.968 183.801C240.968 185.064 241.986 185.919 243.982 186.367C250.843 187.056 257.741 187.301 264.633 187.1C272.055 187.192 279.471 186.62 286.791 185.389C287.785 185.296 288.704 184.818 289.351 184.057C289.997 183.296 290.321 182.313 290.253 181.317C277.169 182.655 264.017 183.226 250.866 183.027C247.768 183.104 244.668 183.022 241.579 182.783ZM251.436 168.773C269.113 168.773 280.288 167.918 284.958 166.207C286.669 166.207 287.524 165.555 287.524 164.334C287.524 163.763 280.22 162.759 265.611 161.32C257.818 162.292 250.147 164.066 242.719 166.614C242.719 168.04 245.611 168.773 251.436 168.773V168.773Z" fill="black"/>
<path opacity="0.42" d="M355.098 98.4785H395.096C395.096 97.3381 394.852 96.1163 394.648 94.8945L418.273 92.6138C418.273 94.5279 418.68 96.6865 418.843 98.4785H468.413L466.865 116.235H420.839C420.839 117.091 421.042 117.987 421.124 118.923C433.343 118.625 445.712 118.245 458.23 117.783L459.941 133.422C447.721 133.87 435.502 134.278 422.997 134.563C422.997 135.296 423.201 136.069 423.282 136.843C438.57 136.192 454.035 135.431 469.676 134.563L471.386 151.749C461.57 152.32 451.713 152.849 441.897 153.297L447.64 155.293C454.687 157.899 458.23 161.28 458.23 165.474C458.315 168.018 457.71 170.537 456.479 172.765C460.824 177.558 463.447 183.663 463.933 190.114C463.876 192.226 463.135 194.262 461.819 195.915C460.504 197.568 458.687 198.748 456.642 199.278C463.021 202.666 468.779 207.115 473.667 212.433L458.23 228.072C451.794 222.639 444.989 217.658 437.864 213.166L449.188 201.436C439.753 202.922 430.225 203.739 420.676 203.88C421.246 210.437 421.857 217.361 422.549 224.61L399.169 226.769C398.382 218.46 397.676 210.776 397.051 203.717C389.027 203.841 381.009 203.213 373.101 201.844C364.955 199.848 360.882 197.079 360.882 193.698C361.016 190.392 361.805 187.145 363.203 184.146C364.602 181.147 366.582 178.455 369.028 176.226C367.816 175.181 366.843 173.887 366.176 172.432C365.508 170.978 365.161 169.396 365.159 167.796C365.159 165.23 367.969 162.338 373.59 159.202L380.637 155.741L352.124 156.352L350.292 139.124C366.584 138.853 382.958 138.377 399.414 137.699L399.169 135.133L360.8 135.703L358.927 120.227C371.635 120.023 384.425 119.819 397.336 119.534C397.336 118.353 396.97 117.294 396.888 116.235H352.084L355.098 98.4785ZM356.279 202.699L378.03 204.857C376.429 211.528 375.608 218.361 375.586 225.221L353.957 222.777C353.935 216.016 354.714 209.276 356.279 202.699V202.699ZM388.213 182.783C387.805 183.272 387.602 183.598 387.602 183.802C387.602 185.064 388.62 185.919 390.616 186.367C397.476 187.057 404.374 187.301 411.267 187.1C418.689 187.193 426.105 186.62 433.425 185.39C434.419 185.297 435.337 184.819 435.984 184.058C436.631 183.297 436.955 182.313 436.887 181.317C423.802 182.655 410.651 183.226 397.499 183.028C394.402 183.105 391.302 183.023 388.213 182.783V182.783ZM398.07 168.773C415.747 168.773 426.921 167.918 431.592 166.207C433.302 166.207 434.158 165.556 434.158 164.334C434.158 163.764 426.853 162.759 412.244 161.32C404.452 162.292 396.781 164.067 389.353 166.615C389.353 168.04 392.245 168.773 398.07 168.773V168.773Z" fill="black"/>
<path opacity="0.42" d="M503.89 106.909L527.514 113.221C523.07 118.845 519.726 125.256 517.657 132.119C517.657 135.255 519.776 137.617 524.093 139.124C530.342 140.468 536.724 141.096 543.115 140.997C544.744 126.498 546.808 112.325 549.306 98.478L572.645 100.596C570.446 113.981 568.626 127.557 567.187 141.323C580.167 141.323 588.137 140.373 591.096 138.472C592.119 138.058 592.995 137.349 593.611 136.435C594.228 135.521 594.558 134.443 594.559 133.34C594.559 130.001 590.852 122.874 583.52 111.999L607.145 105.687C613.958 116.349 617.72 128.674 618.02 141.323C618.088 144.494 617.332 147.628 615.825 150.419C614.319 153.211 612.114 155.563 609.426 157.247C602.664 162.297 590.825 164.822 573.908 164.822H564.906C564.051 175.982 563.358 187.222 562.91 198.463C572.824 198.442 582.722 197.68 592.522 196.182C596.921 195.53 599.121 194.173 599.121 192.109C598.752 185.358 596.571 178.83 592.807 173.212L615.576 168.08C619.799 177.836 621.949 188.362 621.89 198.992C622.081 201.895 621.41 204.789 619.961 207.311C618.511 209.833 616.348 211.87 613.743 213.165C606.912 216.343 599.605 218.379 592.115 219.193C581.015 220.67 569.831 221.431 558.633 221.474H547.432C528.641 221.474 515.336 220.279 507.515 217.89C503.546 216.891 500.058 214.519 497.672 211.194C495.286 207.868 494.155 203.805 494.481 199.725C494.654 189.035 496.146 178.406 498.921 168.08L521.364 173.334C519.092 178.864 517.717 184.721 517.291 190.684C517.291 194.105 519.857 196.223 524.989 196.956C529.797 197.643 534.637 198.078 539.49 198.259C539.761 186.611 540.331 175.208 541.2 164.048C537.86 163.75 534.52 163.505 531.18 163.315C522.648 162.865 514.281 160.777 506.538 157.166C502.885 155.624 499.774 153.031 497.598 149.717C495.422 146.403 494.281 142.517 494.318 138.553C494.813 127.371 498.104 116.491 503.89 106.909V106.909Z" fill="black"/>
<path opacity="0.42" d="M650.239 118.923C647.876 119.819 645.31 120.593 642.663 121.367L638.59 103.61C651.13 98.9091 664.318 96.1619 677.692 95.4646C682.548 95.3658 687.291 96.9324 691.133 99.9038C693.066 101.535 694.611 103.577 695.654 105.881C696.697 108.185 697.212 110.693 697.162 113.222C696.531 120.228 693.676 126.849 689.015 132.119C687.427 134.318 685.675 136.477 683.883 138.554C686.892 138.878 689.782 139.911 692.315 141.568C694.201 142.994 695.729 144.842 696.775 146.963C697.822 149.084 698.359 151.42 698.343 153.786V157.655C698.255 160.403 697.872 163.134 697.202 165.8L699.931 166.085L698.221 183.272L666.694 180.828C666.246 182.661 665.839 184.372 665.554 186.001C665.269 187.63 666.491 188.444 668.283 188.444C673.007 187.451 677.8 186.825 682.62 186.571H683.598C686.05 186.605 688.468 187.155 690.693 188.187C692.918 189.218 694.9 190.708 696.51 192.558C699.595 197.312 701.145 202.899 700.95 208.563C700.552 214.738 699.445 220.847 697.65 226.768L678.751 223.184C680.377 219.641 681.488 215.883 682.05 212.025C682.05 206.595 680.95 203.88 678.751 203.88C676.297 203.9 673.847 204.09 671.419 204.45C668.158 205.015 664.867 205.396 661.562 205.59C657.673 205.856 653.829 204.633 650.809 202.169C649.454 200.735 648.396 199.046 647.697 197.201C646.998 195.355 646.671 193.39 646.736 191.417C646.845 182.597 648.528 173.866 651.705 165.637C651.543 165.808 651.349 165.947 651.135 166.044L637.979 152.89C644.841 148.218 651.349 143.045 657.448 137.413C653.375 136.273 649.302 135.296 645.229 134.563L650.239 118.923ZM671.134 122.996C672.867 121.175 674.248 119.048 675.207 116.724C675.207 114.728 674.108 113.71 671.908 113.71C666.369 114.769 660.014 116.276 652.846 118.272C659.118 119.697 665.228 121.285 671.134 123.077V122.996ZM666.287 155.089C662.866 157.858 659.322 160.546 655.697 163.234H656.674C664.332 163.519 671.786 163.927 679.036 164.375C679.893 162.233 680.375 159.96 680.462 157.655C680.473 156.87 680.205 156.107 679.705 155.503C679.205 154.898 678.506 154.491 677.733 154.356C675.411 154.038 673.069 153.902 670.727 153.949C669.218 154.244 667.734 154.653 666.287 155.17V155.089ZM718.709 133.341C718.709 134.196 718.709 135.011 718.994 135.744C722.422 134.779 725.904 134.018 729.421 133.463C719.035 131.467 708.607 129.675 698.221 128.168L700.95 110.411L712.232 111.837C716.143 104.669 719.686 98.234 722.863 92.5322L741.763 98.8042C738.382 104.074 735.269 109.511 732.435 115.095L739.156 116.235C743.473 109.271 747.302 103.04 750.927 97.6231L768.523 103.325C764.613 108.755 760.988 114.294 757.648 119.942L770.397 122.792L767.383 141.12C762.142 139.898 756.847 138.717 751.498 137.576C753.818 140.493 754.991 144.158 754.797 147.88C754.797 148.532 754.797 149.713 754.797 151.464C754.797 153.215 754.512 154.845 754.512 155.293C754.512 157.695 755.652 158.877 757.933 158.877C761.151 158.824 764.226 157.542 766.528 155.293L768.686 170.932C767.283 172.556 765.544 173.856 763.589 174.742C761.633 175.628 759.509 176.079 757.363 176.063C759.213 177.72 760.684 179.757 761.675 182.034C762.666 184.312 763.154 186.776 763.106 189.259C762.776 193.319 761.164 197.17 758.503 200.255C762.129 201.11 765.794 202.047 769.419 202.984L766.365 219.926C758.911 218.012 751.498 216.261 744.044 214.632C737.117 220.349 729.624 225.343 721.682 229.538L708.729 216.302C712.757 214.319 716.674 212.116 720.46 209.704C715.695 208.849 710.97 208.034 706.285 207.301L708.444 196.101L704.656 180.788C716.125 175.934 728.293 172.937 740.704 171.909C739.294 170.429 738.205 168.674 737.504 166.754C736.803 164.834 736.506 162.79 736.631 160.75C736.631 159.976 736.631 158.062 737.038 155.007C737.038 154.152 737.038 153.623 737.038 153.46C737.038 151.057 735.734 149.876 733.168 149.876C728.92 150.173 724.769 151.293 720.949 153.175C721.709 159.664 722.483 166.452 723.271 173.538L704.941 175.412C703.19 160.343 701.642 146.903 700.217 135.336L718.709 133.341ZM738.463 196.182C739.608 195.251 740.538 194.084 741.192 192.761C741.192 189.788 739.971 188.322 737.608 188.322C731.974 189.564 726.413 191.114 720.949 192.965C726.896 194.024 732.734 195.124 738.463 196.264V196.182Z" fill="black"/>
</g>
<path d="M207.202 81.6987H246.996C246.996 80.5583 246.752 79.3772 246.548 78.1554L270.173 75.834C270.39 77.7346 270.594 79.6895 270.784 81.6987H320.435L318.888 99.4556H272.902C272.902 100.311 272.902 101.248 273.187 102.184C285.406 101.886 297.775 101.506 310.293 101.044L312.004 116.642C299.785 117.131 287.565 117.498 275.06 117.783C275.06 118.557 275.06 119.33 275.346 120.104C290.634 119.425 306.098 118.652 321.739 117.783L323.45 134.97C313.633 135.54 303.776 136.069 293.96 136.558L299.703 138.554C306.75 141.119 310.293 144.54 310.293 148.735C310.371 151.273 309.781 153.787 308.583 156.025C312.91 160.81 315.519 166.901 315.996 173.334C315.939 175.446 315.198 177.482 313.882 179.135C312.567 180.788 310.75 181.968 308.705 182.498C315.121 185.903 320.918 190.364 325.853 195.694L310.375 211.17C303.946 205.727 297.141 200.746 290.009 196.264L301.414 184.534C291.976 185.984 282.449 186.787 272.902 186.937C273.472 193.535 274.124 200.459 274.775 207.708L251.273 209.989C250.54 201.843 249.807 194.024 249.155 186.937C241.145 187.093 233.139 186.479 225.246 185.105C217.099 183.068 213.026 180.339 213.026 176.959C213.32 170.286 216.25 164.002 221.173 159.487C219.922 158.453 218.911 157.16 218.208 155.698C217.505 154.235 217.127 152.638 217.099 151.016C217.099 148.45 219.91 145.599 225.572 142.463C227.853 141.282 230.174 140.142 232.577 139.002L204.065 139.572L202.355 122.548C218.647 122.249 234.94 121.774 251.233 121.122L250.947 118.516L212.578 119.086L210.745 103.651L249.114 102.917C248.911 101.777 248.789 100.677 248.666 99.6185H203.862L207.202 81.6987ZM208.342 185.96L230.093 188.118C228.491 194.788 227.671 201.622 227.649 208.482L206.02 206.038C205.996 199.277 206.775 192.537 208.342 185.96V185.96ZM240.316 166.044C240.027 166.318 239.828 166.673 239.746 167.062C239.746 168.284 240.724 169.14 242.72 169.628C249.58 170.318 256.478 170.562 263.371 170.361C270.808 170.462 278.239 169.876 285.569 168.61C286.52 168.509 287.398 168.055 288.031 167.339C288.664 166.623 289.006 165.697 288.991 164.741C275.909 166.117 262.756 166.702 249.603 166.492C246.502 166.501 243.402 166.352 240.316 166.044V166.044ZM250.173 152.034C267.851 152.034 279.011 151.138 283.696 149.428C285.406 149.428 286.262 148.817 286.262 147.595C286.262 147.025 278.957 146.02 264.348 144.581C256.557 145.558 248.886 147.332 241.457 149.876C241.416 151.301 244.39 152.034 250.133 152.034H250.173Z" fill="white"/>
<path d="M353.835 81.6987H393.63C393.63 80.5583 393.386 79.3772 393.182 78.1554L416.806 75.834C417.024 77.7346 417.227 79.6895 417.417 81.6987H467.069L465.521 99.4556H419.535C419.535 100.311 419.535 101.248 419.82 102.184C432.04 101.886 444.409 101.506 456.927 101.044L458.638 116.642C446.418 117.131 434.199 117.498 421.694 117.783C421.694 118.557 421.694 119.33 421.979 120.104C437.267 119.425 452.732 118.652 468.373 117.783L470.083 134.97C460.267 135.54 450.41 136.069 440.594 136.558L446.337 138.554C453.383 141.119 456.927 144.54 456.927 148.735C457.005 151.273 456.415 153.787 455.216 156.025C459.544 160.81 462.153 166.901 462.629 173.334C462.573 175.446 461.831 177.482 460.516 179.135C459.201 180.788 457.384 181.968 455.338 182.498C461.754 185.903 467.551 190.364 472.486 195.694L457.008 211.17C450.58 205.727 443.774 200.746 436.643 196.264L448.047 184.534C438.609 185.984 429.083 186.787 419.535 186.937C420.106 193.535 420.757 200.459 421.409 207.708L397.907 209.989C397.174 201.843 396.441 194.024 395.789 186.937C387.779 187.093 379.772 186.479 371.879 185.105C363.733 183.068 359.66 180.339 359.66 176.959C359.953 170.286 362.883 164.002 367.806 159.487C366.556 158.453 365.545 157.16 364.842 155.698C364.139 154.235 363.76 152.638 363.733 151.016C363.733 148.45 366.544 145.599 372.205 142.463C374.486 141.282 376.808 140.142 379.211 139.002L350.699 139.572L348.988 122.548C365.281 122.249 381.641 121.774 398.07 121.122L397.785 118.516L359.416 119.086L357.583 103.651L395.952 102.917C395.952 101.777 395.626 100.677 395.504 99.6185H350.699L353.835 81.6987ZM354.976 185.96L376.726 188.118C375.125 194.788 374.305 201.622 374.283 208.482L352.654 206.038C352.629 199.277 353.409 192.537 354.976 185.96V185.96ZM386.95 166.044C386.661 166.318 386.462 166.673 386.38 167.062C386.38 168.284 387.357 169.14 389.353 169.628C396.214 170.318 403.112 170.562 410.004 170.361C417.442 170.462 424.873 169.876 432.203 168.61C433.153 168.509 434.031 168.055 434.664 167.339C435.298 166.623 435.64 165.697 435.624 164.741C422.542 166.117 409.389 166.702 396.237 166.492C393.136 166.501 390.036 166.352 386.95 166.044ZM396.807 152.034C414.485 152.034 425.645 151.138 430.329 149.428C432.04 149.428 432.895 148.817 432.895 147.595C432.895 147.025 425.591 146.02 410.982 144.581C403.19 145.558 395.52 147.332 388.091 149.876C388.05 151.301 391.023 152.034 396.766 152.034H396.807Z" fill="white"/>
<path d="M502.587 90.1695L526.212 96.4822C521.767 102.106 518.423 108.517 516.354 115.379C516.354 118.515 518.513 120.837 522.79 122.385C529.056 123.706 535.449 124.335 541.852 124.258C543.441 109.718 545.518 95.7491 548.003 81.6982L571.342 83.8568C569.143 97.2152 567.323 110.791 565.884 124.584C578.877 124.584 586.861 123.525 589.794 121.733C590.826 121.321 591.709 120.607 592.327 119.684C592.945 118.76 593.269 117.672 593.256 116.561C593.256 113.221 589.549 106.134 582.217 95.2196L605.842 88.9477C612.655 99.6096 616.417 111.935 616.717 124.584C616.786 127.749 616.03 130.878 614.523 133.663C613.016 136.448 610.811 138.793 608.123 140.467C601.361 145.572 589.522 148.11 572.605 148.083H563.603C562.748 159.242 562.055 170.442 561.607 181.724C571.534 181.683 581.444 180.92 591.26 179.443C595.618 178.751 597.818 177.407 597.818 175.37C597.446 168.625 595.28 162.102 591.545 156.473L614.314 151.341C618.532 161.097 620.669 171.625 620.587 182.253C620.778 185.156 620.107 188.05 618.658 190.572C617.208 193.094 615.045 195.131 612.44 196.426C605.538 199.629 598.167 201.706 590.608 202.576C579.508 204.055 568.325 204.816 557.127 204.857H545.966C527.148 204.857 513.829 203.662 506.009 201.273C502.05 200.296 498.562 197.957 496.156 194.665C493.75 191.373 492.58 187.339 492.852 183.271C493.028 172.594 494.52 161.98 497.292 151.667L519.776 156.799C517.504 162.315 516.129 168.158 515.703 174.108C515.703 177.57 518.269 179.647 523.442 180.421C527.23 180.991 532.077 181.439 537.901 181.724C538.173 170.076 538.743 158.672 539.612 147.513C536.272 147.214 532.932 146.97 529.592 146.78C521.13 146.298 512.836 144.211 505.153 140.63C501.456 139.083 498.308 136.464 496.115 133.109C493.923 129.755 492.786 125.821 492.852 121.814C493.397 110.618 496.744 99.7366 502.587 90.1695V90.1695Z" fill="white"/>
<path d="M648.936 102.184C646.573 103.053 644.048 103.867 641.36 104.627L637.287 86.8703C649.821 82.15 663.012 79.4022 676.389 78.7249C681.246 78.6195 685.992 80.1868 689.83 83.1642C691.77 84.7894 693.319 86.8304 694.363 89.1358C695.406 91.4413 695.918 93.952 695.858 96.4819C695.214 103.485 692.361 110.102 687.712 115.379C686.083 117.578 684.332 119.696 682.539 121.814C685.549 122.138 688.438 123.171 690.971 124.828C692.857 126.255 694.385 128.102 695.432 130.223C696.478 132.345 697.015 134.681 696.999 137.046V140.915C696.908 143.663 696.526 146.393 695.858 149.06L698.587 149.346L696.999 166.532L665.513 164.089C665.025 165.881 664.658 167.632 664.332 169.22C664.006 170.809 665.269 171.664 667.061 171.664C671.788 170.699 676.581 170.086 681.399 169.831H682.376C684.828 169.867 687.245 170.419 689.47 171.451C691.694 172.482 693.677 173.97 695.288 175.818C698.386 180.582 699.937 186.186 699.728 191.865C699.332 198.026 698.225 204.122 696.429 210.029L677.529 206.486C679.157 202.928 680.268 199.157 680.829 195.286C680.829 189.855 679.729 187.14 677.529 187.14C675.09 187.18 672.655 187.37 670.238 187.71C666.962 188.279 663.658 188.674 660.341 188.891C656.446 189.146 652.602 187.908 649.587 185.43C648.23 184.005 647.17 182.324 646.471 180.485C645.771 178.645 645.446 176.685 645.514 174.718C645.659 165.937 647.355 157.251 650.524 149.06C650.363 149.243 650.17 149.395 649.954 149.508L636.798 136.313C643.669 131.667 650.177 126.507 656.267 120.877C652.194 119.737 648.121 118.76 644.048 117.986L648.936 102.184ZM669.872 106.256C671.601 104.417 672.981 102.278 673.945 99.9437C673.945 97.9481 672.845 96.9706 670.646 96.9706C665.106 97.9888 658.752 99.5364 651.624 101.532C657.815 102.957 663.925 104.546 669.872 106.338V106.256ZM664.984 138.471C661.563 141.241 658.019 143.888 654.394 146.617H655.412C663.029 146.902 670.483 147.268 677.733 147.757C678.59 145.615 679.072 143.342 679.159 141.037C679.17 140.253 678.902 139.49 678.402 138.885C677.902 138.28 677.203 137.874 676.43 137.738C674.11 137.404 671.767 137.254 669.424 137.29C667.922 137.598 666.44 137.992 664.984 138.471V138.471ZM717.406 116.682C717.406 117.538 717.405 118.352 717.691 119.126C721.119 118.162 724.6 117.4 728.118 116.845C717.731 114.85 707.345 113.058 696.918 111.551L699.647 93.7939L710.97 95.2194C715.043 88.0514 718.383 81.6165 721.56 75.874L740.46 82.1867C737.078 87.4563 733.965 92.8935 731.132 98.4775L737.893 99.6179C742.184 92.6671 746.094 86.463 749.624 81.0056L767.22 86.7481C763.31 92.1784 759.685 97.7173 756.345 103.365L769.094 106.216L766.08 124.543C760.825 123.321 755.53 122.099 750.194 120.959C752.508 123.879 753.681 127.542 753.494 131.263C753.494 131.955 753.494 133.136 753.494 134.847C753.494 136.557 753.209 138.227 753.209 138.919C753.209 141.322 754.349 142.503 756.671 142.503C759.876 142.449 762.938 141.166 765.224 138.919L767.383 154.518C765.984 156.149 764.246 157.457 762.291 158.35C760.335 159.243 758.209 159.7 756.06 159.69C757.878 161.34 759.321 163.361 760.291 165.616C761.26 167.872 761.734 170.309 761.681 172.764C761.371 176.834 759.773 180.699 757.119 183.801C760.744 184.656 764.369 185.552 767.994 186.529L765.102 203.146C757.689 201.232 750.235 199.44 742.781 197.851C735.878 203.569 728.397 208.551 720.46 212.717L707.223 199.562C711.432 197.444 715.342 195.245 718.953 192.964L704.779 190.521L706.937 179.361L703.231 164.048C714.712 159.189 726.894 156.192 739.319 155.17C737.907 153.691 736.817 151.936 736.116 150.016C735.415 148.095 735.119 146.051 735.246 144.01C735.246 143.237 735.246 141.322 735.653 138.268C735.683 137.739 735.683 137.208 735.653 136.679C735.653 134.317 734.35 133.136 731.784 133.136C727.535 133.404 723.382 134.512 719.564 136.394C720.297 142.911 721.071 149.631 721.845 156.758L703.516 158.631C701.805 143.535 700.23 130.163 698.791 118.515L717.406 116.682ZM737.242 179.524C738.381 178.571 739.31 177.392 739.971 176.062C739.971 173.13 738.749 171.623 736.386 171.623C730.882 172.885 725.444 174.421 720.094 176.225C725.674 177.284 731.417 178.343 737.242 179.524Z" fill="white"/>
</g>
<defs>
<clipPath id="clip0_52_58">
<rect width="971" height="1219" fill="white"/>
</clipPath>
</defs>
</svg>
