<svg width="971" height="1219" viewBox="0 0 971 1219" fill="none" xmlns="http://www.w3.org/2000/svg">
<g clip-path="url(#clip0_52_30)">
<path d="M792.84 884.591L971 853.394V185.715L822.981 166.655L971 150.934V66.0592C971 48.5392 964.039 31.7368 951.649 19.3483C939.26 6.95979 922.455 0 904.933 0L66.0666 0C48.5447 0 31.7404 6.95979 19.3505 19.3483C6.96057 31.7368 0 48.5392 0 66.0592L0 584.025L125.861 610.905L0 613.837V1152.94C0 1170.46 6.96057 1187.26 19.3505 1199.65C31.7404 1212.04 48.5447 1219 66.0666 1219H93.6826L158.161 1100.61L126.064 1219H904.933C922.455 1219 939.26 1212.04 951.649 1199.65C964.039 1187.26 971 1170.46 971 1152.94V895.342L792.84 884.591Z" fill="#51331F"/>
<path d="M797.443 864.024L971 833.56V181.398L826.851 162.908L971.041 147.554V64.5524C971.057 56.0845 969.404 47.6964 966.175 39.868C962.946 32.0395 958.206 24.9242 952.225 18.9288C946.244 12.9335 939.14 8.17588 931.319 4.92793C923.498 1.67998 915.113 0.00545334 906.644 0.000115883H89.6096C81.1251 -0.0159684 72.7208 1.64245 64.8786 4.88031C57.0363 8.11817 49.9102 12.8718 43.9089 18.8687C37.9075 24.8656 33.1488 31.9879 29.9057 39.8272C26.6625 47.6666 24.9986 56.0688 25.0093 64.5524V570.423L147.652 596.732L25.0093 599.542V1126.14C24.9986 1134.63 26.6625 1143.03 29.9057 1150.87C33.1488 1158.71 37.9075 1165.83 43.9089 1171.83C49.9102 1177.82 57.0363 1182.58 64.8786 1185.81C72.7208 1189.05 81.1251 1190.71 89.6096 1190.69H116.33L178.975 1075.19L147.652 1190.9H906.644C915.11 1190.89 923.49 1189.21 931.307 1185.96C939.123 1182.71 946.222 1177.95 952.199 1171.96C958.176 1165.96 962.912 1158.85 966.138 1151.02C969.364 1143.2 971.016 1134.81 971 1126.35V874.531L797.443 864.024Z" fill="#83593D"/>
<path opacity="0.32" d="M967.212 134.888C865.737 143.778 763.821 146.579 662.01 143.278C492.282 137.617 408.864 117.375 237.343 120.226C166.358 121.407 95.4829 126.3 25.0093 134.888V88.8257C68.9179 85.7304 139.954 81.617 227.73 81.2097C412.611 80.273 497.536 96.4009 665.31 99.2925C766.056 100.945 866.822 97.4511 967.212 88.8257V134.888Z" fill="#291100"/>
<path opacity="0.19" d="M967.212 497.236C865.737 506.126 763.821 508.927 662.01 505.626C492.282 499.965 408.864 479.723 237.343 482.574C166.358 483.754 95.4829 488.648 25.0093 497.236V451.174C68.9179 448.078 139.954 443.965 227.73 443.558C412.611 442.621 497.536 458.749 665.31 461.641C766.056 463.293 866.822 459.799 967.212 451.174V497.236Z" fill="#050000"/>
<path opacity="0.19" d="M969.126 715.044C867.65 723.912 765.735 726.713 663.925 723.434C494.237 717.773 410.778 697.491 239.298 700.382C168.313 701.561 97.4377 706.455 26.9642 715.044V668.982C70.8321 665.846 141.909 661.773 229.685 661.325C414.566 660.429 499.491 676.557 667.265 679.449C768.011 681.101 868.777 677.607 969.167 668.982L969.126 715.044Z" fill="white"/>
<path opacity="0.06" d="M969.126 1070.31C867.651 1079.19 765.735 1082 663.925 1078.7C494.237 1073.03 410.778 1052.79 239.298 1055.64C168.313 1056.82 97.4377 1061.72 26.9642 1070.31V1024.24C70.8321 1021.15 141.909 1017.03 229.685 1016.63C414.566 1015.69 499.491 1031.82 667.265 1034.71C768.011 1036.36 868.777 1032.87 969.167 1024.24L969.126 1070.31Z" fill="white"/>
<path opacity="0.19" d="M967.212 316.082C865.731 324.874 763.816 327.594 662.01 324.228C492.282 318.811 408.864 298.529 237.343 301.38C166.358 302.56 95.4829 307.454 25.0093 316.042V270.02C68.9179 266.884 139.954 262.811 227.73 262.363C412.611 261.427 497.536 277.595 665.31 280.487C766.056 282.139 866.822 278.645 967.212 270.02V316.082Z" fill="#4F3324"/>
<path opacity="0.19" d="M969.126 955.863C867.651 964.752 765.735 967.553 663.925 964.253C494.237 958.592 410.778 938.35 239.298 941.201C168.313 942.38 97.4377 947.274 26.9642 955.863V909.801C70.8321 906.665 141.909 902.592 229.685 902.144C414.566 901.248 499.491 917.376 667.265 920.268C768.011 921.92 868.777 918.426 969.167 909.801L969.126 955.863Z" fill="#050000"/>
<path opacity="0.19" d="M598.754 835.474C537.21 844.325 474.945 847.121 412.855 843.823C309.478 838.162 258.686 817.921 154.21 820.812C110.762 821.998 67.4967 826.903 24.887 835.474V789.371C65.9187 784.702 107.171 782.227 148.467 781.959C261.089 781.022 312.818 797.15 415.014 800.042C476.452 801.657 537.916 798.087 598.754 789.371V835.474Z" fill="#4F3324"/>
<path opacity="0.19" d="M967.212 597.75C899.715 606.646 831.554 609.454 763.554 606.14C650.442 600.479 594.844 580.237 480.51 583.129C433.021 584.319 385.697 589.207 338.968 597.75V551.688C368.213 548.593 415.584 544.479 474.075 544.072C597.328 543.135 653.945 559.263 765.753 562.155C833.008 563.846 900.292 560.346 967.008 551.688L967.212 597.75Z" fill="#2C1400"/>
<path d="M795.406 330.825H193.067C168.412 330.825 148.426 350.81 148.426 375.462V732.068C148.426 756.72 168.412 776.705 193.067 776.705H795.406C820.061 776.705 840.048 756.72 840.048 732.068V375.462C840.048 350.81 820.061 330.825 795.406 330.825Z" fill="#F0C7A3"/>
<path d="M358.112 399.654C362.041 400.235 365.868 401.374 369.476 403.035L366.625 412.769C362.935 411.203 359.12 409.949 355.22 409.022L358.112 399.654ZM400.065 379.291C403.143 379.117 406.214 379.734 408.986 381.083C410.143 381.573 411.123 382.405 411.793 383.468C412.463 384.531 412.791 385.774 412.733 387.029C412.743 388.034 412.52 389.027 412.081 389.932C411.643 390.836 411.002 391.627 410.208 392.242L408.701 393.26L412.163 393.627L411.633 400.998C412.632 401.618 413.573 402.327 414.444 403.116C417.65 406.534 419.416 411.056 419.372 415.742V418.796C418.846 425.01 417.672 431.153 415.869 437.123L404.79 435.209C406.828 429.696 407.983 423.896 408.212 418.022C408.581 414.984 407.796 411.917 406.012 409.429C404.052 407.935 401.632 407.172 399.169 407.27V407.27C399.169 408.818 399.577 410.447 399.74 412.076L406.053 412.646L405.564 419.855L400.391 419.489C400.391 420.14 400.391 420.751 400.636 421.362L405.361 421.81L404.79 429.019L401.491 428.815C401.491 429.996 401.776 431.218 401.898 432.48L397.825 432.888L399.414 440.748C392.773 442.548 385.929 443.493 379.048 443.558H376.115C371.219 443.714 366.365 442.606 362.022 440.341C360.013 439.158 358.359 437.456 357.233 435.414C356.108 433.371 355.553 431.064 355.627 428.734C355.794 423.402 356.968 418.151 359.089 413.257L370.535 415.782C368.454 419.077 367.248 422.847 367.032 426.738C366.96 427.799 367.166 428.861 367.631 429.818C368.095 430.776 368.801 431.595 369.68 432.195C370.924 432.933 372.314 433.392 373.753 433.539C372.422 422.679 371.227 411.818 370.168 400.958L381.614 399.736V401.039C384.139 400.347 386.705 399.817 389.272 399.369L381.125 398.677L382.062 390.98L393.467 391.794C396.108 391.037 398.694 390.098 401.206 388.984C401.695 388.74 401.898 388.536 401.898 388.414C401.898 388.292 400.921 387.844 398.966 387.844C390.836 388.245 382.782 389.612 374.975 391.916L372.612 383.323C381.559 380.831 390.781 379.463 400.065 379.25V379.291ZM359.741 385.929C363.955 386.513 368.067 387.678 371.961 389.391L369.028 399.41C365.163 397.76 361.135 396.518 357.012 395.704L359.741 385.929ZM388.253 411.425C388.253 410.529 388.253 409.633 387.968 408.777C386.095 409.185 384.302 409.633 382.551 410.162V411.139L388.253 411.425ZM389.394 420.67C389.394 420.099 389.394 419.489 389.394 418.878L383.61 418.43C383.61 419.122 383.61 419.733 383.61 420.303C385.687 420.385 387.602 420.466 389.516 420.629L389.394 420.67ZM385.035 433.539C386.909 433.539 388.824 433.01 390.779 432.643L390.208 428.041C388.253 428.041 386.135 428.041 384.384 427.675C384.75 429.548 384.954 431.707 385.158 433.499L385.035 433.539Z" fill="black"/>
<path d="M436.765 381.531C436.807 381.801 436.807 382.076 436.765 382.345C439.874 381.51 443.077 381.072 446.296 381.042C447.917 380.919 449.545 381.188 451.04 381.826C452.536 382.464 453.857 383.452 454.89 384.708C456.9 387.659 457.952 391.157 457.904 394.726V398.433C457.904 404.053 456.764 407.759 454.524 409.47L452.243 410.691C454.01 411.547 455.631 412.673 457.049 414.031C458.824 415.78 459.958 418.075 460.267 420.547C460.281 420.974 460.197 421.398 460.02 421.787C459.844 422.175 459.579 422.518 459.249 422.787C459.834 423.57 460.3 424.434 460.633 425.353V425.72C461.089 424.549 461.691 423.44 462.426 422.421C462.024 422.092 461.704 421.674 461.492 421.201C461.28 420.727 461.181 420.211 461.204 419.692C461.489 417.185 462.509 414.819 464.136 412.891C465.317 411.667 466.694 410.648 468.21 409.877C466.165 409.158 464.341 407.923 462.914 406.293C460.936 403.507 459.959 400.134 460.145 396.722C460.239 390.767 461.298 384.866 463.281 379.25L468.21 380.553C471.811 379.303 475.598 378.669 479.411 378.68C481.428 378.583 483.441 378.941 485.301 379.727C487.161 380.512 488.821 381.705 490.158 383.218C491.496 384.731 492.476 386.525 493.027 388.468C493.577 390.41 493.685 392.452 493.341 394.441V396.926C493.28 401.754 492.775 406.566 491.834 411.302C491.336 415.378 490.281 419.366 488.698 423.154L479.248 421.118C480.658 417.141 481.735 413.055 482.466 408.899C479.289 409.743 476.018 410.181 472.731 410.203H471.875C473.401 410.928 474.859 411.787 476.234 412.768C477.969 414.083 479.147 416.002 479.533 418.144C479.596 418.8 479.5 419.461 479.251 420.071C479.003 420.681 478.61 421.222 478.107 421.647C478.921 422.404 479.645 423.251 480.266 424.172C480.908 425.127 481.274 426.24 481.325 427.389C481.334 427.964 481.201 428.533 480.938 429.044C480.675 429.555 480.291 429.994 479.818 430.322C480.708 431.879 481.224 433.622 481.325 435.413C481.405 436.362 481.273 437.317 480.936 438.208C480.6 439.099 480.069 439.904 479.382 440.563C478.695 441.223 477.869 441.721 476.965 442.021C476.061 442.32 475.101 442.414 474.156 442.296H473.382H472.079L472.446 444.658L464.055 445.513C463.322 440.707 462.629 435.861 462.059 431.055C461.632 430.839 461.246 430.55 460.919 430.2C460.434 430.865 459.79 431.397 459.045 431.747C459.86 435.82 460.796 440.137 461.855 444.658L453.709 445.513C453.424 444.25 453.139 443.069 452.854 441.929C452.039 441.929 451.265 441.929 450.573 441.929C448.026 442.134 445.475 441.582 443.241 440.341C442.589 439.88 442.056 439.27 441.688 438.561C441.32 437.853 441.126 437.066 441.123 436.268C441.162 434.646 441.581 433.056 442.345 431.625C441.896 431.371 441.522 431.005 441.257 430.562C440.993 430.119 440.849 429.615 440.838 429.1C440.838 428.774 440.838 428.408 440.838 427.96L430.981 429.1C429.46 411.832 428.048 396.41 426.745 382.834L436.765 381.531ZM437.946 393.423C441.227 392.804 444.548 392.423 447.884 392.283C447.779 391.467 447.486 390.686 447.029 390.002C446.684 389.573 446.242 389.231 445.739 389.004C445.237 388.778 444.688 388.673 444.137 388.699C441.918 388.944 439.741 389.478 437.661 390.287C437.742 391.265 437.824 392.324 437.946 393.423V393.423ZM438.924 404.094C440.471 404.094 441.856 404.419 442.997 404.501C444.444 404.587 445.878 404.186 447.07 403.361C447.64 402.994 448.007 401.976 448.21 400.306C445.011 400.419 441.825 400.773 438.679 401.365L438.924 404.094ZM441.082 427.43C441.546 425.997 442.19 424.629 442.997 423.357C442.67 423.009 442.415 422.599 442.248 422.152C442.08 421.705 442.002 421.228 442.019 420.751C442.296 418.19 443.348 415.775 445.033 413.827C445.512 413.26 446.059 412.754 446.663 412.32H444.3C442.793 412.32 441.204 412.32 439.657 412.32C440.105 417.045 440.594 422.176 441.082 427.634V427.43ZM449.229 419.04C452.324 419.04 453.872 419.04 453.872 418.47C453.79 417.717 453.415 417.026 452.828 416.546C452.242 416.066 451.49 415.836 450.736 415.904C449.025 416.19 448.129 417.045 448.129 418.47C448.373 418.878 448.699 419.04 449.392 419.04H449.229ZM449.636 424.416C449.086 425.052 448.658 425.784 448.373 426.575C448.381 426.767 448.448 426.952 448.564 427.105C448.681 427.258 448.842 427.372 449.025 427.43C449.687 427.526 450.359 427.526 451.021 427.43C451.732 427.473 452.444 427.348 453.098 427.064C453.245 427.019 453.372 426.926 453.461 426.801C453.549 426.676 453.594 426.525 453.587 426.371C453.44 425.591 453.12 424.853 452.65 424.213H449.636V424.416ZM451.51 436.227C451.51 435.25 451.143 434.191 450.939 433.173H450.288H449.31C449.041 433.623 448.823 434.101 448.658 434.598C448.638 434.844 448.671 435.092 448.756 435.324C448.84 435.556 448.973 435.767 449.147 435.942C449.6 436.288 450.168 436.448 450.736 436.39L451.51 436.227ZM468.78 418.185C471.794 418.185 473.26 418.185 473.26 417.696C472.934 416.108 471.794 415.334 469.839 415.334C467.884 415.334 467.558 416.312 467.558 417.696C467.748 418.022 468.21 418.185 468.943 418.185H468.78ZM469.106 423.643C468.61 424.135 468.209 424.715 467.924 425.353C467.904 425.64 467.966 425.926 468.103 426.179C468.24 426.431 468.447 426.639 468.698 426.779C469.444 427.091 470.255 427.217 471.061 427.145C471.427 427.184 471.798 427.138 472.144 427.011C472.49 426.884 472.802 426.679 473.057 426.412C473.24 426.244 473.38 426.034 473.466 425.8C473.551 425.566 473.578 425.315 473.545 425.068C473.545 424.742 473.179 424.213 472.405 423.561H471.142L469.106 423.643ZM483.728 400.021C483.728 398.188 483.728 396.681 483.728 395.5C483.888 394.174 483.776 392.828 483.398 391.547C483.019 390.265 482.383 389.074 481.529 388.047C480.265 387.315 478.834 386.923 477.374 386.907C474.979 387.224 472.611 387.714 470.287 388.373C470.287 389.31 469.92 390.165 469.798 390.98C473.179 390.694 476.478 390.532 479.737 390.532L480.673 398.351C476.845 398.351 473.26 398.351 469.92 398.758C470.45 400.795 471.55 401.772 473.138 401.772C476.791 401.748 480.419 401.157 483.891 400.021H483.728ZM470.613 432.603C470.869 433.703 471.059 434.819 471.183 435.942H472.486C473.22 435.942 473.545 435.453 473.545 434.435C473.479 433.688 473.164 432.985 472.649 432.44H471.346L470.613 432.603Z" fill="black"/>
<path d="M513.747 416.026L505.886 413.379C507.922 409.306 509.959 405.641 511.548 402.301L503.401 404.826C501.711 399.277 500.485 393.596 499.735 387.843L509.185 384.992C509.272 386.073 509.421 387.147 509.633 388.21C515.005 386.834 520.442 385.733 525.926 384.911C525.463 383.902 525.055 382.869 524.704 381.816L535.661 377.743C536.401 379.861 537.414 381.874 538.675 383.73C542.381 383.445 546.251 383.241 550.283 383.16C554.236 383.005 558.183 383.57 561.933 384.829C563.28 385.406 564.434 386.357 565.257 387.57C566.081 388.783 566.538 390.206 566.576 391.672C566.367 395.299 565.696 398.884 564.58 402.342L553.705 400.835C554.476 398.721 555.049 396.539 555.416 394.319C555.416 393.016 552.849 392.323 547.758 392.323C544.296 392.323 540.874 392.771 537.534 393.097C538.637 394.064 539.621 395.157 540.467 396.355L537.168 399.613C539.897 397.862 542.626 396.152 545.314 394.563L552.972 399.776C547.31 403.36 541.811 407.026 536.679 410.813C541.14 410.156 545.56 409.245 549.917 408.085L551.424 416.23C545.467 418.041 539.312 419.122 533.095 419.447C530.738 419.499 528.388 419.183 526.13 418.511C523.93 420.18 522.056 421.891 519.857 423.602L525.274 424.823C524.134 426.556 523.384 428.515 523.075 430.566C523.017 431.469 523.312 432.36 523.896 433.05C524.481 433.741 525.311 434.179 526.211 434.272C528.385 434.714 530.592 434.973 532.809 435.046C532.117 430.199 531.547 425.719 531.017 421.687L542.544 420.588L544.377 434.924C546.41 434.677 548.382 434.07 550.202 433.132C550.86 432.859 551.416 432.385 551.789 431.778C552.162 431.171 552.333 430.462 552.279 429.751C552.04 426.116 550.737 422.632 548.532 419.732L560.018 417.167C562.51 422.145 563.781 427.646 563.725 433.213C563.853 434.582 563.632 435.96 563.084 437.221C562.536 438.481 561.677 439.582 560.588 440.422C558.141 442.039 555.353 443.07 552.442 443.436C548.416 444.223 544.325 444.632 540.223 444.657H535.335C529.331 444.906 523.32 444.372 517.454 443.069C515.706 442.666 514.16 441.653 513.092 440.213C512.024 438.772 511.506 436.998 511.629 435.209C511.634 433.6 511.757 431.994 511.996 430.403L509.837 432.358L501.243 426.33C505.438 422.706 509.592 419.488 513.747 416.026ZM521.038 396.518L530.488 398.514C529.738 400.629 529.193 402.811 528.859 405.03C530.786 403.7 532.701 402.437 534.602 401.242C532.679 399.232 530.609 397.367 528.41 395.663L530.08 393.912C523.838 394.814 517.651 396.065 511.548 397.658C511.548 398.636 512.036 399.613 512.322 400.591L513.258 398.799L519.775 400.957C520.142 399.369 520.59 397.903 521.038 396.518ZM519.042 408.085C517.942 410.202 516.883 412.157 515.906 414.397L519.327 411.831C519.327 411.261 519.205 410.61 518.961 409.877C518.961 409.266 519.002 408.655 519.042 408.085ZM556.189 402.22C559.534 404.089 562.481 406.593 564.865 409.591L559.081 415.415C556.538 412.775 553.816 410.312 550.935 408.044L556.189 402.22Z" fill="black"/>
<path d="M590.608 378.761C591.475 381.829 592.706 384.782 594.274 387.558C596.826 387.558 599.392 387.558 601.972 387.558L602.909 397.211C593.608 397.153 584.318 397.848 575.13 399.288L574.315 389.35C577.044 388.902 579.732 388.576 582.461 388.332C581.769 386.662 581.076 384.911 580.466 383.038L590.608 378.761ZM578.388 420.344L583.235 421.362C585.022 420.918 586.853 420.672 588.693 420.629C590.793 420.618 592.89 420.768 594.966 421.077C596.786 421.373 598.452 422.277 599.691 423.642C601.279 424.783 602.053 428.163 602.053 433.824V434.965C602.091 436.319 601.791 437.661 601.179 438.87C600.568 440.079 599.664 441.116 598.55 441.888C595.788 443.731 592.497 444.618 589.182 444.413H588.042C584.015 444.745 580.008 443.57 576.8 441.114C575.906 440.118 575.221 438.952 574.788 437.685C574.354 436.419 574.179 435.078 574.274 433.743C574.36 428.953 575.785 424.284 578.388 420.262V420.344ZM598.754 409.388L599.691 418.063C592.01 418.03 584.336 418.506 576.718 419.488L575.904 410.895C583.479 409.885 591.111 409.354 598.754 409.306V409.388ZM598.754 399.451L599.691 407.596C592.7 407.562 585.717 408.038 578.796 409.021L577.94 400.876C584.839 399.932 591.791 399.428 598.754 399.369V399.451ZM587.797 435.779C588.849 435.885 589.9 435.579 590.73 434.924C591.318 434.205 591.596 433.282 591.504 432.358C591.504 430.607 591.015 429.67 590.363 429.466C589.709 429.306 589.041 429.21 588.367 429.181C587.153 429.412 586 429.898 584.987 430.607C584.987 431.014 584.987 431.381 584.987 431.747C584.91 432.78 585.092 433.816 585.516 434.761C585.776 435.114 586.122 435.393 586.522 435.572C586.922 435.75 587.361 435.822 587.797 435.779ZM606.126 379.576C617.979 380.35 629.466 381.408 640.463 382.793L639.486 392.486C634.883 391.957 630.321 391.509 625.881 391.061C625.713 391.736 625.51 392.403 625.27 393.056C628.31 393.042 631.305 393.784 633.987 395.215C635.067 396.037 635.945 397.096 636.553 398.31C637.16 399.525 637.48 400.862 637.49 402.22V403.645C637.324 406.018 636.97 408.374 636.431 410.691L640.911 411.098L640.056 421.117L601.035 418.185L602.542 408.533L608.489 408.818C608.978 406.944 609.466 405.152 609.996 403.442C608.587 403.737 607.219 404.202 605.923 404.827L603.031 396.233C606.227 395.168 609.512 394.391 612.847 393.912L614.069 389.839C610.811 389.472 607.593 389.187 604.416 388.902L606.126 379.576ZM607.267 420.588L610.485 421.402C613.963 420.871 617.475 420.599 620.993 420.588C625.988 420.127 631.007 421.162 635.412 423.561C636.567 424.448 637.471 425.621 638.035 426.963C638.6 428.306 638.804 429.772 638.63 431.218V432.521C638.842 434.252 638.706 436.009 638.23 437.687C637.755 439.366 636.949 440.932 635.86 442.295C634.028 444.169 629.181 445.106 621.238 445.106H616.269C612.541 445.471 608.807 444.473 605.76 442.295C603.863 439.619 602.969 436.36 603.235 433.091C603.303 428.602 604.707 424.235 607.267 420.547V420.588ZM622.134 429.181C619.515 429.2 616.915 429.64 614.436 430.485C614.455 430.606 614.455 430.73 614.436 430.851C614.264 432.247 614.505 433.663 615.128 434.924C615.539 435.476 616.084 435.915 616.71 436.2C617.337 436.485 618.026 436.606 618.712 436.553H620.423C622.514 436.676 624.605 436.314 626.533 435.494C626.971 435.023 627.299 434.461 627.496 433.849C627.694 433.237 627.754 432.589 627.673 431.951C627.711 431.52 627.614 431.089 627.395 430.717C627.175 430.345 626.846 430.05 626.451 429.874C625.066 429.379 623.605 429.131 622.134 429.141V429.181ZM620.301 409.51L625.23 409.795C625.69 408.397 625.977 406.947 626.085 405.478C626.181 404.391 625.955 403.301 625.433 402.342C624.727 401.863 623.881 401.634 623.03 401.691H622.582C621.808 404.216 621.034 406.822 620.301 409.469V409.51Z" fill="black"/>
<g opacity="0.42">
<path opacity="0.42" d="M213.637 111.633C225.775 111.931 237.71 112.312 249.44 112.773C249.074 108.7 248.707 104.994 248.422 101.166L272.494 99.0074C272.861 103.895 273.268 108.863 273.635 113.914C287.484 114.484 301.088 115.176 314.367 116.072L312.086 139.531C299.649 138.961 287.429 138.336 275.427 137.657L276.975 151.423C292.657 150.771 308.257 150.405 323.816 150.405L325.853 173.456C309.56 173.456 293.756 173.741 278.482 174.312C278.93 181.113 279.46 187.914 280.03 194.675L283.492 183.638C298.631 186.711 313.514 190.931 328.012 196.264L321.78 216.994C306.437 212.514 292.86 208.645 281.048 205.386C281.537 211.495 282.026 217.604 282.474 223.876L258.442 226.035C257.587 215.324 256.772 204.938 255.998 194.797C245.788 204.463 235.524 214.346 225.205 224.447L208.587 208.97C220.073 197.322 231.206 186.394 241.987 176.185C229.061 177.244 216.543 178.439 204.432 179.769L202.314 156.718C219.095 155.089 235.85 153.731 252.577 152.645C252.169 147.187 251.803 141.852 251.436 136.598C237.302 135.947 223.535 135.214 210.175 134.481L213.637 111.633Z" fill="black"/>
<path opacity="0.42" d="M384.914 100.148L412.244 102.877C409.963 116.805 407.968 130.883 406.257 145.111C426.378 148.64 445.604 152.889 463.933 157.858L456.194 182.498C438.543 177.584 421.083 173.429 403.813 170.035C402.184 187.521 401.179 205.278 400.799 223.306L373.427 220.415C373.758 180.069 377.602 139.828 384.914 100.148V100.148Z" fill="black"/>
<path opacity="0.42" d="M515.336 97.7449L538.39 102.876C536.965 106.216 535.621 109.556 534.317 112.895L550.203 113.466C549.632 107.927 549.062 102.51 548.492 97.1747L572.564 94.8533C573.297 101.655 574.03 108.456 574.682 115.217C586.331 116.357 598.103 117.742 609.915 119.289L605.842 141.201C595.7 140.06 586.087 139.042 576.922 138.187C577.493 144.092 578.063 150.079 578.633 156.066C591.423 154.926 604.308 153.568 617.287 151.993L619.568 174.882L591.952 178.181C589.505 184.721 588.01 191.579 587.513 198.544C587.3 200.477 587.808 202.42 588.938 204.002C589.771 204.692 590.733 205.21 591.768 205.524C592.803 205.839 593.89 205.944 594.967 205.834C602.208 205.698 609.372 204.32 616.147 201.762L620.75 223.999C612.758 226.467 604.468 227.837 596.107 228.071H592.686C585.645 228.378 578.683 226.485 572.768 222.655C570.031 220.42 567.866 217.567 566.449 214.331C565.033 211.095 564.406 207.568 564.621 204.042C564.578 196.238 565.398 188.452 567.065 180.828C559.326 181.398 551.547 181.928 543.726 182.416C537.046 196.712 531.222 210.925 526.252 225.058L503.198 217.197C508.249 204.979 512.892 194.024 517.088 183.964L502.18 184.575L499.899 161.646C517.848 160.994 536.042 159.949 554.479 158.51C553.787 150.975 553.094 143.644 552.321 136.598C543.658 136.028 535.403 135.553 527.556 135.173C525.723 142.015 524.094 149.142 522.668 156.473L499.899 151.179C503.069 132.855 508.246 114.936 515.336 97.7449V97.7449Z" fill="black"/>
<path opacity="0.42" d="M655.249 99.5774L676.144 107.03C674.922 110.004 673.66 112.936 672.438 115.909C682.756 116.669 692.817 117.524 702.62 118.475L700.583 142.544L691.256 141.689C689.545 146.739 687.956 151.83 686.531 157.002C689.871 157.002 693.251 156.717 696.714 156.717L698.995 179.769C692.315 179.769 685.92 179.769 679.81 180.339C678.955 183.312 678.14 186.244 677.366 189.218C685.171 190.977 693.152 191.838 701.153 191.783L698.995 214.713C689.751 214.885 680.532 213.719 671.623 211.251C670.32 216.057 669.098 220.781 668.079 225.465L645.025 220.414C648.175 207.463 651.366 195.055 654.597 183.19L643.437 185.511L641.156 162.582C647.836 161.143 654.556 160.003 661.318 159.161C663.232 152.482 665.187 145.965 667.183 139.693L663.762 139.408C662.051 144.336 660.381 149.224 658.752 153.989L637.368 146.617C644.211 128.643 650.171 112.963 655.249 99.5774ZM714.269 112.203L725.266 114.606C728.802 113.6 732.392 112.798 736.02 112.203C745.754 112.203 752.068 113.058 754.919 114.769C757.522 115.89 759.875 117.519 761.841 119.561C763.806 121.603 765.344 124.017 766.365 126.661C769.976 132.553 771.89 144.336 772.108 162.012C772.325 179.687 770.37 192.53 766.242 200.54C763.863 205.918 759.934 210.465 754.956 213.6C749.979 216.734 744.18 218.312 738.301 218.134C725.022 218.134 715.369 213.857 709.259 205.264C703.149 196.671 700.583 183.475 700.583 166.614C700.557 147.622 705.261 128.923 714.269 112.203V112.203ZM736.02 196.385C738.322 196.468 740.586 195.779 742.453 194.429C744.319 193.079 745.682 191.145 746.325 188.932C748.45 181.497 749.371 173.77 749.054 166.044C749.054 148.368 748.008 138.865 745.917 137.535C744.625 135.802 742.714 134.635 740.582 134.277C738.701 133.922 736.793 133.731 734.879 133.707C732.571 134.372 730.323 135.23 728.158 136.272C725.079 145.212 723.483 154.594 723.434 164.048C722.947 172.387 723.813 180.749 726 188.81C726.549 191.03 727.844 192.993 729.668 194.372C731.492 195.751 733.734 196.462 736.02 196.385V196.385Z" fill="black"/>
</g>
<path d="M212.334 98.9257C224.553 99.2108 236.406 99.6181 248.137 100.066C247.77 95.9934 247.444 92.2872 247.159 88.4996L271.191 86.3411C271.598 91.1876 271.965 96.1563 272.331 101.247C286.18 101.817 299.757 102.523 313.063 103.365L310.782 126.864C298.372 126.294 286.153 125.67 274.124 124.991L275.264 138.757C290.905 138.051 306.505 137.711 322.065 137.739L324.386 160.79C308.094 160.79 292.29 161.075 276.975 161.645C277.463 168.447 277.952 175.248 278.563 182.009L282.229 171.053C297.368 174.126 312.251 178.346 326.749 183.679L320.476 204.286C305.079 199.806 291.502 195.937 279.744 192.679C280.193 198.788 280.681 204.897 281.17 211.169L257.098 213.287C256.242 202.617 255.428 192.191 254.654 182.09C244.417 191.783 234.207 201.68 224.024 211.78L207.405 196.304C218.864 184.656 229.984 173.728 240.764 163.519C227.839 164.578 215.334 165.772 203.251 167.103L201.092 144.051C217.928 142.422 234.682 141.065 251.355 139.979C250.988 134.521 250.581 129.186 250.214 123.932C236.067 123.28 222.313 122.561 208.953 121.774L212.334 98.9257Z" fill="white"/>
<path d="M383.61 87.4816L410.941 90.2103C408.66 104.139 406.664 118.217 404.953 132.444C425.075 135.974 444.314 140.223 462.67 145.192L455.053 169.628C437.294 164.714 419.78 160.641 402.509 157.41C400.88 174.895 399.875 192.639 399.495 210.64L372.164 207.708C372.464 167.375 376.294 127.146 383.61 87.4816V87.4816Z" fill="white"/>
<path d="M514.073 85.0378L537.127 90.2102C535.715 93.5498 534.358 96.8894 533.054 100.229L548.94 100.799C548.369 95.2603 547.799 89.8029 547.229 84.5084L571.301 82.2277C572.075 88.9883 572.767 95.8305 573.46 102.591C585.109 103.732 596.853 105.089 608.693 106.664L604.62 128.575C594.518 127.394 584.865 126.416 575.7 125.561C576.27 131.467 576.841 137.413 577.411 143.44C590.201 142.3 603.112 140.915 616.065 139.368L618.387 162.297L590.73 165.596C588.279 172.135 586.784 178.993 586.29 185.959C586.076 187.879 586.585 189.81 587.716 191.376C588.546 192.074 589.506 192.599 590.541 192.92C591.576 193.242 592.665 193.354 593.744 193.249C600.984 193.096 608.145 191.719 614.925 189.177L619.364 210.966C611.373 213.434 603.083 214.805 594.722 215.038H591.3C584.255 215.333 577.293 213.425 571.383 209.581C568.641 207.351 566.472 204.499 565.055 201.262C563.638 198.024 563.014 194.496 563.236 190.969C563.18 183.179 563.986 175.407 565.639 167.795C557.9 168.365 550.121 168.881 542.3 169.343C535.62 183.679 529.796 197.906 524.826 212.025L501.772 204.164C506.864 191.946 511.466 180.95 515.662 170.931L500.795 171.501L498.514 148.613C516.436 147.92 534.643 146.902 553.053 145.436C552.402 137.901 551.669 130.611 550.895 123.525C542.219 122.955 533.95 122.507 526.13 122.099C524.297 128.982 522.708 136.109 521.242 143.44L498.758 138.472C501.878 120.15 507.014 102.23 514.073 85.0378V85.0378Z" fill="white"/>
<path d="M653.946 86.911L675.004 94.3641C673.782 97.2964 672.519 100.269 671.297 103.243C681.616 104.003 691.69 104.858 701.52 105.808L699.076 129.878L689.749 129.023C688.038 134.073 686.449 139.164 685.024 144.336C688.364 144.336 691.785 144.051 695.207 144.051L697.488 167.102C690.808 167.102 684.413 167.102 678.303 167.673C677.448 170.605 676.633 173.578 675.859 176.551C683.664 178.31 691.645 179.171 699.646 179.117L697.488 202.046C688.259 202.199 679.056 201.033 670.157 198.584C668.813 203.35 667.631 208.074 666.572 212.757L643.559 207.707C646.695 194.715 649.913 182.334 653.131 170.483L641.971 172.764L639.486 149.916C646.166 148.49 652.887 147.35 659.852 146.454C661.725 139.775 663.721 133.299 665.717 126.986L662.255 126.701L657.245 141.322L636.064 133.747C642.826 115.854 648.786 100.242 653.946 86.911ZM712.803 99.4957L723.841 101.939C727.366 100.934 730.941 100.118 734.553 99.4957C744.288 99.4957 750.602 100.351 753.453 102.102C756.09 103.217 758.479 104.847 760.479 106.896C762.479 108.945 764.051 111.372 765.102 114.035C768.727 119.981 770.642 131.751 770.804 149.427C770.967 167.102 768.849 180.013 764.939 187.914C762.578 193.252 758.686 197.77 753.756 200.895C748.825 204.02 743.078 205.611 737.242 205.467C723.963 205.467 714.269 201.164 708.159 192.557C702.253 183.719 699.28 170.809 699.28 153.907C699.228 134.932 703.874 116.239 712.803 99.4957V99.4957ZM734.553 183.719C736.857 183.809 739.125 183.123 740.993 181.772C742.861 180.421 744.222 178.482 744.858 176.266C746.986 168.818 747.907 161.077 747.587 153.337C747.587 135.716 746.542 126.213 744.451 124.828C743.829 123.957 743.04 123.218 742.132 122.651C741.223 122.085 740.212 121.704 739.156 121.529C737.259 121.192 735.339 121.002 733.413 120.959C731.117 121.661 728.872 122.518 726.692 123.525C723.636 132.47 722.041 141.848 721.967 151.3C721.476 159.652 722.343 168.029 724.533 176.103C725.094 178.351 726.414 180.336 728.269 181.724C730.124 183.111 732.402 183.816 734.716 183.719H734.553Z" fill="white"/>
</g>
<defs>
<clipPath id="clip0_52_30">
<rect width="971" height="1219" fill="white"/>
</clipPath>
</defs>
</svg>
