<svg width="328" height="194" viewBox="0 0 328 194" fill="none" xmlns="http://www.w3.org/2000/svg">
<g clip-path="url(#clip0_35_7)">
<path d="M273.32 0.5H54.36C24.6139 0.5 0.5 24.6139 0.5 54.36V139.12C0.5 168.866 24.6139 192.98 54.36 192.98H273.32C303.066 192.98 327.18 168.866 327.18 139.12V54.36C327.18 24.6139 303.066 0.5 273.32 0.5Z" fill="#B08C1C" stroke="#231815" stroke-miterlimit="10"/>
<path d="M55.16 63.76C57.35 63.29 58.99 62.98 60.08 62.82C61.409 62.668 62.751 62.668 64.08 62.82C65.95 62.98 67.44 64.38 68.53 67.04C69.47 69.2267 70.5633 73.6 71.81 80.16L77.44 111.34H66.18L65.24 100.55L51.41 103.37L49.54 111.1L38.54 110.87C39.6266 106.65 41.3466 100.79 43.7 93.29C45.9 86.2633 49.72 76.42 55.16 63.76ZM54.46 93.05L63.83 92.82C63.3633 88.92 62.9733 85.95 62.66 83.91C62.19 81.42 61.41 78.05 60.32 73.84L54.46 93.05Z" fill="black"/>
<path d="M96.18 63.76C98.36 63.29 100 62.98 101.1 62.82C102.429 62.6673 103.771 62.6673 105.1 62.82C106.98 62.98 108.46 64.38 109.56 67.04C110.487 69.2267 111.58 73.6 112.84 80.16L118.46 111.34H107.19L106.25 100.55L92.43 103.37L90.55 111.1L79.55 110.87C80.6367 106.65 82.3533 100.79 84.7 93.29C86.9 86.2633 90.7267 76.42 96.18 63.76ZM95.47 93.05L104.85 92.82C104.383 88.92 103.993 85.95 103.68 83.91C103.21 81.42 102.42 78.05 101.33 73.84L95.47 93.05Z" fill="black"/>
<path d="M137.19 63.76C139.38 63.29 141.02 62.98 142.11 62.82C143.439 62.6681 144.781 62.6681 146.11 62.82C147.98 62.98 149.47 64.38 150.56 67.04C151.5 69.2267 152.593 73.6 153.84 80.16L159.47 111.34H148.21L147.27 100.55L133.44 103.37L131.57 111.1L120.57 110.87C121.663 106.65 123.383 100.79 125.73 93.29C127.91 86.2633 131.73 76.42 137.19 63.76ZM136.49 93.05L145.86 92.82C145.4 88.92 145 85.95 144.69 83.91C144.22 81.42 143.44 78.05 142.35 73.84L136.49 93.05Z" fill="black"/>
<path d="M178.21 63.76C180.39 63.29 182.03 62.98 183.13 62.82C184.459 62.6673 185.801 62.6673 187.13 62.82C189.01 62.98 190.49 64.38 191.59 67.04C192.523 69.2267 193.617 73.6 194.87 80.16L200.49 111.34H189.22L188.29 100.55L174.46 103.37L172.58 111.1L161.58 110.87C162.667 106.65 164.383 100.79 166.73 93.29C168.91 86.2633 172.737 76.42 178.21 63.76ZM177.5 93.05L186.88 92.82C186.413 88.92 186.023 85.95 185.71 83.91C185.24 81.42 184.46 78.05 183.36 73.84L177.5 93.05Z" fill="black"/>
<path d="M219.22 63.76C221.41 63.29 223.05 62.98 224.15 62.82C225.479 62.6673 226.821 62.6673 228.15 62.82C230.02 62.98 231.51 64.38 232.6 67.04C233.54 69.2267 234.633 73.6 235.88 80.16L241.51 111.34H230.24L229.3 100.55L215.47 103.37L213.6 111.1L202.6 110.87C203.687 106.65 205.407 100.79 207.76 93.29C209.92 86.2633 213.74 76.42 219.22 63.76ZM218.52 93.05L227.9 92.82C227.43 88.92 227.03 85.95 226.72 83.91C226.25 81.42 225.47 78.05 224.38 73.84L218.52 93.05Z" fill="black"/>
<path d="M260.24 63.76C262.43 63.29 264.07 62.98 265.16 62.82C266.489 62.668 267.831 62.668 269.16 62.82C271 63 272.5 64.38 273.6 67C274.54 69.1867 275.633 73.56 276.88 80.12L282.5 111.3H271.25L270.32 100.51L256.49 103.33L254.61 111.06L243.61 110.83C244.703 106.61 246.42 100.75 248.76 93.25C250.92 86.25 254.747 76.42 260.24 63.76ZM259.54 93.05L268.91 92.82C268.437 88.92 268.047 85.95 267.74 83.91C267.27 81.42 266.49 78.05 265.4 73.84L259.54 93.05Z" fill="black"/>
</g>
<defs>
<clipPath id="clip0_35_7">
<rect width="327.68" height="193.48" fill="white"/>
</clipPath>
</defs>
</svg>
